<?xml version="1.0" encoding="UTF-8"?>
<!DOCTYPE svg PUBLIC "-//W3C//DTD SVG 1.1//EN" "http://www.w3.org/Graphics/SVG/1.1/DTD/svg11.dtd">
<svg xmlns="http://www.w3.org/2000/svg" version="1.1" width="512px" height="512px" style="shape-rendering:geometricPrecision; text-rendering:geometricPrecision; image-rendering:optimizeQuality; fill-rule:evenodd; clip-rule:evenodd" xmlns:xlink="http://www.w3.org/1999/xlink">
<g><path style="opacity:0.985" fill="#ff9f63" d="M 284.5,95.5 C 278.395,101.103 272.395,106.936 266.5,113C 264.266,114.75 261.932,116.25 259.5,117.5C 258.399,116.152 257.399,114.652 256.5,113C 255.833,112.333 255.167,112.333 254.5,113C 249.304,121.673 243.97,130.173 238.5,138.5C 238.565,138.062 238.399,137.728 238,137.5C 206.604,166.402 175.104,195.068 143.5,223.5C 135.2,216.535 127.2,209.202 119.5,201.5C 126.573,194.782 133.906,188.282 141.5,182C 142.823,181.184 143.489,180.017 143.5,178.5C 150.163,184.995 156.996,191.329 164,197.5C 184.667,163.5 205.333,129.5 226,95.5C 238.967,76.8007 255.467,72.9674 275.5,84C 279.478,87.136 282.478,90.9694 284.5,95.5 Z"/></g>
<g><path style="opacity:0.982" fill="#ff9963" d="M 284.5,95.5 C 291.486,106.797 298.486,118.131 305.5,129.5C 304.448,129.351 303.448,129.517 302.5,130C 294.962,137.041 287.296,143.874 279.5,150.5C 272.582,139.666 265.915,128.666 259.5,117.5C 261.932,116.25 264.266,114.75 266.5,113C 272.395,106.936 278.395,101.103 284.5,95.5 Z"/></g>
<g><path style="opacity:0.982" fill="#ffb162" d="M 97.5,135.5 C 88.5678,142.095 80.2344,149.429 72.5,157.5C 70.5372,156.04 68.7038,154.373 67,152.5C 67.2012,155.777 67.3679,159.111 67.5,162.5C 56.5378,171.129 46.2044,180.462 36.5,190.5C 34.936,175.54 34.1027,160.54 34,145.5C 39.462,125.343 52.6286,116.51 73.5,119C 78.2234,120.196 82.5568,122.196 86.5,125C 90.0622,128.732 93.7288,132.232 97.5,135.5 Z"/></g>
<g><path style="opacity:0.977" fill="#ff8564" d="M 457.5,120.5 C 420.361,154.134 383.028,187.634 345.5,221C 342.553,223.436 340.22,226.269 338.5,229.5C 326.269,225.603 317.935,217.603 313.5,205.5C 315.932,204.25 318.266,202.75 320.5,201C 326.096,194.897 332.096,189.397 338.5,184.5C 341.807,188.426 344.64,192.76 347,197.5C 372.929,173.449 398.762,149.283 424.5,125C 434.743,118.219 445.743,116.719 457.5,120.5 Z"/></g>
<g><path style="opacity:0.977" fill="#ff8165" d="M 457.5,120.5 C 470.723,126.925 477.39,137.592 477.5,152.5C 466.484,163.848 454.818,174.514 442.5,184.5C 442.849,173.774 443.349,163.107 444,152.5C 418.214,175.985 392.714,199.819 367.5,224C 358.666,230.244 349,232.077 338.5,229.5C 340.22,226.269 342.553,223.436 345.5,221C 383.028,187.634 420.361,154.134 457.5,120.5 Z"/></g>
<g><path style="opacity:0.985" fill="#ff9264" d="M 305.5,129.5 C 311.167,138.833 316.833,148.167 322.5,157.5C 321.448,157.351 320.448,157.517 319.5,158C 311.962,165.041 304.296,171.874 296.5,178.5C 290.833,169.167 285.167,159.833 279.5,150.5C 287.296,143.874 294.962,137.041 302.5,130C 303.448,129.517 304.448,129.351 305.5,129.5 Z"/></g>
<g><path style="opacity:0.981" fill="#ffab61" d="M 97.5,135.5 C 105.193,142.861 112.86,150.194 120.5,157.5C 112.174,164.493 104.174,171.826 96.5,179.5C 88.1742,172.507 80.1742,165.174 72.5,157.5C 80.2344,149.429 88.5678,142.095 97.5,135.5 Z"/></g>
<g><path style="opacity:0.983" fill="#ff9a63" d="M 238.5,138.5 C 223.941,163.277 209.107,187.944 194,212.5C 184.389,228.382 170.556,233.882 152.5,229C 149.102,227.643 146.102,225.81 143.5,223.5C 175.104,195.068 206.604,166.402 238,137.5C 238.399,137.728 238.565,138.062 238.5,138.5 Z"/></g>
<g><path style="opacity:0.979" fill="#ff7965" d="M 477.5,152.5 C 476.235,167.811 475.235,183.145 474.5,198.5C 462.885,209.11 451.218,219.777 439.5,230.5C 439.884,215.073 440.884,199.739 442.5,184.5C 454.818,174.514 466.484,163.848 477.5,152.5 Z"/></g>
<g><path style="opacity:0.985" fill="#ffa562" d="M 120.5,157.5 C 128.492,164.159 136.159,171.159 143.5,178.5C 143.489,180.017 142.823,181.184 141.5,182C 133.906,188.282 126.573,194.782 119.5,201.5C 111.807,194.139 104.14,186.806 96.5,179.5C 104.174,171.826 112.174,164.493 120.5,157.5 Z"/></g>
<g><path style="opacity:0.985" fill="#ff8c64" d="M 322.5,157.5 C 328.097,166.363 333.43,175.363 338.5,184.5C 332.096,189.397 326.096,194.897 320.5,201C 318.266,202.75 315.932,204.25 313.5,205.5C 307.597,196.705 301.931,187.705 296.5,178.5C 304.296,171.874 311.962,165.041 319.5,158C 320.448,157.517 321.448,157.351 322.5,157.5 Z"/></g>
<g><path style="opacity:0.977" fill="#ffab61" d="M 67.5,162.5 C 68.236,175.877 69.236,189.21 70.5,202.5C 59.9075,210.92 49.7408,219.92 40,229.5C 39.5172,230.448 39.3505,231.448 39.5,232.5C 37.9784,218.687 36.9784,204.687 36.5,190.5C 46.2044,180.462 56.5378,171.129 67.5,162.5 Z"/></g>
<g><path style="opacity:0.979" fill="#ff7365" d="M 474.5,198.5 C 473.058,214.464 472.058,230.464 471.5,246.5C 469.068,247.75 466.734,249.25 464.5,251C 455.591,259.748 446.258,267.915 436.5,275.5C 436.846,260.306 437.846,245.306 439.5,230.5C 451.218,219.777 462.885,209.11 474.5,198.5 Z"/></g>
<g><path style="opacity:0.986" fill="#ffa562" d="M 70.5,202.5 C 71.1667,216.167 71.8333,229.833 72.5,243.5C 62.8348,252.33 53.0015,260.997 43,269.5C 42.6174,268.944 42.1174,268.611 41.5,268.5C 40.4351,256.526 39.7684,244.526 39.5,232.5C 39.3505,231.448 39.5172,230.448 40,229.5C 49.7408,219.92 59.9075,210.92 70.5,202.5 Z"/></g>
<g><path style="opacity:0.985" fill="#ff9f62" d="M 72.5,243.5 C 73.7198,256.46 74.7198,269.46 75.5,282.5C 74.7515,283.531 74.0848,284.698 73.5,286C 63.6653,294.336 53.9986,302.836 44.5,311.5C 43.2793,297.189 42.2793,282.856 41.5,268.5C 42.1174,268.611 42.6174,268.944 43,269.5C 53.0015,260.997 62.8348,252.33 72.5,243.5 Z"/></g>
<g><path style="opacity:0.981" fill="#ff6d66" d="M 471.5,246.5 C 470.206,261.934 468.873,277.267 467.5,292.5C 457.074,300.753 447.074,309.587 437.5,319C 435.922,320.094 434.255,320.928 432.5,321.5C 433.794,306.066 435.127,290.733 436.5,275.5C 446.258,267.915 455.591,259.748 464.5,251C 466.734,249.25 469.068,247.75 471.5,246.5 Z"/></g>
<g><path style="opacity:0.984" fill="#ff9963" d="M 75.5,282.5 C 76.6327,298.824 77.6327,315.158 78.5,331.5C 63.1667,345.167 47.8333,358.833 32.5,372.5C 34.2308,362.937 38.7308,354.937 46,348.5C 45.8338,336.167 45.3338,323.834 44.5,311.5C 53.9986,302.836 63.6653,294.336 73.5,286C 74.0848,284.698 74.7515,283.531 75.5,282.5 Z"/></g>
<g><path style="opacity:0.989" fill="#ff6766" d="M 467.5,292.5 C 466.766,310.515 465.766,328.515 464.5,346.5C 463.448,346.351 462.448,346.517 461.5,347C 453.303,354.366 445.303,361.866 437.5,369.5C 435.586,368.815 433.586,368.315 431.5,368C 415.503,367.5 399.503,367.333 383.5,367.5C 395.167,356.833 406.833,346.167 418.5,335.5C 423.167,335.5 427.833,335.5 432.5,335.5C 432.5,330.833 432.5,326.167 432.5,321.5C 434.255,320.928 435.922,320.094 437.5,319C 447.074,309.587 457.074,300.753 467.5,292.5 Z"/></g>
<g><path style="opacity:0.995" fill="#ff9263" d="M 78.5,331.5 C 78.5,332.833 78.5,334.167 78.5,335.5C 92.8333,335.5 107.167,335.5 121.5,335.5C 109.865,345.801 98.5315,356.467 87.5,367.5C 71.7281,365.946 64.0615,372.946 64.5,388.5C 62.4048,389.412 60.4048,390.579 58.5,392C 51.7065,397.723 45.3731,403.89 39.5,410.5C 35.5725,405.582 33.0725,399.916 32,393.5C 31.2055,386.42 31.3722,379.42 32.5,372.5C 47.8333,358.833 63.1667,345.167 78.5,331.5 Z"/></g>
<g><path style="opacity:1" fill="#ff8c64" d="M 121.5,335.5 C 137.5,335.5 153.5,335.5 169.5,335.5C 157.865,345.801 146.531,356.467 135.5,367.5C 119.5,367.5 103.5,367.5 87.5,367.5C 98.5315,356.467 109.865,345.801 121.5,335.5 Z"/></g>
<g><path style="opacity:1" fill="#ff8664" d="M 169.5,335.5 C 185.5,335.5 201.5,335.5 217.5,335.5C 205.865,345.801 194.531,356.467 183.5,367.5C 167.5,367.5 151.5,367.5 135.5,367.5C 146.531,356.467 157.865,345.801 169.5,335.5 Z"/></g>
<g><path style="opacity:1" fill="#ff8065" d="M 217.5,335.5 C 236.167,335.5 254.833,335.5 273.5,335.5C 262.167,346.167 250.833,356.833 239.5,367.5C 220.833,367.5 202.167,367.5 183.5,367.5C 194.531,356.467 205.865,345.801 217.5,335.5 Z"/></g>
<g><path style="opacity:1" fill="#ff7965" d="M 273.5,335.5 C 289.5,335.5 305.5,335.5 321.5,335.5C 310.469,346.533 299.135,357.199 287.5,367.5C 271.5,367.5 255.5,367.5 239.5,367.5C 250.833,356.833 262.167,346.167 273.5,335.5 Z"/></g>
<g><path style="opacity:1" fill="#ff7366" d="M 321.5,335.5 C 337.5,335.5 353.5,335.5 369.5,335.5C 358.469,346.533 347.135,357.199 335.5,367.5C 319.5,367.5 303.5,367.5 287.5,367.5C 299.135,357.199 310.469,346.533 321.5,335.5 Z"/></g>
<g><path style="opacity:1" fill="#ff6d66" d="M 369.5,335.5 C 385.833,335.5 402.167,335.5 418.5,335.5C 406.833,346.167 395.167,356.833 383.5,367.5C 367.5,367.5 351.5,367.5 335.5,367.5C 347.135,357.199 358.469,346.533 369.5,335.5 Z"/></g>
<g><path style="opacity:0.99" fill="#ff6066" d="M 464.5,346.5 C 467.811,350.656 470.977,354.99 474,359.5C 476.409,363.892 477.909,368.558 478.5,373.5C 476.443,377.067 473.777,380.234 470.5,383C 452.305,399.032 434.305,415.199 416.5,431.5C 400.5,431.5 384.5,431.5 368.5,431.5C 380.135,421.199 391.469,410.533 402.5,399.5C 412.172,399.666 421.839,399.5 431.5,399C 445.344,395.813 449.51,387.646 444,374.5C 442.242,372.235 440.075,370.568 437.5,369.5C 445.303,361.866 453.303,354.366 461.5,347C 462.448,346.517 463.448,346.351 464.5,346.5 Z"/></g>
<g><path style="opacity:0.979" fill="#ff5b66" d="M 478.5,373.5 C 482.478,403.022 470.145,422.189 441.5,431C 433.173,431.5 424.84,431.666 416.5,431.5C 434.305,415.199 452.305,399.032 470.5,383C 473.777,380.234 476.443,377.067 478.5,373.5 Z"/></g>
<g><path style="opacity:0.989" fill="#ff8c64" d="M 64.5,388.5 C 66.6467,392.811 69.98,395.978 74.5,398C 82.4393,399.321 90.4393,399.821 98.5,399.5C 87.7294,409.099 77.0627,418.933 66.5,429C 67.7375,429.232 68.7375,429.732 69.5,430.5C 56.5582,428.221 46.5582,421.555 39.5,410.5C 45.3731,403.89 51.7065,397.723 58.5,392C 60.4048,390.579 62.4048,389.412 64.5,388.5 Z"/></g>
<g><path style="opacity:0.999" fill="#ff8664" d="M 98.5,399.5 C 114.5,399.5 130.5,399.5 146.5,399.5C 134.833,410.167 123.167,420.833 111.5,431.5C 97.3234,431.829 83.3234,431.496 69.5,430.5C 68.7375,429.732 67.7375,429.232 66.5,429C 77.0627,418.933 87.7294,409.099 98.5,399.5 Z"/></g>
<g><path style="opacity:1" fill="#ff8065" d="M 146.5,399.5 C 165.167,399.5 183.833,399.5 202.5,399.5C 190.865,409.801 179.531,420.467 168.5,431.5C 149.5,431.5 130.5,431.5 111.5,431.5C 123.167,420.833 134.833,410.167 146.5,399.5 Z"/></g>
<g><path style="opacity:1" fill="#ff7965" d="M 202.5,399.5 C 218.5,399.5 234.5,399.5 250.5,399.5C 238.865,409.801 227.531,420.467 216.5,431.5C 200.5,431.5 184.5,431.5 168.5,431.5C 179.531,420.467 190.865,409.801 202.5,399.5 Z"/></g>
<g><path style="opacity:1" fill="#ff7366" d="M 250.5,399.5 C 266.5,399.5 282.5,399.5 298.5,399.5C 286.865,409.801 275.531,420.467 264.5,431.5C 248.5,431.5 232.5,431.5 216.5,431.5C 227.531,420.467 238.865,409.801 250.5,399.5 Z"/></g>
<g><path style="opacity:1" fill="#ff6d66" d="M 298.5,399.5 C 314.5,399.5 330.5,399.5 346.5,399.5C 335.167,410.167 323.833,420.833 312.5,431.5C 296.5,431.5 280.5,431.5 264.5,431.5C 275.531,420.467 286.865,409.801 298.5,399.5 Z"/></g>
<g><path style="opacity:1" fill="#ff6766" d="M 346.5,399.5 C 365.167,399.5 383.833,399.5 402.5,399.5C 391.469,410.533 380.135,421.199 368.5,431.5C 349.833,431.5 331.167,431.5 312.5,431.5C 323.833,420.833 335.167,410.167 346.5,399.5 Z"/></g>
</svg>
