<?xml version="1.0" encoding="UTF-8"?>
<!DOCTYPE svg PUBLIC "-//W3C//DTD SVG 1.1//EN" "http://www.w3.org/Graphics/SVG/1.1/DTD/svg11.dtd">
<svg xmlns="http://www.w3.org/2000/svg" version="1.1" width="512px" height="512px" style="shape-rendering:geometricPrecision; text-rendering:geometricPrecision; image-rendering:optimizeQuality; fill-rule:evenodd; clip-rule:evenodd" xmlns:xlink="http://www.w3.org/1999/xlink">
<g><path style="opacity:0.99" fill="#ffb061" d="M 218.5,31.5 C 199.157,49.5084 179.491,67.1751 159.5,84.5C 159.333,70.496 159.5,56.496 160,42.5C 161.406,37.4268 164.572,33.9268 169.5,32C 185.83,31.5001 202.163,31.3334 218.5,31.5 Z"/></g>
<g><path style="opacity:0.986" fill="#ffab61" d="M 218.5,31.5 C 231.171,31.3334 243.838,31.5001 256.5,32C 258.641,32.5725 260.641,33.4058 262.5,34.5C 251.865,43.8 241.532,53.4667 231.5,63.5C 218.5,63.5 205.5,63.5 192.5,63.5C 192.5,77.5 192.5,91.5 192.5,105.5C 191.691,103.708 191.191,101.708 191,99.5C 180.903,109.108 170.403,118.108 159.5,126.5C 159.5,112.5 159.5,98.5 159.5,84.5C 179.491,67.1751 199.157,49.5084 218.5,31.5 Z"/></g>
<g><path style="opacity:0.987" fill="#ffa562" d="M 262.5,34.5 C 273.812,40.7754 279.812,50.442 280.5,63.5C 279.883,63.3893 279.383,63.056 279,62.5C 267.202,74.4753 254.702,85.4753 241.5,95.5C 239.267,84.2527 241.267,73.7527 247.5,64C 242.177,63.5006 236.844,63.334 231.5,63.5C 241.532,53.4667 251.865,43.8 262.5,34.5 Z"/></g>
<g><path style="opacity:0.989" fill="#ff9f62" d="M 280.5,63.5 C 279.386,71.8428 277.053,79.8428 273.5,87.5C 278.268,96.6259 280.435,106.293 280,116.5C 277.482,130.02 269.648,138.853 256.5,143C 235.169,143.5 213.836,143.667 192.5,143.5C 192.5,154.5 192.5,165.5 192.5,176.5C 194.703,176.604 196.703,177.27 198.5,178.5C 188.661,188.44 178.328,197.94 167.5,207C 167.728,207.399 168.062,207.565 168.5,207.5C 166.858,208.803 165.191,210.136 163.5,211.5C 143.52,229.144 123.52,246.811 103.5,264.5C 113.38,241.737 123.547,219.07 134,196.5C 139.951,186.687 148.285,179.687 159,175.5C 159.494,173.866 159.66,172.199 159.5,170.5C 181.517,151.146 203.184,131.479 224.5,111.5C 232.174,111.666 239.841,111.5 247.5,111C 244.808,106.089 242.808,100.923 241.5,95.5C 254.702,85.4753 267.202,74.4753 279,62.5C 279.383,63.056 279.883,63.3893 280.5,63.5 Z"/></g>
<g><path style="opacity:0.996" fill="#ffa562" d="M 192.5,105.5 C 192.5,107.5 192.5,109.5 192.5,111.5C 203.167,111.5 213.833,111.5 224.5,111.5C 203.184,131.479 181.517,151.146 159.5,170.5C 159.5,155.833 159.5,141.167 159.5,126.5C 170.403,118.108 180.903,109.108 191,99.5C 191.191,101.708 191.691,103.708 192.5,105.5 Z"/></g>
<g><path style="opacity:0.986" fill="#ff9a62" d="M 198.5,178.5 C 207.915,182.914 214.582,189.914 218.5,199.5C 210.493,207.507 202.159,215.173 193.5,222.5C 190.788,213.621 184.954,207.954 176,205.5C 173.564,206.355 171.064,207.021 168.5,207.5C 168.062,207.565 167.728,207.399 167.5,207C 178.328,197.94 188.661,188.44 198.5,178.5 Z"/></g>
<g><path style="opacity:0.984" fill="#ff9363" d="M 218.5,199.5 C 224.951,211.406 230.617,223.739 235.5,236.5C 235.631,237.239 235.464,237.906 235,238.5C 227.349,245.317 219.849,252.317 212.5,259.5C 211.614,260.325 211.281,261.325 211.5,262.5C 204.989,249.472 198.989,236.139 193.5,222.5C 202.159,215.173 210.493,207.507 218.5,199.5 Z"/></g>
<g><path style="opacity:0.983" fill="#ff9963" d="M 163.5,211.5 C 150.753,239.991 137.753,268.324 124.5,296.5C 105.022,314.401 85.3553,332.068 65.5,349.5C 77.7962,320.922 90.4629,292.589 103.5,264.5C 123.52,246.811 143.52,229.144 163.5,211.5 Z"/></g>
<g><path style="opacity:0.981" fill="#ff8c63" d="M 235.5,236.5 C 240.485,247.094 245.485,257.76 250.5,268.5C 241.833,276.167 233.167,283.833 224.5,291.5C 219.93,282.02 215.597,272.354 211.5,262.5C 211.281,261.325 211.614,260.325 212.5,259.5C 219.849,252.317 227.349,245.317 235,238.5C 235.464,237.906 235.631,237.239 235.5,236.5 Z"/></g>
<g><path style="opacity:0.981" fill="#ff7f65" d="M 366.5,254.5 C 365.457,257.056 363.79,259.223 361.5,261C 325.383,292.716 289.716,324.882 254.5,357.5C 249.708,348.911 245.708,339.911 242.5,330.5C 241.448,330.351 240.448,330.517 239.5,331C 231.404,338.432 222.737,345.099 213.5,351C 210.854,351.497 208.187,351.664 205.5,351.5C 225.433,334.571 244.766,316.904 263.5,298.5C 267.225,305.621 270.725,312.954 274,320.5C 285.249,303.67 296.249,286.67 307,269.5C 323.238,250.747 343.071,245.747 366.5,254.5 Z"/></g>
<g><path style="opacity:0.976" fill="#ff7964" d="M 366.5,254.5 C 376.777,259.11 384.443,266.443 389.5,276.5C 388.118,279.394 386.118,281.894 383.5,284C 377.628,289.376 371.628,294.543 365.5,299.5C 362.443,295.742 359.61,291.742 357,287.5C 348.127,281.412 340.127,282.412 333,290.5C 318.636,312.7 304.469,335.033 290.5,357.5C 291.513,360.188 292.513,362.854 293.5,365.5C 284.841,372.827 276.507,380.493 268.5,388.5C 263.075,378.58 258.409,368.246 254.5,357.5C 289.716,324.882 325.383,292.716 361.5,261C 363.79,259.223 365.457,257.056 366.5,254.5 Z"/></g>
<g><path style="opacity:0.988" fill="#ff8664" d="M 250.5,268.5 C 254.833,278.5 259.167,288.5 263.5,298.5C 244.766,316.904 225.433,334.571 205.5,351.5C 202.575,351.54 199.909,350.707 197.5,349C 191.964,343.631 186.63,338.131 181.5,332.5C 182.738,332.19 182.738,331.69 181.5,331C 189.338,323.995 197.004,316.828 204.5,309.5C 205.627,310.122 206.627,310.955 207.5,312C 208.5,312.667 209.5,312.667 210.5,312C 215.983,307.094 221.649,302.428 227.5,298C 226.086,296.007 225.086,293.84 224.5,291.5C 233.167,283.833 241.833,276.167 250.5,268.5 Z"/></g>
<g><path style="opacity:0.978" fill="#ff7365" d="M 389.5,276.5 C 395.86,285.542 401.86,294.875 407.5,304.5C 399.739,312.537 391.405,319.871 382.5,326.5C 376.446,317.772 370.779,308.772 365.5,299.5C 371.628,294.543 377.628,289.376 383.5,284C 386.118,281.894 388.118,279.394 389.5,276.5 Z"/></g>
<g><path style="opacity:0.987" fill="#ff9263" d="M 181.5,288.5 C 177.728,291.094 174.061,293.927 170.5,297C 154.637,311.366 138.97,325.866 123.5,340.5C 119.185,337.191 114.852,333.857 110.5,330.5C 104.229,343.376 98.2288,356.376 92.5,369.5C 89.7318,371.087 87.0652,372.92 84.5,375C 67.9629,390.373 51.2963,405.54 34.5,420.5C 34.523,418.073 35.023,415.74 36,413.5C 45.6085,391.956 55.4419,370.623 65.5,349.5C 85.3553,332.068 105.022,314.401 124.5,296.5C 124.33,297.822 124.663,298.989 125.5,300C 131.011,304.181 136.511,308.348 142,312.5C 150.488,304.679 158.988,296.846 167.5,289C 172.232,287.267 176.899,287.1 181.5,288.5 Z"/></g>
<g><path style="opacity:0.986" fill="#ff8c63" d="M 181.5,288.5 C 190.071,294.399 197.738,301.399 204.5,309.5C 197.004,316.828 189.338,323.995 181.5,331C 182.738,331.69 182.738,332.19 181.5,332.5C 179.704,331.207 178.037,329.707 176.5,328C 175.833,327.333 175.167,327.333 174.5,328C 166.767,336.403 158.434,344.07 149.5,351C 145.5,351.667 141.5,351.667 137.5,351C 132.228,348.209 127.562,344.709 123.5,340.5C 138.97,325.866 154.637,311.366 170.5,297C 174.061,293.927 177.728,291.094 181.5,288.5 Z"/></g>
<g><path style="opacity:0.979" fill="#ff6d65" d="M 407.5,304.5 C 413.86,313.542 419.86,322.875 425.5,332.5C 416.563,339.137 408.23,346.47 400.5,354.5C 394.14,345.458 388.14,336.125 382.5,326.5C 391.405,319.871 399.739,312.537 407.5,304.5 Z"/></g>
<g><path style="opacity:0.974" fill="#ff6666" d="M 425.5,332.5 C 432.664,342.822 439.331,353.489 445.5,364.5C 436.849,371.154 428.516,378.154 420.5,385.5C 413.598,375.373 406.931,365.04 400.5,354.5C 408.23,346.47 416.563,339.137 425.5,332.5 Z"/></g>
<g><path style="opacity:0.98" fill="#ff6066" d="M 445.5,364.5 C 451.735,373.291 457.735,382.291 463.5,391.5C 454.568,398.095 446.234,405.429 438.5,413.5C 432.14,404.458 426.14,395.125 420.5,385.5C 428.516,378.154 436.849,371.154 445.5,364.5 Z"/></g>
<g><path style="opacity:0.977" fill="#ff7365" d="M 293.5,365.5 C 298.537,375.588 303.204,385.921 307.5,396.5C 298.54,403.458 289.873,410.791 281.5,418.5C 276.619,408.738 272.286,398.738 268.5,388.5C 276.507,380.493 284.841,372.827 293.5,365.5 Z"/></g>
<g><path style="opacity:0.984" fill="#ff8d64" d="M 92.5,369.5 C 83.9097,388.095 75.4097,406.762 67,425.5C 66.1785,428.117 65.6785,430.784 65.5,433.5C 65.6495,434.552 65.4828,435.552 65,436.5C 56.6417,443.361 48.8084,450.694 41.5,458.5C 35.5994,450.604 32.5994,441.604 32.5,431.5C 32.8094,427.63 33.4761,423.963 34.5,420.5C 51.2963,405.54 67.9629,390.373 84.5,375C 87.0652,372.92 89.7318,371.087 92.5,369.5 Z"/></g>
<g><path style="opacity:0.99" fill="#ff5a66" d="M 463.5,391.5 C 470.35,400.2 475.35,409.867 478.5,420.5C 456.508,439.826 434.842,459.492 413.5,479.5C 397.5,479.5 381.5,479.5 365.5,479.5C 377.167,468.833 388.833,458.167 400.5,447.5C 410.839,447.666 421.172,447.5 431.5,447C 443.343,445.153 448.176,438.32 446,426.5C 443.672,422.02 441.172,417.687 438.5,413.5C 446.234,405.429 454.568,398.095 463.5,391.5 Z"/></g>
<g><path style="opacity:0.989" fill="#ff6d65" d="M 307.5,396.5 C 313.748,406.579 317.415,417.579 318.5,429.5C 299.53,445.802 280.863,462.469 262.5,479.5C 246.833,479.5 231.167,479.5 215.5,479.5C 227.135,469.199 238.469,458.533 249.5,447.5C 256.508,447.666 263.508,447.5 270.5,447C 279.772,445.896 284.772,440.729 285.5,431.5C 285.03,426.896 283.697,422.562 281.5,418.5C 289.873,410.791 298.54,403.458 307.5,396.5 Z"/></g>
<g><path style="opacity:0.982" fill="#ff5567" d="M 478.5,420.5 C 482.745,450.513 470.412,470.013 441.5,479C 432.173,479.5 422.839,479.666 413.5,479.5C 434.842,459.492 456.508,439.826 478.5,420.5 Z"/></g>
<g><path style="opacity:0.996" fill="#ff6766" d="M 318.5,429.5 C 318.732,435.616 318.066,441.616 316.5,447.5C 328.5,447.5 340.5,447.5 352.5,447.5C 340.865,457.801 329.531,468.467 318.5,479.5C 299.833,479.5 281.167,479.5 262.5,479.5C 280.863,462.469 299.53,445.802 318.5,429.5 Z"/></g>
<g><path style="opacity:0.987" fill="#ff8664" d="M 65.5,433.5 C 67.1184,439.296 70.7851,443.463 76.5,446C 84.1052,447.311 91.7718,447.811 99.5,447.5C 88.8333,457.5 78.1667,467.5 67.5,477.5C 56.0074,475.004 47.3407,468.671 41.5,458.5C 48.8084,450.694 56.6417,443.361 65,436.5C 65.4828,435.552 65.6495,434.552 65.5,433.5 Z"/></g>
<g><path style="opacity:0.998" fill="#ff7f64" d="M 99.5,447.5 C 117.833,447.5 136.167,447.5 154.5,447.5C 143.469,458.533 132.135,469.199 120.5,479.5C 104.163,479.667 87.8299,479.5 71.5,479C 69.9419,478.79 68.6085,478.29 67.5,477.5C 78.1667,467.5 88.8333,457.5 99.5,447.5 Z"/></g>
<g><path style="opacity:1" fill="#ff7965" d="M 154.5,447.5 C 170.5,447.5 186.5,447.5 202.5,447.5C 190.865,457.801 179.531,468.467 168.5,479.5C 152.5,479.5 136.5,479.5 120.5,479.5C 132.135,469.199 143.469,458.533 154.5,447.5 Z"/></g>
<g><path style="opacity:1" fill="#ff7366" d="M 202.5,447.5 C 218.167,447.5 233.833,447.5 249.5,447.5C 238.469,458.533 227.135,469.199 215.5,479.5C 199.833,479.5 184.167,479.5 168.5,479.5C 179.531,468.467 190.865,457.801 202.5,447.5 Z"/></g>
<g><path style="opacity:1" fill="#ff6067" d="M 352.5,447.5 C 368.5,447.5 384.5,447.5 400.5,447.5C 388.833,458.167 377.167,468.833 365.5,479.5C 349.833,479.5 334.167,479.5 318.5,479.5C 329.531,468.467 340.865,457.801 352.5,447.5 Z"/></g>
</svg>
