<svg width="24" height="24" viewBox="0 0 24 24" fill="none" xmlns="http://www.w3.org/2000/svg">
<path d="M7 3V21" stroke="#D9D9D9" stroke-width="1.5" stroke-linecap="round" stroke-linejoin="round"/>
<path d="M7 3V21" stroke="url(#paint0_linear_61_6000)" stroke-width="1.5" stroke-linecap="round" stroke-linejoin="round"/>
<path d="M17 21V3" stroke="#D9D9D9" stroke-width="1.5" stroke-linecap="round" stroke-linejoin="round"/>
<path d="M17 21V3" stroke="url(#paint1_linear_61_6000)" stroke-width="1.5" stroke-linecap="round" stroke-linejoin="round"/>
<path fill-rule="evenodd" clip-rule="evenodd" d="M19 21H5C3.895 21 3 20.105 3 19V5C3 3.895 3.895 3 5 3H19C20.105 3 21 3.895 21 5V19C21 20.105 20.105 21 19 21Z" stroke="#D9D9D9" stroke-width="1.5" stroke-linecap="round" stroke-linejoin="round"/>
<path fill-rule="evenodd" clip-rule="evenodd" d="M19 21H5C3.895 21 3 20.105 3 19V5C3 3.895 3.895 3 5 3H19C20.105 3 21 3.895 21 5V19C21 20.105 20.105 21 19 21Z" stroke="url(#paint2_linear_61_6000)" stroke-width="1.5" stroke-linecap="round" stroke-linejoin="round"/>
<path d="M7 7H3" stroke="#D9D9D9" stroke-width="1.5" stroke-linecap="round" stroke-linejoin="round"/>
<path d="M7 7H3" stroke="url(#paint3_linear_61_6000)" stroke-width="1.5" stroke-linecap="round" stroke-linejoin="round"/>
<path d="M7 17H3" stroke="#D9D9D9" stroke-width="1.5" stroke-linecap="round" stroke-linejoin="round"/>
<path d="M7 17H3" stroke="url(#paint4_linear_61_6000)" stroke-width="1.5" stroke-linecap="round" stroke-linejoin="round"/>
<path d="M17 17H21" stroke="#D9D9D9" stroke-width="1.5" stroke-linecap="round" stroke-linejoin="round"/>
<path d="M17 17H21" stroke="url(#paint5_linear_61_6000)" stroke-width="1.5" stroke-linecap="round" stroke-linejoin="round"/>
<path d="M17 7H21" stroke="#D9D9D9" stroke-width="1.5" stroke-linecap="round" stroke-linejoin="round"/>
<path d="M17 7H21" stroke="url(#paint6_linear_61_6000)" stroke-width="1.5" stroke-linecap="round" stroke-linejoin="round"/>
<path d="M21 12H3" stroke="#D9D9D9" stroke-width="1.5" stroke-linecap="round" stroke-linejoin="round"/>
<path d="M21 12H3" stroke="url(#paint7_linear_61_6000)" stroke-width="1.5" stroke-linecap="round" stroke-linejoin="round"/>
<defs>
<linearGradient id="paint0_linear_61_6000" x1="6.5" y1="3" x2="7.57292" y2="3.00435" gradientUnits="userSpaceOnUse">
<stop stop-color="#00C1EB"/>
<stop offset="1" stop-color="#0094FF"/>
</linearGradient>
<linearGradient id="paint1_linear_61_6000" x1="16.5" y1="3" x2="17.5729" y2="3.00435" gradientUnits="userSpaceOnUse">
<stop stop-color="#00C1EB"/>
<stop offset="1" stop-color="#0094FF"/>
</linearGradient>
<linearGradient id="paint2_linear_61_6000" x1="3" y1="3" x2="22.2107" y2="4.40122" gradientUnits="userSpaceOnUse">
<stop stop-color="#00C1EB"/>
<stop offset="1" stop-color="#0094FF"/>
</linearGradient>
<linearGradient id="paint3_linear_61_6000" x1="3" y1="6.5" x2="6.95509" y2="7.65393" gradientUnits="userSpaceOnUse">
<stop stop-color="#00C1EB"/>
<stop offset="1" stop-color="#0094FF"/>
</linearGradient>
<linearGradient id="paint4_linear_61_6000" x1="3" y1="16.5" x2="6.95509" y2="17.6539" gradientUnits="userSpaceOnUse">
<stop stop-color="#00C1EB"/>
<stop offset="1" stop-color="#0094FF"/>
</linearGradient>
<linearGradient id="paint5_linear_61_6000" x1="17" y1="16.5" x2="20.9551" y2="17.6539" gradientUnits="userSpaceOnUse">
<stop stop-color="#00C1EB"/>
<stop offset="1" stop-color="#0094FF"/>
</linearGradient>
<linearGradient id="paint6_linear_61_6000" x1="17" y1="6.5" x2="20.9551" y2="7.65393" gradientUnits="userSpaceOnUse">
<stop stop-color="#00C1EB"/>
<stop offset="1" stop-color="#0094FF"/>
</linearGradient>
<linearGradient id="paint7_linear_61_6000" x1="3" y1="11.5" x2="10.0906" y2="20.8093" gradientUnits="userSpaceOnUse">
<stop stop-color="#00C1EB"/>
<stop offset="1" stop-color="#0094FF"/>
</linearGradient>
</defs>
</svg>
