<svg width="26" height="26" viewBox="0 0 26 26" fill="none" xmlns="http://www.w3.org/2000/svg">
<path d="M21.5859 10.3522C21.8591 11.2085 22.0001 12.1015 22.0041 13.0003C22.0041 17.973 17.973 22.0041 13.0003 22.0041C8.0277 22.0041 3.99658 17.973 3.99658 13.0003C3.99658 8.0277 8.0277 3.99658 13.0003 3.99658C13.8992 4.00058 14.7921 4.14159 15.6484 4.41476" stroke="#D9D9D9" stroke-width="1.5" stroke-linecap="round" stroke-linejoin="round"/>
<path d="M21.5859 10.3522C21.8591 11.2085 22.0001 12.1015 22.0041 13.0003C22.0041 17.973 17.973 22.0041 13.0003 22.0041C8.0277 22.0041 3.99658 17.973 3.99658 13.0003C3.99658 8.0277 8.0277 3.99658 13.0003 3.99658C13.8992 4.00058 14.7921 4.14159 15.6484 4.41476" stroke="url(#paint0_linear_61_5810)" stroke-width="1.5" stroke-linecap="round" stroke-linejoin="round"/>
<path d="M22.0041 5.271L20.0153 7.25982L18.7397 5.98429" stroke="#D9D9D9" stroke-width="1.5" stroke-linecap="round" stroke-linejoin="round"/>
<path d="M22.0041 5.271L20.0153 7.25982L18.7397 5.98429" stroke="url(#paint1_linear_61_5810)" stroke-width="1.5" stroke-linecap="round" stroke-linejoin="round"/>
<path d="M14.501 15.501C12.5672 15.501 10.9995 13.9333 10.9995 11.9995C10.9995 10.0657 12.5672 8.49805 14.501 8.49805C16.4348 8.49805 18.0024 10.0657 18.0024 11.9995C18.0024 13.9333 16.4348 15.501 14.501 15.501" stroke="#D9D9D9" stroke-width="1.5" stroke-linecap="round" stroke-linejoin="round"/>
<path d="M14.501 15.501C12.5672 15.501 10.9995 13.9333 10.9995 11.9995C10.9995 10.0657 12.5672 8.49805 14.501 8.49805C16.4348 8.49805 18.0024 10.0657 18.0024 11.9995C18.0024 13.9333 16.4348 15.501 14.501 15.501" stroke="url(#paint2_linear_61_5810)" stroke-width="1.5" stroke-linecap="round" stroke-linejoin="round"/>
<path d="M11.3296 10.5171C9.6191 10.5972 8.21865 11.9051 8.02188 13.6061C7.82512 15.3072 8.89002 16.9002 10.5371 17.3687C12.1841 17.8372 13.928 17.0431 14.656 15.4932" stroke="#D9D9D9" stroke-width="1.5" stroke-linecap="round" stroke-linejoin="round"/>
<path d="M11.3296 10.5171C9.6191 10.5972 8.21865 11.9051 8.02188 13.6061C7.82512 15.3072 8.89002 16.9002 10.5371 17.3687C12.1841 17.8372 13.928 17.0431 14.656 15.4932" stroke="url(#paint3_linear_61_5810)" stroke-width="1.5" stroke-linecap="round" stroke-linejoin="round"/>
<defs>
<linearGradient id="paint0_linear_61_5810" x1="3.99658" y1="3.99658" x2="23.2153" y2="5.39838" gradientUnits="userSpaceOnUse">
<stop stop-color="#00C1EB"/>
<stop offset="1" stop-color="#0094FF"/>
</linearGradient>
<linearGradient id="paint1_linear_61_5810" x1="18.7397" y1="5.271" x2="22.1927" y2="5.68438" gradientUnits="userSpaceOnUse">
<stop stop-color="#00C1EB"/>
<stop offset="1" stop-color="#0094FF"/>
</linearGradient>
<linearGradient id="paint2_linear_61_5810" x1="10.9995" y1="8.49805" x2="18.4735" y2="9.04319" gradientUnits="userSpaceOnUse">
<stop stop-color="#00C1EB"/>
<stop offset="1" stop-color="#0094FF"/>
</linearGradient>
<linearGradient id="paint3_linear_61_5810" x1="7.99854" y1="10.5171" x2="15.1072" y2="11.0113" gradientUnits="userSpaceOnUse">
<stop stop-color="#00C1EB"/>
<stop offset="1" stop-color="#0094FF"/>
</linearGradient>
</defs>
</svg>
