<?xml version="1.0" encoding="UTF-8"?>
<!DOCTYPE svg PUBLIC "-//W3C//DTD SVG 1.1//EN" "http://www.w3.org/Graphics/SVG/1.1/DTD/svg11.dtd">
<svg xmlns="http://www.w3.org/2000/svg" version="1.1" width="256px" height="256px" style="shape-rendering:geometricPrecision; text-rendering:geometricPrecision; image-rendering:optimizeQuality; fill-rule:evenodd; clip-rule:evenodd" xmlns:xlink="http://www.w3.org/1999/xlink">
<g><path style="opacity:0.971" fill="#ffaa62" d="M 154.5,14.5 C 151.023,19.3208 146.69,22.9875 141.5,25.5C 133.67,23.4742 125.67,22.9742 117.5,24C 112.086,25.3001 109.42,28.8001 109.5,34.5C 95.6052,46.2743 81.9386,58.2743 68.5,70.5C 62.8641,68.6779 57.5307,66.3446 52.5,63.5C 56.6046,59.898 60.6046,56.0647 64.5,52C 63.944,51.6174 63.6107,51.1174 63.5,50.5C 67.6381,51.7702 71.6381,53.4368 75.5,55.5C 80.1753,52.1605 85.1753,49.3271 90.5,47C 91.6351,38.47 93.1351,29.97 95,21.5C 97.8333,16 102,11.8333 107.5,9C 119.762,7.39433 132.096,7.06099 144.5,8C 148.72,8.93465 152.053,11.1013 154.5,14.5 Z"/></g>
<g><path style="opacity:0.965" fill="#ff9d63" d="M 154.5,14.5 C 157.899,16.947 160.065,20.2803 161,24.5C 162.133,32.218 163.3,39.8847 164.5,47.5C 160.167,51.5 155.833,55.5 151.5,59.5C 149.827,58.657 148.66,57.3237 148,55.5C 146.927,47.5095 145.927,39.5095 145,31.5C 144.576,28.9746 143.41,26.9746 141.5,25.5C 146.69,22.9875 151.023,19.3208 154.5,14.5 Z"/></g>
<g><path style="opacity:0.973" fill="#ffa662" d="M 109.5,34.5 C 108.865,41.8484 108.032,49.1817 107,56.5C 106.167,57.5 105.333,58.5 104.5,59.5C 96.2079,62.9778 88.5412,67.4778 81.5,73C 76.6529,74.1562 72.3196,73.3229 68.5,70.5C 81.9386,58.2743 95.6052,46.2743 109.5,34.5 Z"/></g>
<g><path style="opacity:0.962" fill="#ffb161" d="M 63.5,50.5 C 63.6107,51.1174 63.944,51.6174 64.5,52C 60.6046,56.0647 56.6046,59.898 52.5,63.5C 49.6802,63.2475 47.0135,63.7475 44.5,65C 41.6002,69.9813 38.6002,74.8146 35.5,79.5C 35.5654,79.0618 35.3988,78.7284 35,78.5C 28.6372,84.0327 22.4705,89.6993 16.5,95.5C 14.0187,89.6008 14.1854,83.6008 17,77.5C 21.7155,67.895 27.5488,59.0617 34.5,51C 44.154,45.2184 53.8207,45.0518 63.5,50.5 Z"/></g>
<g><path style="opacity:0.975" fill="#ff8b63" d="M 227.5,60.5 C 223.881,64.7852 219.881,68.7852 215.5,72.5C 213.981,69.9795 212.314,67.4795 210.5,65C 208.966,64.077 207.299,63.577 205.5,63.5C 197.625,66.1021 189.959,69.2688 182.5,73C 177.284,74.4614 172.95,73.2947 169.5,69.5C 175.961,64.2092 182.295,58.7092 188.5,53C 188.272,52.6012 187.938,52.4346 187.5,52.5C 201.408,43.3953 214.242,44.7286 226,56.5C 226.791,57.745 227.291,59.0783 227.5,60.5 Z"/></g>
<g><path style="opacity:0.961" fill="#ff9363" d="M 164.5,47.5 C 169.922,49.3778 174.922,52.0445 179.5,55.5C 181.979,53.9239 184.646,52.9239 187.5,52.5C 187.938,52.4346 188.272,52.6012 188.5,53C 182.295,58.7092 175.961,64.2092 169.5,69.5C 163.433,66.1368 157.433,62.8034 151.5,59.5C 155.833,55.5 160.167,51.5 164.5,47.5 Z"/></g>
<g><path style="opacity:0.974" fill="#ff9a62" d="M 138.5,72.5 C 136.745,73.0722 135.078,73.9055 133.5,75C 128.938,79.7309 124.271,84.2309 119.5,88.5C 101.327,93.6781 90.9932,105.678 88.5,124.5C 87.7784,124.082 87.2784,123.416 87,122.5C 81.2258,127.111 76.0591,132.111 71.5,137.5C 68.6795,105.27 82.3461,83.7701 112.5,73C 121.28,71.2789 129.946,71.1123 138.5,72.5 Z"/></g>
<g><path style="opacity:0.965" fill="#ff9463" d="M 138.5,72.5 C 145.915,73.5495 152.582,76.2162 158.5,80.5C 153.54,83.7923 149.207,87.7923 145.5,92.5C 137.248,88.9364 128.581,87.603 119.5,88.5C 124.271,84.2309 128.938,79.7309 133.5,75C 135.078,73.9055 136.745,73.0722 138.5,72.5 Z"/></g>
<g><path style="opacity:0.961" fill="#ffaa62" d="M 35.5,79.5 C 33.9211,82.33 32.5878,85.33 31.5,88.5C 32.3333,90.1667 33.1667,91.8333 34,93.5C 40.6347,97.6461 46.8014,102.313 52.5,107.5C 47.5549,110.445 42.8883,113.779 38.5,117.5C 31.3248,113.506 24.8248,108.506 19,102.5C 17.5886,100.35 16.7553,98.0163 16.5,95.5C 22.4705,89.6993 28.6372,84.0327 35,78.5C 35.3988,78.7284 35.5654,79.0618 35.5,79.5 Z"/></g>
<g><path style="opacity:0.975" fill="#ff7a64" d="M 227.5,60.5 C 233.836,68.6744 238.17,77.8411 240.5,88C 240.004,93.1515 238.504,97.9848 236,102.5C 229.373,108.543 222.539,114.21 215.5,119.5C 209.833,124.167 204.167,128.833 198.5,133.5C 198.81,127.242 198.476,121.076 197.5,115C 198.227,113.601 198.727,112.101 199,110.5C 205.882,104.617 213.048,99.1169 220.5,94C 221.627,92.2467 222.627,90.4134 223.5,88.5C 220.822,83.1447 218.156,77.8113 215.5,72.5C 219.881,68.7852 223.881,64.7852 227.5,60.5 Z"/></g>
<g><path style="opacity:0.962" fill="#ff8864" d="M 158.5,80.5 C 167.677,86.3495 174.344,94.3495 178.5,104.5C 174.793,109.208 170.46,113.208 165.5,116.5C 162.102,105.769 155.435,97.7693 145.5,92.5C 149.207,87.7923 153.54,83.7923 158.5,80.5 Z"/></g>
<g><path style="opacity:0.95" fill="#ff7f65" d="M 178.5,104.5 C 182.346,111.226 184.013,118.559 183.5,126.5C 177.167,131.833 170.833,137.167 164.5,142.5C 166.662,133.907 166.995,125.24 165.5,116.5C 170.46,113.208 174.793,109.208 178.5,104.5 Z"/></g>
<g><path style="opacity:0.967" fill="#ff7165" d="M 215.5,119.5 C 215.334,125.176 215.501,130.843 216,136.5C 221.352,140.364 226.519,144.364 231.5,148.5C 226.506,151.494 222.506,155.494 219.5,160.5C 212.852,155.524 206.185,150.524 199.5,145.5C 197.538,141.716 197.204,137.716 198.5,133.5C 204.167,128.833 209.833,124.167 215.5,119.5 Z"/></g>
<g><path style="opacity:0.976" fill="#ff9163" d="M 88.5,124.5 C 87.6549,135.965 90.9883,145.965 98.5,154.5C 94.5413,158.157 90.5413,161.824 86.5,165.5C 78.5011,157.888 73.5011,148.555 71.5,137.5C 76.0591,132.111 81.2258,127.111 87,122.5C 87.2784,123.416 87.7784,124.082 88.5,124.5 Z"/></g>
<g><path style="opacity:0.982" fill="#ff9b62" d="M 52.5,107.5 C 55.5204,109.026 57.1871,111.526 57.5,115C 56.6798,124.756 56.1798,134.59 56,144.5C 49.1183,150.383 41.9516,155.883 34.5,161C 33.3606,162.78 32.3606,164.614 31.5,166.5C 26.5389,170.126 21.8722,174.126 17.5,178.5C 12.483,166.399 14.8163,155.899 24.5,147C 29.3333,143.5 34.1667,140 39,136.5C 39.7902,130.085 39.6235,123.752 38.5,117.5C 42.8883,113.779 47.5549,110.445 52.5,107.5 Z"/></g>
<g><path style="opacity:0.971" fill="#ff7965" d="M 183.5,126.5 C 182.993,154.826 169.326,173.326 142.5,182C 134.905,183.356 127.238,183.856 119.5,183.5C 123.972,179.199 128.639,175.032 133.5,171C 135.464,169.549 136.797,167.716 137.5,165.5C 149.893,161.771 158.893,154.104 164.5,142.5C 170.833,137.167 177.167,131.833 183.5,126.5 Z"/></g>
<g><path style="opacity:0.961" fill="#ff8165" d="M 98.5,154.5 C 109.451,165.156 122.451,168.823 137.5,165.5C 136.797,167.716 135.464,169.549 133.5,171C 128.639,175.032 123.972,179.199 119.5,183.5C 106.169,181.343 95.1693,175.343 86.5,165.5C 90.5413,161.824 94.5413,158.157 98.5,154.5 Z"/></g>
<g><path style="opacity:0.96" fill="#ff6166" d="M 240.5,167.5 C 236.659,181.184 229.993,193.351 220.5,204C 212.526,208.858 204.193,209.692 195.5,206.5C 209.527,192.86 224.027,179.526 239,166.5C 239.383,167.056 239.883,167.389 240.5,167.5 Z"/></g>
<g><path style="opacity:0.972" fill="#ff9364" d="M 31.5,166.5 C 34.4977,172.495 37.4977,178.495 40.5,184.5C 36.7322,188.877 32.3988,192.544 27.5,195.5C 24.1667,189.833 20.8333,184.167 17.5,178.5C 21.8722,174.126 26.5389,170.126 31.5,166.5 Z"/></g>
<g><path style="opacity:0.961" fill="#ff8864" d="M 86.5,186.5 C 82.1396,191.527 77.4729,196.194 72.5,200.5C 67.1584,203.499 61.4918,205.999 55.5,208C 43.2816,210.054 33.9483,205.887 27.5,195.5C 32.3988,192.544 36.7322,188.877 40.5,184.5C 41.9701,186.151 43.3034,187.985 44.5,190C 46.0344,190.923 47.701,191.423 49.5,191.5C 57.3746,188.898 65.0413,185.731 72.5,182C 78.3453,180.311 83.012,181.811 86.5,186.5 Z"/></g>
<g><path style="opacity:0.971" fill="#ff6c65" d="M 186.5,184.5 C 186.918,185.222 187.584,185.722 188.5,186C 181.255,192.081 174.588,198.581 168.5,205.5C 166.651,206.593 164.984,207.926 163.5,209.5C 155.514,214.487 148.847,220.821 143.5,228.5C 145.589,218.625 147.089,208.625 148,198.5C 148.692,197.975 149.192,197.308 149.5,196.5C 157.966,192.434 165.966,187.601 173.5,182C 178.347,180.844 182.68,181.677 186.5,184.5 Z"/></g>
<g><path style="opacity:0.949" fill="#ff6666" d="M 231.5,148.5 C 237.357,153.368 240.357,159.701 240.5,167.5C 239.883,167.389 239.383,167.056 239,166.5C 224.027,179.526 209.527,192.86 195.5,206.5C 190.193,204.181 184.859,201.848 179.5,199.5C 175.939,201.779 172.273,203.779 168.5,205.5C 174.588,198.581 181.255,192.081 188.5,186C 187.584,185.722 186.918,185.222 186.5,184.5C 191.915,186.371 197.248,188.538 202.5,191C 205.303,191.755 207.97,191.422 210.5,190C 215.482,182.537 219.815,174.704 223.5,166.5C 222.639,164.089 221.306,162.089 219.5,160.5C 222.506,155.494 226.506,151.494 231.5,148.5 Z"/></g>
<g><path style="opacity:0.959" fill="#ff8064" d="M 86.5,186.5 C 92.3642,189.264 98.0309,192.264 103.5,195.5C 100.446,200.887 96.113,204.887 90.5,207.5C 85.0776,205.622 80.0776,202.956 75.5,199.5C 74.5832,200.127 73.5832,200.461 72.5,200.5C 77.4729,196.194 82.1396,191.527 86.5,186.5 Z"/></g>
<g><path style="opacity:0.957" fill="#ff7965" d="M 103.5,195.5 C 105.173,196.343 106.34,197.676 107,199.5C 107.912,204.464 108.412,209.464 108.5,214.5C 103.795,219.207 98.7954,223.54 93.5,227.5C 92.6439,220.786 91.6439,214.12 90.5,207.5C 96.113,204.887 100.446,200.887 103.5,195.5 Z"/></g>
<g><path style="opacity:0.963" fill="#ff6766" d="M 163.5,209.5 C 164.825,239.841 150.491,252.507 120.5,247.5C 126.167,242.167 131.833,236.833 137.5,231.5C 139.426,230.514 141.426,229.514 143.5,228.5C 148.847,220.821 155.514,214.487 163.5,209.5 Z"/></g>
<g><path style="opacity:0.978" fill="#ff6f65" d="M 108.5,214.5 C 108.907,219.581 110.24,224.414 112.5,229C 114.087,229.862 115.754,230.529 117.5,231C 124.158,231.5 130.825,231.666 137.5,231.5C 131.833,236.833 126.167,242.167 120.5,247.5C 105.799,248.459 96.7985,241.792 93.5,227.5C 98.7954,223.54 103.795,219.207 108.5,214.5 Z"/></g>
</svg>
