<?xml version="1.0" encoding="UTF-8"?>
<!DOCTYPE svg PUBLIC "-//W3C//DTD SVG 1.1//EN" "http://www.w3.org/Graphics/SVG/1.1/DTD/svg11.dtd">
<svg xmlns="http://www.w3.org/2000/svg" version="1.1" width="512px" height="512px" style="shape-rendering:geometricPrecision; text-rendering:geometricPrecision; image-rendering:optimizeQuality; fill-rule:evenodd; clip-rule:evenodd" xmlns:xlink="http://www.w3.org/1999/xlink">
<g><path style="opacity:0.993" fill="#fefffe" d="M 235.5,-0.5 C 248.833,-0.5 262.167,-0.5 275.5,-0.5C 376.692,11.8651 448.859,64.1984 492,156.5C 502.456,181.991 508.956,208.324 511.5,235.5C 511.5,248.833 511.5,262.167 511.5,275.5C 499.135,376.692 446.802,448.859 354.5,492C 329.009,502.456 302.676,508.956 275.5,511.5C 262.167,511.5 248.833,511.5 235.5,511.5C 134.308,499.135 62.1414,446.802 19,354.5C 8.54352,329.009 2.04352,302.676 -0.5,275.5C -0.5,262.167 -0.5,248.833 -0.5,235.5C 11.8651,134.308 64.1984,62.1414 156.5,19C 181.991,8.54352 208.324,2.04352 235.5,-0.5 Z M 169.5,129.5 C 170.239,129.369 170.906,129.536 171.5,130C 199.347,158.014 227.347,185.847 255.5,213.5C 283.833,185.5 312.167,157.5 340.5,129.5C 354.153,142.653 367.653,155.986 381,169.5C 381.667,170.167 381.667,170.833 381,171.5C 352.986,199.347 325.153,227.347 297.5,255.5C 325.5,283.833 353.5,312.167 381.5,340.5C 368.347,354.153 355.014,367.653 341.5,381C 340.833,381.667 340.167,381.667 339.5,381C 311.653,352.986 283.653,325.153 255.5,297.5C 227.167,325.5 198.833,353.5 170.5,381.5C 156.847,368.347 143.347,355.014 130,341.5C 129.333,340.833 129.333,340.167 130,339.5C 158.014,311.653 185.847,283.653 213.5,255.5C 185.5,227.167 157.5,198.833 129.5,170.5C 142.855,156.813 156.188,143.146 169.5,129.5 Z"/></g>
</svg>
