<svg width="24" height="24" viewBox="0 0 24 24" fill="none" xmlns="http://www.w3.org/2000/svg">
<path fill-rule="evenodd" clip-rule="evenodd" d="M3.89983 15.6468L5.29783 15.8608C6.32983 16.0188 7.06683 16.9428 6.99083 17.9838L6.88783 19.3948C6.85783 19.8058 7.08183 20.1928 7.45283 20.3718L8.48683 20.8698C8.85783 21.0488 9.30083 20.9818 9.60383 20.7028L10.6428 19.7428C11.4088 19.0348 12.5908 19.0348 13.3578 19.7428L14.3968 20.7028C14.6998 20.9828 15.1418 21.0488 15.5138 20.8698L16.5498 20.3708C16.9198 20.1928 17.1428 19.8068 17.1128 19.3968L17.0098 17.9838C16.9338 16.9428 17.6708 16.0188 18.7028 15.8608L20.1008 15.6468C20.5078 15.5848 20.8358 15.2798 20.9278 14.8778L21.1828 13.7598C21.2748 13.3578 21.1118 12.9408 20.7718 12.7088L19.6048 11.9098C18.7438 11.3198 18.4808 10.1678 19.0008 9.26278L19.7058 8.03678C19.9108 7.67978 19.8768 7.23278 19.6198 6.91078L18.9048 6.01378C18.6478 5.69178 18.2198 5.55878 17.8258 5.67978L16.4738 6.09378C15.4748 6.39978 14.4098 5.88678 14.0258 4.91578L13.5078 3.60278C13.3558 3.21878 12.9848 2.96678 12.5718 2.96778L11.4258 2.97078C11.0128 2.97178 10.6428 3.22578 10.4928 3.61078L9.98783 4.90878C9.60783 5.88578 8.53783 6.40278 7.53583 6.09478L6.12783 5.66278C5.73283 5.54078 5.30283 5.67478 5.04583 5.99878L4.33583 6.89678C4.07883 7.22178 4.04783 7.66978 4.25683 8.02678L4.97783 9.25578C5.50883 10.1618 5.24883 11.3248 4.38283 11.9178L3.22983 12.7078C2.88983 12.9408 2.72683 13.3578 2.81883 13.7588L3.07383 14.8768C3.16483 15.2798 3.49283 15.5848 3.89983 15.6468V15.6468Z" stroke="#D9D9D9" stroke-width="1.5" stroke-linecap="round" stroke-linejoin="round"/>
<path fill-rule="evenodd" clip-rule="evenodd" d="M3.89983 15.6468L5.29783 15.8608C6.32983 16.0188 7.06683 16.9428 6.99083 17.9838L6.88783 19.3948C6.85783 19.8058 7.08183 20.1928 7.45283 20.3718L8.48683 20.8698C8.85783 21.0488 9.30083 20.9818 9.60383 20.7028L10.6428 19.7428C11.4088 19.0348 12.5908 19.0348 13.3578 19.7428L14.3968 20.7028C14.6998 20.9828 15.1418 21.0488 15.5138 20.8698L16.5498 20.3708C16.9198 20.1928 17.1428 19.8068 17.1128 19.3968L17.0098 17.9838C16.9338 16.9428 17.6708 16.0188 18.7028 15.8608L20.1008 15.6468C20.5078 15.5848 20.8358 15.2798 20.9278 14.8778L21.1828 13.7598C21.2748 13.3578 21.1118 12.9408 20.7718 12.7088L19.6048 11.9098C18.7438 11.3198 18.4808 10.1678 19.0008 9.26278L19.7058 8.03678C19.9108 7.67978 19.8768 7.23278 19.6198 6.91078L18.9048 6.01378C18.6478 5.69178 18.2198 5.55878 17.8258 5.67978L16.4738 6.09378C15.4748 6.39978 14.4098 5.88678 14.0258 4.91578L13.5078 3.60278C13.3558 3.21878 12.9848 2.96678 12.5718 2.96778L11.4258 2.97078C11.0128 2.97178 10.6428 3.22578 10.4928 3.61078L9.98783 4.90878C9.60783 5.88578 8.53783 6.40278 7.53583 6.09478L6.12783 5.66278C5.73283 5.54078 5.30283 5.67478 5.04583 5.99878L4.33583 6.89678C4.07883 7.22178 4.04783 7.66978 4.25683 8.02678L4.97783 9.25578C5.50883 10.1618 5.24883 11.3248 4.38283 11.9178L3.22983 12.7078C2.88983 12.9408 2.72683 13.3578 2.81883 13.7588L3.07383 14.8768C3.16483 15.2798 3.49283 15.5848 3.89983 15.6468V15.6468Z" stroke="url(#paint0_linear_61_5787)" stroke-width="1.5" stroke-linecap="round" stroke-linejoin="round"/>
<path d="M13.916 10.0835C14.974 11.1415 14.974 12.8575 13.916 13.9155C12.858 14.9735 11.142 14.9735 10.084 13.9155C9.02603 12.8575 9.02603 11.1415 10.084 10.0835C11.142 9.02554 12.858 9.02554 13.916 10.0835" stroke="#D9D9D9" stroke-width="1.5" stroke-linecap="round" stroke-linejoin="round"/>
<path d="M13.916 10.0835C14.974 11.1415 14.974 12.8575 13.916 13.9155C12.858 14.9735 11.142 14.9735 10.084 13.9155C9.02603 12.8575 9.02603 11.1415 10.084 10.0835C11.142 9.02554 12.858 9.02554 13.916 10.0835" stroke="url(#paint1_linear_61_5787)" stroke-width="1.5" stroke-linecap="round" stroke-linejoin="round"/>
<defs>
<linearGradient id="paint0_linear_61_5787" x1="2.79346" y1="2.96777" x2="22.442" y2="4.43381" gradientUnits="userSpaceOnUse">
<stop stop-color="#00C1EB"/>
<stop offset="1" stop-color="#0094FF"/>
</linearGradient>
<linearGradient id="paint1_linear_61_5787" x1="9.29053" y1="9.29004" x2="15.074" y2="9.71188" gradientUnits="userSpaceOnUse">
<stop stop-color="#00C1EB"/>
<stop offset="1" stop-color="#0094FF"/>
</linearGradient>
</defs>
</svg>
