<?xml version="1.0" encoding="UTF-8"?>
<!DOCTYPE svg PUBLIC "-//W3C//DTD SVG 1.1//EN" "http://www.w3.org/Graphics/SVG/1.1/DTD/svg11.dtd">
<svg xmlns="http://www.w3.org/2000/svg" version="1.1" width="256px" height="256px" style="shape-rendering:geometricPrecision; text-rendering:geometricPrecision; image-rendering:optimizeQuality; fill-rule:evenodd; clip-rule:evenodd" xmlns:xlink="http://www.w3.org/1999/xlink">
<g><path style="opacity:0.961" fill="#ffb861" d="M 80.5,15.5 C 72.6973,23.1336 64.6973,30.6336 56.5,38C 56.7284,38.3988 57.0618,38.5654 57.5,38.5C 51.8714,42.4608 46.8714,47.1275 42.5,52.5C 41.0783,52.7086 39.745,53.2086 38.5,54C 30.9623,61.0411 23.2956,67.8744 15.5,74.5C 22.4148,38.5479 44.0814,18.8812 80.5,15.5 Z"/></g>
<g><path style="opacity:0.962" fill="#ffb262" d="M 80.5,15.5 C 89.0507,14.9573 97.384,15.9573 105.5,18.5C 100.5,23.1667 95.5,27.8333 90.5,32.5C 78.8544,31.1638 67.8544,33.1638 57.5,38.5C 57.0618,38.5654 56.7284,38.3988 56.5,38C 64.6973,30.6336 72.6973,23.1336 80.5,15.5 Z"/></g>
<g><path style="opacity:0.971" fill="#ffa862" d="M 105.5,18.5 C 116.196,22.5067 125.529,28.5067 133.5,36.5C 129.46,40.5421 125.127,44.2088 120.5,47.5C 112.158,39.3288 102.158,34.3288 90.5,32.5C 95.5,27.8333 100.5,23.1667 105.5,18.5 Z"/></g>
<g><path style="opacity:0.969" fill="#ff9b63" d="M 133.5,36.5 C 141.441,45.0446 146.774,55.0446 149.5,66.5C 145.783,72.5503 140.783,77.2169 134.5,80.5C 133.931,67.7024 129.264,56.7024 120.5,47.5C 125.127,44.2088 129.46,40.5421 133.5,36.5 Z"/></g>
<g><path style="opacity:0.963" fill="#ffb261" d="M 42.5,52.5 C 34.7275,62.8263 31.3942,74.4929 32.5,87.5C 31.8826,87.3893 31.3826,87.056 31,86.5C 26.274,90.7349 21.4406,94.7349 16.5,98.5C 15.5973,90.5417 15.264,82.5417 15.5,74.5C 23.2956,67.8744 30.9623,61.0411 38.5,54C 39.745,53.2086 41.0783,52.7086 42.5,52.5 Z"/></g>
<g><path style="opacity:0.989" fill="#ffa662" d="M 79.5,47.5 C 82.1873,47.3359 84.854,47.5026 87.5,48C 89.3333,48.5 90.5,49.6667 91,51.5C 91.6667,64.8333 91.6667,78.1667 91,91.5C 90.6258,92.4162 90.1258,93.2496 89.5,94C 85.9613,95.5039 82.2946,95.8372 78.5,95C 70.1194,92.488 61.7861,89.8214 53.5,87C 51.6667,86.5 50.5,85.3333 50,83.5C 47.7537,75.9558 50.4203,71.9558 58,71.5C 63.8582,72.7306 69.6915,74.064 75.5,75.5C 75.3336,67.4931 75.5003,59.4931 76,51.5C 76.6897,49.6498 77.8564,48.3164 79.5,47.5 Z"/></g>
<g><path style="opacity:0.985" fill="#ff8e63" d="M 149.5,66.5 C 151.029,71.916 151.695,77.5827 151.5,83.5C 152.018,92.9097 150.351,101.91 146.5,110.5C 146.957,111.298 147.624,111.631 148.5,111.5C 143.473,117.194 138.14,122.527 132.5,127.5C 124.458,127.264 116.458,127.597 108.5,128.5C 108.062,128.565 107.728,128.399 107.5,128C 113.696,122.634 119.696,117.134 125.5,111.5C 129.272,107.629 131.772,102.962 133,97.5C 134.289,91.9116 134.789,86.2449 134.5,80.5C 140.783,77.2169 145.783,72.5503 149.5,66.5 Z"/></g>
<g><path style="opacity:0.963" fill="#ffa762" d="M 32.5,87.5 C 33.1918,98.8751 37.1918,108.875 44.5,117.5C 40.6775,121.569 36.3441,124.902 31.5,127.5C 24.1621,119.161 19.1621,109.494 16.5,98.5C 21.4406,94.7349 26.274,90.7349 31,86.5C 31.3826,87.056 31.8826,87.3893 32.5,87.5 Z"/></g>
<g><path style="opacity:0.981" fill="#ff9263" d="M 125.5,111.5 C 119.696,117.134 113.696,122.634 107.5,128C 107.728,128.399 108.062,128.565 108.5,128.5C 107.306,129.272 106.306,130.272 105.5,131.5C 103.745,132.072 102.078,132.906 100.5,134C 94.6048,140.064 88.6048,145.897 82.5,151.5C 73.6188,151.991 65.2854,150.324 57.5,146.5C 62.1667,142.167 66.8333,137.833 71.5,133.5C 76.772,134.4 82.1053,134.733 87.5,134.5C 88.006,123.154 93.6727,115.654 104.5,112C 111.492,111.5 118.492,111.334 125.5,111.5 Z"/></g>
<g><path style="opacity:1" fill="#ff8664" d="M 148.5,111.5 C 156.5,111.5 164.5,111.5 172.5,111.5C 166.86,116.473 161.527,121.806 156.5,127.5C 148.5,127.5 140.5,127.5 132.5,127.5C 138.14,122.527 143.473,117.194 148.5,111.5 Z"/></g>
<g><path style="opacity:0.99" fill="#ff8065" d="M 172.5,111.5 C 178.509,111.334 184.509,111.501 190.5,112C 192.641,112.573 194.641,113.406 196.5,114.5C 192.473,119.194 188.14,123.527 183.5,127.5C 174.5,127.5 165.5,127.5 156.5,127.5C 161.527,121.806 166.86,116.473 172.5,111.5 Z"/></g>
<g><path style="opacity:0.965" fill="#ff9c62" d="M 44.5,117.5 C 51.9919,125.314 60.9919,130.648 71.5,133.5C 66.8333,137.833 62.1667,142.167 57.5,146.5C 46.9736,142.584 38.307,136.25 31.5,127.5C 36.3441,124.902 40.6775,121.569 44.5,117.5 Z"/></g>
<g><path style="opacity:0.993" fill="#ff7565" d="M 196.5,114.5 C 206.241,121.706 209.907,131.373 207.5,143.5C 209.167,143.5 210.833,143.5 212.5,143.5C 205.825,150.175 198.825,156.508 191.5,162.5C 191.666,153.494 191.5,144.494 191,135.5C 190.32,130.989 187.82,128.323 183.5,127.5C 188.14,123.527 192.473,119.194 196.5,114.5 Z"/></g>
<g><path style="opacity:0.995" fill="#ff8c64" d="M 105.5,131.5 C 103.656,138.654 102.989,145.987 103.5,153.5C 98.1667,158.167 92.8333,162.833 87.5,167.5C 87.5,162.167 87.5,156.833 87.5,151.5C 85.8333,151.5 84.1667,151.5 82.5,151.5C 88.6048,145.897 94.6048,140.064 100.5,134C 102.078,132.906 103.745,132.072 105.5,131.5 Z"/></g>
<g><path style="opacity:0.989" fill="#ff6d66" d="M 212.5,143.5 C 219.978,142.328 226.311,144.328 231.5,149.5C 226.868,152.798 222.534,156.464 218.5,160.5C 214.881,159.756 211.215,159.423 207.5,159.5C 207.5,163.167 207.5,166.833 207.5,170.5C 201.871,174.794 196.537,179.461 191.5,184.5C 191.5,177.167 191.5,169.833 191.5,162.5C 198.825,156.508 205.825,150.175 212.5,143.5 Z"/></g>
<g><path style="opacity:1" fill="#ff8664" d="M 103.5,153.5 C 103.5,160.833 103.5,168.167 103.5,175.5C 98.1667,179.833 92.8333,184.167 87.5,188.5C 87.5,181.5 87.5,174.5 87.5,167.5C 92.8333,162.833 98.1667,158.167 103.5,153.5 Z"/></g>
<g><path style="opacity:0.976" fill="#ff6166" d="M 231.5,149.5 C 235.471,152.092 237.971,155.759 239,160.5C 239.667,169.833 239.667,179.167 239,188.5C 233.046,203.571 221.879,210.071 205.5,208C 196.805,228.182 181.472,238.682 159.5,239.5C 176.5,223.5 193.5,207.5 210.5,191.5C 215.692,191.324 219.525,188.991 222,184.5C 224.27,177.016 223.936,169.683 221,162.5C 220.005,161.934 219.172,161.267 218.5,160.5C 222.534,156.464 226.868,152.798 231.5,149.5 Z"/></g>
<g><path style="opacity:0.974" fill="#ff6666" d="M 207.5,170.5 C 207.5,177.5 207.5,184.5 207.5,191.5C 208.5,191.5 209.5,191.5 210.5,191.5C 193.5,207.5 176.5,223.5 159.5,239.5C 150.167,239.5 140.833,239.5 131.5,239.5C 137.14,234.527 142.473,229.194 147.5,223.5C 175.417,225.242 190.084,212.242 191.5,184.5C 196.537,179.461 201.871,174.794 207.5,170.5 Z"/></g>
<g><path style="opacity:0.972" fill="#ff8065" d="M 103.5,175.5 C 103.241,183.627 103.908,191.627 105.5,199.5C 99.4655,202.201 95.1322,206.534 92.5,212.5C 88.3316,205.142 86.665,197.142 87.5,188.5C 92.8333,184.167 98.1667,179.833 103.5,175.5 Z"/></g>
<g><path style="opacity:0.959" fill="#ff7565" d="M 105.5,199.5 C 109.079,210.08 116.079,217.413 126.5,221.5C 121.86,225.473 117.527,229.806 113.5,234.5C 103.753,229.754 96.7533,222.421 92.5,212.5C 95.1322,206.534 99.4655,202.201 105.5,199.5 Z"/></g>
<g><path style="opacity:0.97" fill="#ff6d65" d="M 126.5,221.5 C 133.412,222.886 140.412,223.553 147.5,223.5C 142.473,229.194 137.14,234.527 131.5,239.5C 125.142,239.046 119.142,237.38 113.5,234.5C 117.527,229.806 121.86,225.473 126.5,221.5 Z"/></g>
</svg>
