<?xml version="1.0" encoding="UTF-8"?>
<!DOCTYPE svg PUBLIC "-//W3C//DTD SVG 1.1//EN" "http://www.w3.org/Graphics/SVG/1.1/DTD/svg11.dtd">
<svg xmlns="http://www.w3.org/2000/svg" version="1.1" width="512px" height="512px" style="shape-rendering:geometricPrecision; text-rendering:geometricPrecision; image-rendering:optimizeQuality; fill-rule:evenodd; clip-rule:evenodd" xmlns:xlink="http://www.w3.org/1999/xlink">
<g><path style="opacity:0.981" fill="#ffb261" d="M 356.5,32.5 C 395.843,68.5084 435.509,104.175 475.5,139.5C 479.107,153.273 480.274,167.273 479,181.5C 474.527,190.482 467.36,193.649 457.5,191C 453,189.167 449.833,186 448,181.5C 446.99,131.268 424.157,95.1015 379.5,73C 363.45,66.6578 346.783,63.3245 329.5,63C 320.518,58.5269 317.351,51.3603 320,41.5C 321.833,37 325,33.8333 329.5,32C 338.527,31.2841 347.527,31.4507 356.5,32.5 Z"/></g>
<g><path style="opacity:0.976" fill="#ffb761" d="M 356.5,32.5 C 417.952,43.9525 457.619,79.6192 475.5,139.5C 435.509,104.175 395.843,68.5084 356.5,32.5 Z"/></g>
<g><path style="opacity:0.985" fill="#ffaa61" d="M 415.5,179.5 C 385.474,152.471 355.474,125.471 325.5,98.5C 326.6,97.4415 327.934,96.6082 329.5,96C 367.328,94.1551 394.161,110.322 410,144.5C 414.612,155.728 416.445,167.394 415.5,179.5 Z"/></g>
<g><path style="opacity:0.972" fill="#ffa762" d="M 325.5,98.5 C 355.474,125.471 385.474,152.471 415.5,179.5C 411.766,189.87 404.433,193.703 393.5,191C 389,189.167 385.833,186 384,181.5C 381.833,147.333 363.667,129.167 329.5,127C 320.518,122.527 317.351,115.36 320,105.5C 320.935,102.405 322.769,100.071 325.5,98.5 Z"/></g>
<g><path style="opacity:0.988" fill="#ff8d63" d="M 185.5,152.5 C 223.355,186.7 261.188,221.033 299,255.5C 299.399,255.272 299.565,254.938 299.5,254.5C 301.188,259.586 302.354,264.92 303,270.5C 303.5,280.828 303.666,291.161 303.5,301.5C 292.519,292.19 281.519,282.856 270.5,273.5C 261.048,227.121 233.381,197.955 187.5,186C 182.552,184.95 177.552,184.45 172.5,184.5C 162.361,175.199 152.027,166.032 141.5,157C 140.177,156.184 139.511,155.017 139.5,153.5C 143.422,153.155 147.255,152.488 151,151.5C 151.333,144.167 151.667,136.833 152,129.5C 156.473,120.518 163.64,117.351 173.5,120C 178,121.833 181.167,125 183,129.5C 183.333,136.833 183.667,144.167 184,151.5C 184.383,152.056 184.883,152.389 185.5,152.5 Z"/></g>
<g><path style="opacity:0.984" fill="#ff9163" d="M 185.5,152.5 C 236.584,160.76 272.751,188.427 294,235.5C 296.349,241.711 298.182,248.044 299.5,254.5C 299.565,254.938 299.399,255.272 299,255.5C 261.188,221.033 223.355,186.7 185.5,152.5 Z"/></g>
<g><path style="opacity:0.982" fill="#ff8664" d="M 139.5,153.5 C 139.511,155.017 140.177,156.184 141.5,157C 152.027,166.032 162.361,175.199 172.5,184.5C 158.17,183.664 144.17,185.664 130.5,190.5C 122.134,182.132 113.467,174.132 104.5,166.5C 115.648,160.784 127.315,156.45 139.5,153.5 Z"/></g>
<g><path style="opacity:0.971" fill="#ff9f62" d="M 329.5,159.5 C 348.778,158.61 355.278,167.276 349,185.5C 342.055,192.069 334.222,193.236 325.5,189C 318.931,182.055 317.764,174.222 322,165.5C 324.114,162.879 326.614,160.879 329.5,159.5 Z"/></g>
<g><path style="opacity:0.98" fill="#ff7f64" d="M 104.5,166.5 C 113.467,174.132 122.134,182.132 130.5,190.5C 118.893,195.638 108.227,202.305 98.5,210.5C 96.0676,209.25 93.7343,207.75 91.5,206C 85.2324,200.381 79.2324,194.547 73.5,188.5C 82.6985,179.645 93.0319,172.312 104.5,166.5 Z"/></g>
<g><path style="opacity:0.981" fill="#ff7964" d="M 73.5,188.5 C 79.2324,194.547 85.2324,200.381 91.5,206C 93.7343,207.75 96.0676,209.25 98.5,210.5C 89.9803,218.543 82.647,227.543 76.5,237.5C 76.719,236.325 76.3857,235.325 75.5,234.5C 67.8137,227.811 60.147,221.144 52.5,214.5C 57.9898,204.67 64.9898,196.004 73.5,188.5 Z"/></g>
<g><path style="opacity:0.979" fill="#ff7365" d="M 52.5,214.5 C 60.147,221.144 67.8137,227.811 75.5,234.5C 76.3857,235.325 76.719,236.325 76.5,237.5C 71.8395,247.482 68.1728,257.815 65.5,268.5C 56.1733,260.506 47.1733,252.173 38.5,243.5C 41.6555,232.994 46.3222,223.327 52.5,214.5 Z"/></g>
<g><path style="opacity:0.985" fill="#ff6d65" d="M 38.5,243.5 C 47.1733,252.173 56.1733,260.506 65.5,268.5C 64.0777,282.123 63.4111,295.789 63.5,309.5C 52.5372,300.539 41.8705,291.206 31.5,281.5C 31.543,268.294 33.8763,255.627 38.5,243.5 Z"/></g>
<g><path style="opacity:0.996" fill="#ff8664" d="M 270.5,273.5 C 281.519,282.856 292.519,292.19 303.5,301.5C 303.5,316.167 303.5,330.833 303.5,345.5C 293.129,335.794 282.463,326.461 271.5,317.5C 271.522,302.823 271.189,288.157 270.5,273.5 Z"/></g>
<g><path style="opacity:1" fill="#ff6766" d="M 31.5,281.5 C 41.8705,291.206 52.5372,300.539 63.5,309.5C 63.5,326.167 63.5,342.833 63.5,359.5C 52.5372,350.539 41.8705,341.206 31.5,331.5C 31.5,314.833 31.5,298.167 31.5,281.5 Z"/></g>
<g><path style="opacity:0.995" fill="#ff8065" d="M 271.5,317.5 C 282.463,326.461 293.129,335.794 303.5,345.5C 303.667,356.172 303.5,366.839 303,377.5C 301.988,382.038 300.488,386.371 298.5,390.5C 289.206,383.208 280.206,375.542 271.5,367.5C 271.5,350.833 271.5,334.167 271.5,317.5 Z"/></g>
<g><path style="opacity:0.992" fill="#ff6066" d="M 31.5,331.5 C 41.8705,341.206 52.5372,350.539 63.5,359.5C 62.9799,377.972 71.9799,385.972 90.5,383.5C 108.171,400.669 126.337,417.336 145,433.5C 145.399,433.272 145.565,432.938 145.5,432.5C 148.941,438.606 153.941,442.94 160.5,445.5C 161.882,448.394 163.882,450.894 166.5,453C 174.993,459.662 182.993,466.828 190.5,474.5C 163.702,485.092 140.868,479.426 122,457.5C 113.173,444.86 109.673,430.86 111.5,415.5C 96.1087,415.935 80.7754,415.435 65.5,414C 47.7255,407.892 36.5588,395.726 32,377.5C 31.5001,362.17 31.3334,346.837 31.5,331.5 Z"/></g>
<g><path style="opacity:0.982" fill="#ff7964" d="M 271.5,367.5 C 280.206,375.542 289.206,383.208 298.5,390.5C 292.647,400.689 284.313,408.022 273.5,412.5C 262.976,403.065 252.643,393.399 242.5,383.5C 250.169,384.183 257.502,383.016 264.5,380C 268.31,376.536 270.644,372.369 271.5,367.5 Z"/></g>
<g><path style="opacity:0.997" fill="#ff6666" d="M 90.5,383.5 C 109.167,383.5 127.833,383.5 146.5,383.5C 157.531,394.533 168.865,405.199 180.5,415.5C 168.814,415.168 157.148,415.501 145.5,416.5C 144.275,421.819 144.275,427.152 145.5,432.5C 145.565,432.938 145.399,433.272 145,433.5C 126.337,417.336 108.171,400.669 90.5,383.5 Z"/></g>
<g><path style="opacity:0.995" fill="#ff6d65" d="M 146.5,383.5 C 162.5,383.5 178.5,383.5 194.5,383.5C 205.833,394.167 217.167,404.833 228.5,415.5C 226.833,415.5 225.167,415.5 223.5,415.5C 224.69,426.687 223.024,437.354 218.5,447.5C 216.745,446.928 215.078,446.094 213.5,445C 205.61,437.939 197.943,430.772 190.5,423.5C 190.708,421.08 190.374,418.747 189.5,416.5C 186.572,415.516 183.572,415.183 180.5,415.5C 168.865,405.199 157.531,394.533 146.5,383.5 Z"/></g>
<g><path style="opacity:0.996" fill="#ff7365" d="M 194.5,383.5 C 210.5,383.5 226.5,383.5 242.5,383.5C 252.643,393.399 262.976,403.065 273.5,412.5C 270.958,413.624 268.292,414.458 265.5,415C 253.171,415.5 240.838,415.667 228.5,415.5C 217.167,404.833 205.833,394.167 194.5,383.5 Z"/></g>
<g><path style="opacity:0.975" fill="#ff6666" d="M 190.5,423.5 C 197.943,430.772 205.61,437.939 213.5,445C 215.078,446.094 216.745,446.928 218.5,447.5C 213.035,460.556 203.701,469.556 190.5,474.5C 182.993,466.828 174.993,459.662 166.5,453C 163.882,450.894 161.882,448.394 160.5,445.5C 178.108,448.56 188.108,441.227 190.5,423.5 Z"/></g>
</svg>
