<svg width="25" height="25" viewBox="0 0 25 25" fill="none" xmlns="http://www.w3.org/2000/svg">
<path fill-rule="evenodd" clip-rule="evenodd" d="M8 3.23047H17.004C19.487 3.23047 21.5 5.24347 21.5 7.72647V16.7355C21.5 19.2175 19.487 21.2305 17.004 21.2305H7.996C5.513 21.2305 3.5 19.2175 3.5 16.7345V7.73047C3.5 5.24547 5.515 3.23047 8 3.23047V3.23047Z" stroke="#D9D9D9" stroke-width="1.5" stroke-linecap="round" stroke-linejoin="round"/>
<path fill-rule="evenodd" clip-rule="evenodd" d="M8 3.23047H17.004C19.487 3.23047 21.5 5.24347 21.5 7.72647V16.7355C21.5 19.2175 19.487 21.2305 17.004 21.2305H7.996C5.513 21.2305 3.5 19.2175 3.5 16.7345V7.73047C3.5 5.24547 5.515 3.23047 8 3.23047V3.23047Z" stroke="url(#paint0_linear_27_7091)" stroke-width="1.5" stroke-linecap="round" stroke-linejoin="round"/>
<path d="M11.6001 13.1304H17.0001" stroke="#D9D9D9" stroke-width="1.5" stroke-linecap="round" stroke-linejoin="round"/>
<path d="M11.6001 13.1304H17.0001" stroke="url(#paint1_linear_27_7091)" stroke-width="1.5" stroke-linecap="round" stroke-linejoin="round"/>
<path d="M16.9999 8.63037H16.0549C14.5889 8.63037 13.3999 9.81937 13.3999 11.2854V12.2304V21.2304" stroke="#D9D9D9" stroke-width="1.5" stroke-linecap="round" stroke-linejoin="round"/>
<path d="M16.9999 8.63037H16.0549C14.5889 8.63037 13.3999 9.81937 13.3999 11.2854V12.2304V21.2304" stroke="url(#paint2_linear_27_7091)" stroke-width="1.5" stroke-linecap="round" stroke-linejoin="round"/>
<defs>
<linearGradient id="paint0_linear_27_7091" x1="3.5" y1="3.23047" x2="22.7107" y2="4.63169" gradientUnits="userSpaceOnUse">
<stop stop-color="#00C1EB"/>
<stop offset="1" stop-color="#0094FF"/>
</linearGradient>
<linearGradient id="paint1_linear_27_7091" x1="11.6001" y1="12.6304" x2="16.6158" y2="14.6059" gradientUnits="userSpaceOnUse">
<stop stop-color="#00C1EB"/>
<stop offset="1" stop-color="#0094FF"/>
</linearGradient>
<linearGradient id="paint2_linear_27_7091" x1="13.3999" y1="8.63037" x2="17.2608" y2="8.71083" gradientUnits="userSpaceOnUse">
<stop stop-color="#00C1EB"/>
<stop offset="1" stop-color="#0094FF"/>
</linearGradient>
</defs>
</svg>
