<svg width="25" height="25" viewBox="0 0 25 25" fill="none" xmlns="http://www.w3.org/2000/svg">
<path fill-rule="evenodd" clip-rule="evenodd" d="M19.0028 17.2329H15.5363C15.2019 17.2329 14.8896 17.3999 14.704 17.6781L14.2978 18.2873C14.1122 18.5655 13.7999 18.7326 13.4655 18.7325H9.53382C9.1994 18.7326 8.88707 18.5655 8.70147 18.2873L8.2953 17.6781C8.10929 17.3999 7.79665 17.2328 7.46195 17.2329H3.99651C3.44408 17.2331 2.99629 17.6809 2.99609 18.2333V19.2337C2.99609 19.7643 3.20655 20.2731 3.58157 20.6483C3.95659 21.0236 4.46532 21.2344 4.99583 21.2346H18.0023C18.5329 21.2347 19.0417 21.0241 19.4169 20.6491C19.7922 20.2741 20.0032 19.7654 20.0032 19.2348V18.2333C20.003 17.6809 19.5552 17.2331 19.0028 17.2329V17.2329Z" stroke="#D9D9D9" stroke-width="1.5" stroke-linecap="round" stroke-linejoin="round"/>
<path fill-rule="evenodd" clip-rule="evenodd" d="M19.0028 17.2329H15.5363C15.2019 17.2329 14.8896 17.3999 14.704 17.6781L14.2978 18.2873C14.1122 18.5655 13.7999 18.7326 13.4655 18.7325H9.53382C9.1994 18.7326 8.88707 18.5655 8.70147 18.2873L8.2953 17.6781C8.10929 17.3999 7.79665 17.2328 7.46195 17.2329H3.99651C3.44408 17.2331 2.99629 17.6809 2.99609 18.2333V19.2337C2.99609 19.7643 3.20655 20.2731 3.58157 20.6483C3.95659 21.0236 4.46532 21.2344 4.99583 21.2346H18.0023C18.5329 21.2347 19.0417 21.0241 19.4169 20.6491C19.7922 20.2741 20.0032 19.7654 20.0032 19.2348V18.2333C20.003 17.6809 19.5552 17.2331 19.0028 17.2329V17.2329Z" stroke="url(#paint0_linear_27_7018)" stroke-width="1.5" stroke-linecap="round" stroke-linejoin="round"/>
<path d="M19.0026 17.2327V14.2314" stroke="#D9D9D9" stroke-width="1.5" stroke-linecap="round" stroke-linejoin="round"/>
<path d="M19.0026 17.2327V14.2314" stroke="url(#paint1_linear_27_7018)" stroke-width="1.5" stroke-linecap="round" stroke-linejoin="round"/>
<path fill-rule="evenodd" clip-rule="evenodd" d="M11.7917 11.2304H20.4623C20.9045 11.2303 21.3285 11.0545 21.6411 10.7418C21.9537 10.429 22.1292 10.0049 22.129 9.56269V4.89475C22.129 4.45241 21.9535 4.02816 21.6407 3.71538C21.3279 3.4026 20.9037 3.22693 20.4613 3.22705H11.7907C11.3485 3.22714 10.9245 3.40291 10.6119 3.71567C10.2994 4.02843 10.1239 4.45257 10.124 4.89475V9.56369C10.124 10.0059 10.2999 10.4299 10.6126 10.7425C10.9254 11.055 11.3495 11.2306 11.7917 11.2304V11.2304Z" stroke="#D9D9D9" stroke-width="1.5" stroke-linecap="round" stroke-linejoin="round"/>
<path fill-rule="evenodd" clip-rule="evenodd" d="M11.7917 11.2304H20.4623C20.9045 11.2303 21.3285 11.0545 21.6411 10.7418C21.9537 10.429 22.1292 10.0049 22.129 9.56269V4.89475C22.129 4.45241 21.9535 4.02816 21.6407 3.71538C21.3279 3.4026 20.9037 3.22693 20.4613 3.22705H11.7907C11.3485 3.22714 10.9245 3.40291 10.6119 3.71567C10.2994 4.02843 10.1239 4.45257 10.124 4.89475V9.56369C10.124 10.0059 10.2999 10.4299 10.6126 10.7425C10.9254 11.055 11.3495 11.2306 11.7917 11.2304V11.2304Z" stroke="url(#paint2_linear_27_7018)" stroke-width="1.5" stroke-linecap="round" stroke-linejoin="round"/>
<circle cx="16.1266" cy="7.22865" r="1.50063" stroke="#D9D9D9" stroke-width="1.5" stroke-linecap="round" stroke-linejoin="round"/>
<circle cx="16.1266" cy="7.22865" r="1.50063" stroke="url(#paint3_linear_27_7018)" stroke-width="1.5" stroke-linecap="round" stroke-linejoin="round"/>
<path d="M3.99658 17.2325V7.22837C3.99643 6.69786 4.20704 6.18902 4.58206 5.81379C4.95708 5.43856 5.46581 5.22768 5.99632 5.22754H7.49804" stroke="#D9D9D9" stroke-width="1.5" stroke-linecap="round" stroke-linejoin="round"/>
<path d="M3.99658 17.2325V7.22837C3.99643 6.69786 4.20704 6.18902 4.58206 5.81379C4.95708 5.43856 5.46581 5.22768 5.99632 5.22754H7.49804" stroke="url(#paint4_linear_27_7018)" stroke-width="1.5" stroke-linecap="round" stroke-linejoin="round"/>
<defs>
<linearGradient id="paint0_linear_27_7018" x1="2.99609" y1="17.2329" x2="19.6439" y2="22.3936" gradientUnits="userSpaceOnUse">
<stop stop-color="#00C1EB"/>
<stop offset="1" stop-color="#0094FF"/>
</linearGradient>
<linearGradient id="paint1_linear_27_7018" x1="18.5024" y1="14.2314" x2="19.5752" y2="14.2575" gradientUnits="userSpaceOnUse">
<stop stop-color="#00C1EB"/>
<stop offset="1" stop-color="#0094FF"/>
</linearGradient>
<linearGradient id="paint2_linear_27_7018" x1="10.124" y1="3.22705" x2="22.8523" y2="4.61964" gradientUnits="userSpaceOnUse">
<stop stop-color="#00C1EB"/>
<stop offset="1" stop-color="#0094FF"/>
</linearGradient>
<linearGradient id="paint3_linear_27_7018" x1="14.626" y1="5.72803" x2="17.8291" y2="5.96166" gradientUnits="userSpaceOnUse">
<stop stop-color="#00C1EB"/>
<stop offset="1" stop-color="#0094FF"/>
</linearGradient>
<linearGradient id="paint4_linear_27_7018" x1="3.99658" y1="5.22754" x2="7.75174" y2="5.30743" gradientUnits="userSpaceOnUse">
<stop stop-color="#00C1EB"/>
<stop offset="1" stop-color="#0094FF"/>
</linearGradient>
</defs>
</svg>
