<svg width="25" height="25" viewBox="0 0 25 25" fill="none" xmlns="http://www.w3.org/2000/svg">
<path d="M16.5 7.23047H8.5" stroke="#D9D9D9" stroke-width="1.5" stroke-linecap="round" stroke-linejoin="round"/>
<path d="M16.5 7.23047H8.5" stroke="url(#paint0_linear_73_6782)" stroke-width="1.5" stroke-linecap="round" stroke-linejoin="round"/>
<path fill-rule="evenodd" clip-rule="evenodd" d="M10.5 3.23047H14.5C15.6046 3.23047 16.5 4.1259 16.5 5.23047V9.23047C16.5 11.4396 14.7091 13.2305 12.5 13.2305V13.2305C10.2909 13.2305 8.5 11.4396 8.5 9.23047V5.23047C8.5 4.1259 9.39543 3.23047 10.5 3.23047Z" stroke="#D9D9D9" stroke-width="1.5" stroke-linecap="round" stroke-linejoin="round"/>
<path fill-rule="evenodd" clip-rule="evenodd" d="M10.5 3.23047H14.5C15.6046 3.23047 16.5 4.1259 16.5 5.23047V9.23047C16.5 11.4396 14.7091 13.2305 12.5 13.2305V13.2305C10.2909 13.2305 8.5 11.4396 8.5 9.23047V5.23047C8.5 4.1259 9.39543 3.23047 10.5 3.23047Z" stroke="url(#paint1_linear_73_6782)" stroke-width="1.5" stroke-linecap="round" stroke-linejoin="round"/>
<path d="M9.5 15.7305L5.85 16.4602C4.48363 16.7333 3.50004 17.933 3.5 19.3264L3.5 21.2305" stroke="#D9D9D9" stroke-width="1.5" stroke-linecap="round" stroke-linejoin="round"/>
<path d="M9.5 15.7305L5.85 16.4602C4.48363 16.7333 3.50004 17.933 3.5 19.3264L3.5 21.2305" stroke="url(#paint2_linear_73_6782)" stroke-width="1.5" stroke-linecap="round" stroke-linejoin="round"/>
<path d="M12.55 17.2305C12.55 17.2581 12.5276 17.2805 12.5 17.2805C12.4724 17.2805 12.45 17.2581 12.45 17.2305C12.45 17.2029 12.4723 17.1805 12.4999 17.1805C12.5132 17.1805 12.526 17.1857 12.5354 17.1951C12.5447 17.2045 12.55 17.2172 12.55 17.2305" stroke="#D9D9D9" stroke-width="1.5" stroke-linecap="round" stroke-linejoin="round"/>
<path d="M12.55 17.2305C12.55 17.2581 12.5276 17.2805 12.5 17.2805C12.4724 17.2805 12.45 17.2581 12.45 17.2305C12.45 17.2029 12.4723 17.1805 12.4999 17.1805C12.5132 17.1805 12.526 17.1857 12.5354 17.1951C12.5447 17.2045 12.55 17.2172 12.55 17.2305" stroke="url(#paint3_linear_73_6782)" stroke-width="1.5" stroke-linecap="round" stroke-linejoin="round"/>
<path d="M12.55 20.2305C12.55 20.2581 12.5276 20.2805 12.5 20.2805C12.4724 20.2805 12.45 20.2581 12.45 20.2305C12.45 20.2029 12.4723 20.1805 12.4999 20.1805C12.5132 20.1805 12.526 20.1857 12.5354 20.1951C12.5447 20.2045 12.55 20.2172 12.55 20.2305" stroke="#D9D9D9" stroke-width="1.5" stroke-linecap="round" stroke-linejoin="round"/>
<path d="M12.55 20.2305C12.55 20.2581 12.5276 20.2805 12.5 20.2805C12.4724 20.2805 12.45 20.2581 12.45 20.2305C12.45 20.2029 12.4723 20.1805 12.4999 20.1805C12.5132 20.1805 12.526 20.1857 12.5354 20.1951C12.5447 20.2045 12.55 20.2172 12.55 20.2305" stroke="url(#paint4_linear_73_6782)" stroke-width="1.5" stroke-linecap="round" stroke-linejoin="round"/>
<path d="M15.5 15.7305L19.15 16.4602C20.5164 16.7333 21.5 17.933 21.5 19.3264V21.2305" stroke="#D9D9D9" stroke-width="1.5" stroke-linecap="round" stroke-linejoin="round"/>
<path d="M15.5 15.7305L19.15 16.4602C20.5164 16.7333 21.5 17.933 21.5 19.3264V21.2305" stroke="url(#paint5_linear_73_6782)" stroke-width="1.5" stroke-linecap="round" stroke-linejoin="round"/>
<defs>
<linearGradient id="paint0_linear_73_6782" x1="8.5" y1="6.73047" x2="14.9033" y2="10.4669" gradientUnits="userSpaceOnUse">
<stop stop-color="#00C1EB"/>
<stop offset="1" stop-color="#0094FF"/>
</linearGradient>
<linearGradient id="paint1_linear_73_6782" x1="8.5" y1="3.23047" x2="17.0544" y2="3.72963" gradientUnits="userSpaceOnUse">
<stop stop-color="#00C1EB"/>
<stop offset="1" stop-color="#0094FF"/>
</linearGradient>
<linearGradient id="paint2_linear_73_6782" x1="3.5" y1="15.7305" x2="9.89713" y2="16.2395" gradientUnits="userSpaceOnUse">
<stop stop-color="#00C1EB"/>
<stop offset="1" stop-color="#0094FF"/>
</linearGradient>
<linearGradient id="paint3_linear_73_6782" x1="12" y1="16.7305" x2="13.0673" y2="16.8083" gradientUnits="userSpaceOnUse">
<stop stop-color="#00C1EB"/>
<stop offset="1" stop-color="#0094FF"/>
</linearGradient>
<linearGradient id="paint4_linear_73_6782" x1="12" y1="19.7305" x2="13.0673" y2="19.8083" gradientUnits="userSpaceOnUse">
<stop stop-color="#00C1EB"/>
<stop offset="1" stop-color="#0094FF"/>
</linearGradient>
<linearGradient id="paint5_linear_73_6782" x1="15.5" y1="15.7305" x2="21.8971" y2="16.2395" gradientUnits="userSpaceOnUse">
<stop stop-color="#00C1EB"/>
<stop offset="1" stop-color="#0094FF"/>
</linearGradient>
</defs>
</svg>
