<svg xmlns="http://www.w3.org/2000/svg" width="36" height="39" fill="none"><path fill="#fff" d="M22.618.23c0 .022.011.033.034.033.332.15.498.343.498.58a2.013 2.013 0 0 1-.232 1.126 1.28 1.28 0 0 0-.067.42 2.738 2.738 0 0 1-.133.579 5.295 5.295 0 0 1-.233.515c-.044.107-.1.204-.166.29a.754.754 0 0 0-.166.257 93.178 93.178 0 0 0-1.098 2.061c-.333.666-.676 1.342-1.031 2.03a3.398 3.398 0 0 0-.4.74c-.11.3-.276.569-.498.805-.2.215-.388.45-.566.708a.622.622 0 0 0-.066.29c.044.236 0 .473-.133.709s-.31.397-.532.483c-.022 0-.045.01-.067.032h-.1c0-.043.023-.075.067-.097.022-.085.044-.16.067-.225.022-.086.044-.161.066-.225.022 0 .033-.022.033-.065-.022 0-.055.022-.1.065-.377.493-.753.998-1.13 1.513-.377.494-.732 1.02-1.065 1.578a45.489 45.489 0 0 1-1.496 2.319l-1.53 2.319c-.289.45-.577.89-.865 1.32-.266.45-.543.901-.832 1.352a.436.436 0 0 0-.033.194c0 .021-.011.032-.033.032V22c-.022.021-.034.043-.034.064-.11-.043-.177-.032-.199.033a1.23 1.23 0 0 1-.067.16 5.778 5.778 0 0 1-.798 1.707 31.73 31.73 0 0 0-.998 1.61c-.088.15-.155.29-.2.42-.021.15-.055.3-.099.45l.067.064a.402.402 0 0 0 .1-.16.506.506 0 0 0 .1-.13.349.349 0 0 0 .032-.16c.023-.065.045-.119.067-.161 0-.022.011-.043.033-.065a.39.39 0 0 0 .1-.064v.193c-.067.386-.266.666-.599.837-.11.086-.2.183-.266.29a1.13 1.13 0 0 1-.2.354c0 .022.012.032.034.032.022.022.044.033.066.033h.1c-.044.043-.066.086-.066.129l-.2.322a6.303 6.303 0 0 1-.133.354c0 .043.011.064.033.064a.215.215 0 0 1 .1.097l.1-.097c.044 0 .066-.01.066-.032h.067v.097a2.088 2.088 0 0 1-.133.225 2.153 2.153 0 0 1-.233.193c-.089.086-.033.183.166.29v.129l-.133.515c-.022.193-.044.376-.066.548-.022.15-.045.29-.067.418 0 .15-.066.28-.2.387-.044.021-.155.032-.332.032a1.126 1.126 0 0 1-.266.032.607.607 0 0 0-.266.064.946.946 0 0 1-.566.194c-.177.021-.365.043-.565.064-.022 0-.055-.021-.1-.064-.044-.043-.066-.075-.066-.097l-.133-.515-.067-.451v-.87c.022-.257.033-.525.033-.805v-.16c0-.044.056-.044.167 0 0 .02.022.01.066-.033.045-.021.067-.043.067-.064 0-.065-.033-.161-.1-.29-.044.043-.067.086-.067.129l-.033.032c0 .021-.01.043-.033.064v-.096c.044-.258.078-.515.1-.773l.133-.709v-.128c-.045.043-.089.064-.133.064a.553.553 0 0 0-.067.161.515.515 0 0 1-.033-.16c0-.13.011-.237.033-.323 0 .021.033 0 .1-.064h.1c.022.021.044.032.066.032a.241.241 0 0 1-.033-.097c0-.021-.022-.053-.066-.096 0-.043-.023-.065-.067-.065-.044 0-.067-.01-.067-.032v-.129c.023-.021.034-.053.034-.096.022.021.044.032.066.032l.067.064c.044.043.077.065.1.065.022-.022.033-.054.033-.097a4.03 4.03 0 0 0 .1-.547l.066-.58c0-.064-.055-.118-.166-.161-.022-.022-.067-.032-.133-.032.044-.086.088-.13.133-.13.155-.02.244-.074.266-.16.022-.065.044-.14.066-.226l.133-1.062c.045-.322.09-.666.134-1.03a.29.29 0 0 0 0-.194.59.59 0 0 1 .033-.193c0-.022.055-.065.166-.13v.258c.022.022.033.054.033.097.023-.021.045-.032.067-.032.044 0 .089-.01.133-.032l.133-.13a.517.517 0 0 0 .133-.096c.022-.021.022-.043 0-.064 0-.022.011-.043.033-.064-.044 0-.077.01-.1.032h-.2c.023-.022.034-.054.034-.097.022-.021.033-.043.033-.064v-.033a.215.215 0 0 0 .067-.16.709.709 0 0 0-.166.128.388.388 0 0 1-.1.065c-.022.043-.033.053-.033.032a.938.938 0 0 0-.2-.161.39.39 0 0 0 .1-.064c.022-.022.055-.033.1-.033.088 0 .166-.01.232-.032.09-.021.156.021.2.129.044 0 .089-.01.133-.032l.2-.097a.576.576 0 0 1 .232-.225c.111-.043.111-.14 0-.29-.022-.022-.022-.054 0-.097.023-.021.034-.053.034-.096a.483.483 0 0 0-.067-.194c0-.021-.01-.043-.033-.064-.022 0-.033-.01-.033-.032 0-.043.022-.075.066-.097.067-.043.045-.096-.066-.16 0-.022.01-.065.033-.13a.339.339 0 0 0 .066-.193l.067.032c.089.172.144.29.166.355l.034.032c0 .021.01.032.033.032a.429.429 0 0 1 .2-.193c.11-.043.121-.14.033-.29h-.034a.402.402 0 0 0 .1-.161c.022-.065.044-.118.067-.161.022-.022.066-.022.133 0 .066.021.1.043.1.064a.515.515 0 0 1-.034.161v.13c-.044.042-.066.085-.066.128v.129c.155 0 .277.01.366.032v-.161c0-.043-.012-.075-.034-.097v-.128c.022-.043.067-.076.133-.097.067-.022.034-.054-.1-.097v-.064c.067.021.111.032.134.032.044 0 .088.01.133.032 0 .043-.011.075-.034.097v.064a.813.813 0 0 1-.033.258c-.022.107-.044.225-.066.354a.838.838 0 0 1-.067.322.349.349 0 0 1-.033.161v.097a.133.133 0 0 1 0 .129.278.278 0 0 1-.033.128.59.59 0 0 0-.034.194c0 .043.022.107.067.193a.427.427 0 0 0 .2-.097c.044-.021.066-.043.066-.064 0-.022.022-.054.066-.097.045.086.067.15.067.194 0 .15.078.171.233.064.177-.086.266-.193.266-.322 0-.108.033-.193.1-.258.088-.064.166-.129.232-.193a.835.835 0 0 0 .2-.193.474.474 0 0 0 .133-.226c.31-.687.643-1.363.998-2.029a19.78 19.78 0 0 1 1.23-1.964c.023-.021.045-.032.067-.032l.066-.064c-.022.021-.033.064-.033.128-.044.108-.1.204-.166.29a1.41 1.41 0 0 0-.133.258v.096h.033c0-.021.011-.032.034-.032h.033c.177-.172.321-.343.432-.515.111-.193.189-.408.233-.644v-.064c-.067 0-.1.01-.1.032l-.133.064-.133.065a.28.28 0 0 0 .033-.13c0-.042.011-.096.034-.16a5.09 5.09 0 0 0 .266-.355c.088-.128.188-.257.299-.386 0-.021.033-.032.1-.032v.096c.066-.021.1-.053.1-.096.42-.945.964-1.836 1.63-2.673l.033-.032c0-.022.022-.043.066-.065a.597.597 0 0 0-.166.065.23.23 0 0 1-.166.064c.066-.064.1-.107.1-.129.332-.558.665-1.095.997-1.61l.998-1.61c.155-.28.377-.601.665-.966a.243.243 0 0 0 .033-.097c0-.043.012-.096.034-.16v-.13.065c.022 0 .033.01.033.032.089 0 .133-.021.133-.064.177-.301.355-.59.532-.87.2-.3.388-.601.566-.902.066-.107.121-.214.166-.322.066-.128.133-.247.2-.354l.133-.193c.066-.086.133-.161.2-.226a.849.849 0 0 0 .265-.772c-.022-.065-.011-.14.033-.226.111-.172.222-.333.333-.483l.333-.45c.2-.323.399-.634.598-.935.2-.322.41-.633.632-.933a.23.23 0 0 1 .167-.065 1.32 1.32 0 0 0 .166-.064l.2-.097a1.86 1.86 0 0 0 .232-.097h.133ZM8.648 25.35l.034.063.067-.064c.443-.859.887-1.707 1.33-2.544l1.33-2.512a.28.28 0 0 0 .034-.129l-.067.065c-.221.257-.432.504-.632.74-.2.258-.388.516-.565.773-.377.558-.71 1.127-.998 1.707a5.396 5.396 0 0 0-.532 1.9Zm-1.063-2.738h.033c0 .021-.011.032-.034.032v.097a.242.242 0 0 1 .034.096c0 .043.022.075.066.097 0 .021.022.021.067 0 .066 0 .1-.01.1-.032v-.226c0-.021-.011-.043-.034-.064v-.032l.4-.966c-.023 0-.034-.011-.034-.033l-.066-.064a.975.975 0 0 1-.067-.193.515.515 0 0 1-.033-.161c0-.065.011-.14.033-.226.022-.086.044-.16.067-.225a3.027 3.027 0 0 0 .166-.483l.066-.129c.045-.022.045-.043 0-.064-.022-.043-.055-.065-.1-.065a.517.517 0 0 1-.132-.096.35.35 0 0 1-.034.16.278.278 0 0 0-.033.13v.193c.022.064.022.118 0 .16-.066.28-.155.591-.266.934-.022.043-.055.065-.1.065a.375.375 0 0 0-.066.096.554.554 0 0 1-.067-.16l.133-.709c.045-.215.089-.44.133-.676 0-.022-.01-.032-.033-.032v-.065c0 .022-.011.043-.033.065v.032a2.267 2.267 0 0 0-.167.225c-.088-.064-.133-.075-.133-.032v.097c.067.386-.077.687-.432.901l-.066.065c0 .021-.012.043-.034.064l-.033.064c.022.022.033.054.033.097.022-.021.045-.032.067-.032.022.021.044.032.066.032h.034c-.067.172-.111.344-.133.515v.065c.044 0 .088-.011.133-.032.022 0 .033-.011.033-.033h.066c0 .043-.01.076-.033.097v.225a.279.279 0 0 1 .033.13c.111-.065.178-.14.2-.226.022-.065.044-.14.066-.226.023-.064.09-.118.2-.16.022 0 .044-.011.067-.033h.066c0 .043-.011.075-.033.097a1.79 1.79 0 0 0-.1.322.838.838 0 0 1-.066.322Zm4.456-3.35h.134c.155-.085.232-.139.232-.16 0-.043-.055-.13-.166-.258-.022-.021-.033-.043-.033-.064-.111-.108-.21-.097-.3.032a.645.645 0 0 1-.2.225.645.645 0 0 0-.199.226c-.088.043-.144.085-.166.128v.097c.022 0 .055-.021.1-.064.066 0 .11-.011.133-.032-.022.021-.034.053-.034.096l-.266.258a.863.863 0 0 0-.166.225 1.067 1.067 0 0 0-.133.161c.044 0 .078-.01.1-.032h.133a.775.775 0 0 0 .166-.097c.111-.128.21-.257.3-.386.088-.15.188-.3.299-.45a.242.242 0 0 0 .033-.098c0-.043.011-.085.033-.128v.322ZM6.188 23.16c.133-.043.243-.075.332-.096l.333-.065c0-.021.022-.053.066-.096l-.033-.033c-.022 0-.033-.01-.033-.032-.089.043-.155.054-.2.032a.372.372 0 0 1-.066-.096 1.223 1.223 0 0 1-.067-.161c0-.043-.022-.065-.066-.065-.023-.021-.034-.043-.034-.064 0-.021-.022-.043-.066-.064-.067.064-.1.107-.1.128l-.066.194a.388.388 0 0 1-.067.225c-.022.021-.022.043 0 .064.044.043.067.086.067.13Zm6.02-4.444a.507.507 0 0 1 .1.129l.133.129h.033c.022 0 .033-.01.033-.032.11-.172.21-.333.3-.483l.332-.516-.033-.064c-.133 0-.222.021-.266.064a.214.214 0 0 0-.1.097.242.242 0 0 0-.033.097c.066.085.1.14.1.16l-.134.065a.889.889 0 0 0-.232.161.714.714 0 0 1-.233.193Zm1.862-2.544a.5.5 0 0 0-.2-.16 1.322 1.322 0 0 0-.199-.162c-.022 0-.033.01-.033.032l-.133.13-.133.128v.064a.533.533 0 0 1 .466.322c.022-.021.044-.032.066-.032.044 0 .078-.01.1-.032a.279.279 0 0 0 .033-.129c0-.043.011-.096.033-.16Zm-5.355 5.442a.924.924 0 0 0-.166-.193.375.375 0 0 1-.066.097c-.023.021-.034.054-.034.096a2.474 2.474 0 0 0-.1.387l-.066.386c-.022.022-.011.086.033.194a.375.375 0 0 1 .067-.097.215.215 0 0 0 .1-.097c.044-.214.088-.375.133-.483.044-.085.077-.182.1-.29Zm2.794-2.833-.033-.033c-.022 0-.033-.01-.033-.032h-.067l-.1.097c-.221.408-.443.805-.665 1.191v.13c.067-.065.1-.087.1-.065.11-.194.222-.376.333-.548l.332-.58c.022-.02.034-.042.034-.064a.214.214 0 0 1 .1-.096Zm2.561-3.446c-.022-.022-.033-.043-.033-.064 0-.022-.011-.043-.033-.065h-.133v.065c.022 0 .033.01.033.032 0 .021-.011.032-.033.032v.032a1.243 1.243 0 0 1-.133.29c0 .021.01.032.033.032.022-.021.089-.01.2.032l.033.065c0 .021.01.032.033.032a.324.324 0 0 0 .233-.097c-.022 0-.011-.043.033-.129h-.133c-.044 0-.078.011-.1.033h-.066c0-.065.01-.118.033-.161 0-.065.011-.108.033-.13Zm-.499 1.513a2.15 2.15 0 0 0-.232.194.584.584 0 0 0-.167.16.348.348 0 0 0-.033.162.592.592 0 0 1-.033.193h.1c.066-.108.133-.193.2-.258a.589.589 0 0 0 .199-.257.59.59 0 0 0-.034-.194Zm-1.097 1.417c-.044-.171-.067-.247-.067-.225-.088 0-.155.021-.2.064a.808.808 0 0 0-.1.194.507.507 0 0 1-.099.128v.065a.373.373 0 0 0 .067.096c.022 0 .033-.01.033-.032.066-.043.122-.086.166-.129.067-.064.133-.118.2-.16Zm.432-.805a.385.385 0 0 0-.1-.064c-.022-.022-.033-.022-.033 0-.066.021-.155.086-.266.193-.11.043-.144.097-.1.161a.22.22 0 0 1 .067.226h.066a4.96 4.96 0 0 0 .167-.226c.066-.086.133-.182.2-.29Zm1.663-2.673c.089-.021.2-.064.333-.128h.1a.26.26 0 0 1 .1-.033c0-.043-.012-.064-.034-.064a.145.145 0 0 0-.133 0c-.044 0-.078-.021-.1-.064-.066-.022-.144.01-.233.096-.066.086-.1.032-.1-.16h-.033a.507.507 0 0 0-.066.225c0 .043.055.085.166.128Zm-7.15 9.21v.355l.066-.065c.044 0 .066-.01.066-.032.045-.215.089-.45.133-.708h.034l-.034-.032c-.044 0-.066.01-.066.032l-.133.257a.98.98 0 0 1-.067.194Zm4.59-4.572-.034-.032c0 .021-.033.032-.1.032a.805.805 0 0 0-.1.193.801.801 0 0 1-.1.193v.161c.134 0 .2-.032.2-.096a.215.215 0 0 0 .067-.162c.022-.085.044-.182.066-.29Zm-.267-2.222c.022 0 .033.032.033.096h.067l.133-.128c.044-.065.078-.119.1-.162.022-.021 0-.085-.067-.193-.022.043-.055.065-.1.065-.022 0-.044.021-.066.064a.279.279 0 0 0-.033.129c0 .021-.023.064-.067.129Zm-5.621 8.115a1.06 1.06 0 0 0 .133-.161l.166-.161a.537.537 0 0 0 .034-.226h-.1c-.111.043-.178.108-.2.194a.42.42 0 0 1-.1.257c0 .022.023.054.067.097Zm3.093-3.832c0-.022-.01-.032-.033-.032 0-.022-.011-.033-.033-.033-.022 0-.034.011-.034.032-.11.043-.177.086-.2.13-.043.042-.066.107-.066.192 0 .043.023.086.067.13a.242.242 0 0 0 .033-.097c0-.022.011-.043.033-.065l.133-.129a.506.506 0 0 0 .1-.128Zm6.652-8.309c0-.021-.01-.032-.033-.032v-.064c-.022 0-.033.01-.033.032h-.067a1.69 1.69 0 0 0-.166.258c-.044.064-.1.139-.166.225l.033.032c.2-.15.344-.3.432-.45Zm-2.86 3.768c.066-.043.122-.086.166-.129.045-.064.078-.118.1-.16.044-.065.078-.119.1-.162.022-.021.033-.064.033-.129-.044 0-.077.011-.1.033a1.294 1.294 0 0 0-.166.193l-.166.16v.13c.022.021.033.043.033.064Zm1.663-2.737c.066-.022.1-.043.1-.065.177-.214.31-.418.399-.611 0-.022-.011-.043-.033-.065 0 .022-.011.032-.034.032v.033a11.75 11.75 0 0 0-.232.29c-.045.085-.111.182-.2.29v.096Zm-7.583 10.53a.42.42 0 0 1-.1-.257 59.481 59.481 0 0 1-.2.193c0 .043-.01.064-.033.064a.537.537 0 0 1-.033.226.197.197 0 0 1 .133-.13c.066 0 .11-.02.133-.063.066 0 .1-.011.1-.033Zm-.067-1.578-.1.097a.375.375 0 0 0-.066.096v.162c0 .043.01.075.033.096.133 0 .177-.043.133-.129-.022-.086 0-.15.067-.193 0-.021-.011-.043-.034-.064-.022 0-.033-.022-.033-.065Zm-.898 1.063a.506.506 0 0 0-.1.129l-.066.129c0 .021.044.075.133.16l.066-.128a.517.517 0 0 0 .133-.097c0-.021-.055-.086-.166-.193Zm.532-2.319h.033c0 .022.012.033.034.033.022 0 .044-.011.066-.033h.1v-.096a.39.39 0 0 0-.1-.065c-.044 0-.066.011-.066.032a.947.947 0 0 0-.3.29c.023 0 .034.011.034.033.022-.022.033-.043.033-.065l.1-.096c.022 0 .044-.011.066-.033Zm-.665 4.09a.214.214 0 0 0-.1-.096l-.066.128-.067.194c.022.021.033.043.033.064.067-.129.133-.225.2-.29Zm10.111-13.3-.2.193c-.021 0 0 .033.067.097a.295.295 0 0 1 .2-.161c0-.021-.011-.032-.034-.032-.022-.022-.033-.054-.033-.097Zm-.798-1.16a.372.372 0 0 1 .066-.096l.067-.129c0-.021-.011-.032-.033-.032a.39.39 0 0 0-.1.065.387.387 0 0 1-.1.064c0 .022.033.065.1.129Zm-4.524 7.6-.066-.063-.066.128c-.023.022-.034.054-.034.097-.044 0-.055.01-.033.032.022 0 .033.01.033.032.045-.043.067-.075.067-.096a.506.506 0 0 1 .1-.13Zm1.564-15.875a.864.864 0 0 0-.034.772l.333.773c.178.687.277 1.364.3 2.03a5.395 5.395 0 0 1-.267 2.028l-.133.258a2.09 2.09 0 0 0-.133.225c0 .043-.022.075-.066.097.177-.022.244 0 .2.064-.045.064-.067.118-.067.161 0 .022.01.032.033.032l.033.032c.178-.085.255-.096.233-.032l-.066.193c-.111.344-.211.688-.3 1.031-.088.322-.166.644-.232.966a2.23 2.23 0 0 0-.1.29 3.062 3.062 0 0 1-.067.225.938.938 0 0 1-.432.483c-.133.065-.255.15-.366.258-.111.086-.222.182-.333.29-.022.021-.033.054-.033.097-.11.3-.177.59-.2.869-.022.107.012.14.1.097.045-.043.089-.065.133-.065a.26.26 0 0 1 .1-.032c.022 0 .056-.01.1-.032 0 .129-.022.204-.067.225l-.133.129c-.044.043-.11.01-.2-.097-.021 0-.044.011-.066.033h-.066a.59.59 0 0 0-.034.193.35.35 0 0 1-.033.16c0 .022-.022.055-.066.097 0-.021-.011-.043-.034-.064-.022-.021-.033-.043-.033-.064v-.258l-.1.29-.2.29a.515.515 0 0 0-.033-.161.59.59 0 0 1 .034-.194l.066-.257c.045-.108.089-.204.133-.29 0-.043.034-.097.1-.161 0 .021.011.054.033.097.023.021.034.053.034.096 0 .022-.011.043-.034.065-.022.021-.033.043-.033.064.089-.043.144-.086.166-.129a.59.59 0 0 1 .034-.193c.044-.065 0-.118-.133-.161-.045-.021-.056-.064-.034-.129a.515.515 0 0 0 .034-.16c.022-.022.044-.033.066-.033.022.021.033.043.033.064 0 .022.012.043.034.065.11-.065.166-.13.166-.194.022-.085-.011-.15-.1-.193 0 .022-.033 0-.1-.064a20.201 20.201 0 0 0-.066-.064.506.506 0 0 0-.1-.13c-.022.065-.055.14-.1.226 0 .022-.022.054-.066.097v-.097c.022-.107.044-.193.066-.258a3.01 3.01 0 0 0 .067-.225c0-.043-.011-.075-.033-.097l-.034.033c0 .021-.01.032-.033.032v.032a1.234 1.234 0 0 0-.1.258 2.232 2.232 0 0 1-.1.29s-.044.02-.133.064v-.451c-.044.043-.1.086-.166.129a.52.52 0 0 0-.133.097 1.078 1.078 0 0 0-.166.128.517.517 0 0 0-.133.097c0 .021-.033.032-.1.032 0-.043.011-.064.033-.064.089-.065.167-.118.233-.161.089-.065.166-.14.233-.226a.577.577 0 0 0 .2-.29c.066-.085.121-.171.166-.257a1.69 1.69 0 0 0 .166-.258.9.9 0 0 0-.1-.418c-.022.021-.044.032-.066.032h-.1c-.089 0-.133-.011-.133-.032v-.13h.033c.022-.02.056-.02.1 0 .2.044.31-.02.333-.193.022-.107.044-.193.066-.257a1.41 1.41 0 0 0 .133-.258v-.129a.38.38 0 0 1-.166.033c-.044 0-.089.021-.133.064a.348.348 0 0 0 .033-.161c.022-.022.033-.043.033-.064 0-.022.011-.043.034-.065 0-.064-.011-.107-.034-.129-.022 0-.044.011-.066.033h-.067c-.044.043-.077.064-.1.064-.221-.107-.365-.064-.432.129h-.066c0-.043-.011-.075-.034-.097-.022-.021-.033-.043-.033-.064-.022.021-.033.053-.033.096 0 .13.01.194.033.194.155.043.21.085.166.128a1.559 1.559 0 0 1-.1.161c-.066.043-.1.086-.1.13l-.299.675c0 .043-.033.065-.1.065-.177-.022-.243.01-.199.096.067.086.089.14.067.162a.278.278 0 0 0-.034.128v.13c0 .042.023.064.067.064h.166c-.088.021-.144.064-.166.128a.375.375 0 0 0-.067.097c0 .021-.022.043-.066.064a1.23 1.23 0 0 0-.067.161c0 .065-.033.043-.1-.064-.155.086-.254.182-.299.29a.704.704 0 0 0-.1.225.703.703 0 0 1-.1.226.59.59 0 0 1-.033.193v.16l-.066.13-.133.129c-.045.021-.045.075 0 .16 0 .043-.011.076-.033.097v.065l-.034-.033c0-.021-.01-.043-.033-.064h-.1a.717.717 0 0 1-.133.258c0 .064-.033.107-.1.128-.022 0-.033-.01-.033-.032v-.16l.067-.13c.022-.064.044-.14.066-.225l-.033-.032a1.855 1.855 0 0 0-.3.29l-.332.644c-.11.214-.222.44-.333.676-.155.365-.321.708-.498 1.03a.371.371 0 0 1-.134.13.419.419 0 0 0-.166.096.522.522 0 0 1-.133.096c-.044 0-.022.043.067.13-.023.02-.034.042-.034.064v.064c-.022.022-.066.032-.133.032-.11.043-.166.076-.166.097v.096c.022 0 .033.022.033.065.045.086.067.14.067.161a.803.803 0 0 0-.1.193.695.695 0 0 1-.133.161c-.044.043-.122.065-.233.065h-.133a1.222 1.222 0 0 0-.133.354c0 .043.011.086.033.129.023.021.023.053 0 .096a.838.838 0 0 1-.332.548 3.7 3.7 0 0 0-.466.386l-.1.097c-.022.043-.022.075 0 .096.022.108.011.161-.033.161H3.66c-.111-.021-.222.011-.333.097-.089.086-.133.172-.133.258 0 .107-.011.171-.033.193a.643.643 0 0 0-.3.29c-.044.15-.155.247-.332.29l-.033.032c.11.107.122.171.033.193a.42.42 0 0 0-.166.097c-.178.3-.355.59-.533.869-.2.3-.399.59-.598.87 0 .021-.034.032-.1.032l-.033.032c-.022.021-.045.032-.067.032a.242.242 0 0 0-.033.097c0 .021-.022.053-.067.096a.421.421 0 0 1-.166.097C.788 24.04.8 23.986.8 23.9a.39.39 0 0 0 .1-.064v-.194c-.022.022-.044.032-.066.032a.375.375 0 0 0-.067.097l-.1.097a.35.35 0 0 1-.033-.161v-.355A.506.506 0 0 0 .5 23.03c0-.064.011-.107.033-.128A.57.57 0 0 0 .7 22.58a.387.387 0 0 1 .232-.29c.023-.022.034-.043.034-.065 0-.021.01-.043.033-.064H.932l-.066.064v-.128c.022-.172.066-.333.133-.484.044-.15.155-.29.333-.418.022 0 .033-.022.033-.064-.045-.108-.033-.237.033-.387a.68.68 0 0 1 .233-.322.835.835 0 0 0 .2-.193l.132-.193c.067-.172.145-.333.233-.484l.266-.515a.278.278 0 0 0 .034-.129v-.16c-.023-.065 0-.13.066-.194.067-.064.122-.096.166-.096.09 0 .156-.043.2-.13 0-.02-.011-.031-.033-.031v-.065c-.022-.021-.045-.032-.067-.032-.022 0-.044-.021-.066-.064.044-.043.088-.065.133-.065.11-.021.122-.075.033-.16v-.13h.033c.022 0 .034-.01.034-.032h.1c.021 0 .033-.01.033-.032.11-.172.21-.333.299-.483.089-.172.166-.344.233-.515a.584.584 0 0 1 .166-.161c.067-.065.055-.15-.033-.258-.045-.043-.045-.107 0-.193.066-.086.122-.15.166-.193.089-.108.177-.204.266-.29.089-.108.178-.226.266-.354.045-.043.056-.086.034-.13 0-.042.01-.096.033-.16.088-.215.144-.365.166-.451.067-.15.122-.29.166-.419.045-.129.078-.258.1-.386.022-.15.067-.28.133-.387.244-.493.5-.977.765-1.449.288-.472.555-.955.798-1.45.31-.579.6-1.158.865-1.738.288-.601.588-1.213.898-1.836a22.98 22.98 0 0 1 1.131-2.06 1.94 1.94 0 0 0 .3-.741c.066-.28.121-.548.166-.805 0-.237.133-.387.399-.451.222-.043.432-.075.632-.097l.665-.129c.466-.064.665.161.599.677Zm-1.43 8.212a1.226 1.226 0 0 0-.067-.162v-.128l-.1.096a.375.375 0 0 0-.066.097l-.133.386a2.9 2.9 0 0 1-.1.354c0 .043.011.065.033.065.022 0 .045-.01.067-.032.066-.13.122-.247.166-.355l.2-.322Zm-6.786 7.503v-.258l-.066.065c-.022 0-.044.01-.067.032-.088.086-.2.214-.332.386a.278.278 0 0 0-.034.13.278.278 0 0 1 .034.128c.022-.022.055-.032.1-.032.044 0 .066-.011.066-.032a.406.406 0 0 0 .166-.226.75.75 0 0 1 .133-.193Zm-.465 1.03c.11-.085.21-.15.3-.193.088-.064.165-.118.232-.16l.1-.194c.022-.064.088-.097.2-.097.021 0 .033-.01.033-.032a.385.385 0 0 1 .1-.064.42.42 0 0 1-.234-.065c-.066-.064-.121-.043-.166.065l-.133.193a1.061 1.061 0 0 0-.133.16.52.52 0 0 1-.133.098c-.044.021-.1.053-.166.096v.193Zm1.264-1.674.066.064.3-.193v-.064a.303.303 0 0 0-.134.032l-.133.064h-.066c-.11-.064-.189-.064-.233 0a.803.803 0 0 0-.1.193 2.455 2.455 0 0 0-.133.322l.133-.128.133-.13c.023-.042.045-.064.067-.064l.1-.096Zm6.186-5.861.033-.032c.023 0 .045-.011.067-.033-.022-.021-.033-.043-.033-.064 0-.021-.011-.043-.034-.065v-.096c0-.107.011-.183.034-.226-.111.065-.178.108-.2.13-.089.085-.11.171-.066.257l.2.129Zm1.131-2.094c.022 0 .033.011.033.033v.064a.35.35 0 0 0-.033.161.403.403 0 0 0 .1-.16c0-.022.01-.033.033-.033.022 0 .033-.01.033-.032v-.13a.59.59 0 0 0 .034-.192h-.1a1.224 1.224 0 0 1-.067.16.278.278 0 0 1-.033.13Zm-7.317 7.407.133-.064.133-.064-.1-.097a1.31 1.31 0 0 0-.2.16c.023.022.034.044.034.065Zm5.853-5.281-.132-.129a.377.377 0 0 1-.067.097.372.372 0 0 0-.067.096c0 .043.012.075.034.097a.392.392 0 0 0 .1-.064.522.522 0 0 0 .133-.097Zm.3-1.707c0-.043-.022-.075-.067-.096l-.066.128a.346.346 0 0 0-.067.13c-.022 0-.01.02.034.064a.373.373 0 0 1 .066-.097.506.506 0 0 1 .1-.129Zm-5.92 5.861c-.045-.043-.067-.075-.067-.096-.11.064-.177.128-.2.193l.034.064c.044-.043.077-.064.1-.064a.522.522 0 0 0 .132-.097Zm.232.548a.388.388 0 0 1-.1-.065v-.032c-.044 0-.077.021-.1.064a.39.39 0 0 1-.099.065l.066.064a.26.26 0 0 1 .1-.032l.133-.064Zm4.025-1.224a.855.855 0 0 0-.033.193.279.279 0 0 1-.034.129c0 .064-.044.14-.133.225a1.06 1.06 0 0 0-.133-.16.508.508 0 0 1-.1-.13c-.022-.085-.01-.203.034-.354 0-.021.01-.032.033-.032a.388.388 0 0 0 .1-.064.982.982 0 0 1 .133-.097c0-.021-.011-.032-.033-.032-.023-.022-.034-.043-.034-.065.089 0 .133.022.133.065.022.086.034.15.034.193 0 .043.01.086.033.129Zm7.317-2.705c.133-.086.244-.172.333-.258a.86.86 0 0 1 .166-.225.754.754 0 0 0 .166-.258.508.508 0 0 0 .1-.129.801.801 0 0 1 .1-.193l.067-.064c0 .021.01.043.033.064.022 0 .033.022.033.064v.033c-.022.021-.044.032-.066.032-.111.172-.233.354-.366.547-.111.172-.233.344-.366.516 0 .043-.056.064-.167.064a.859.859 0 0 0-.033-.193Zm-7.65 12.044v-.097c.111-.171.2-.343.266-.515.089-.172.189-.343.3-.515.022-.022.044-.032.066-.032.022 0 .045-.011.067-.033v.065c.022.021.033.043.033.064a8.892 8.892 0 0 0-.233.354c-.044.108-.11.226-.2.355a1.734 1.734 0 0 0-.1.225.711.711 0 0 1-.166.129h-.033Zm2.76-12.173c.09.107.09.193 0 .258a.857.857 0 0 0-.165.225 1.782 1.782 0 0 0-.1.322c0 .107-.011.215-.034.322-.022.022-.033.043-.033.065 0 .021-.022.043-.066.064v-.161a.918.918 0 0 0 .066-.354c0-.13.022-.258.067-.387.044-.15.11-.29.2-.418l.066-.065v.129Zm-2.893 2.287a.724.724 0 0 0 .067-.258c.022-.086.055-.172.1-.258 0-.021.022-.032.066-.032a.38.38 0 0 0 .166-.032.303.303 0 0 1 .133-.032c.045 0 .034-.054-.033-.161-.022-.043-.011-.086.033-.13.045-.042.09-.085.133-.128 0-.021.011-.032.034-.032v.064a.838.838 0 0 0-.067.322c.022.107-.055.183-.233.226a.376.376 0 0 0-.066.096c0 .022-.022 0-.067-.064l-.066.129c0 .021-.011.043-.034.064v.065l-.066.064a.372.372 0 0 0-.067.097v.096c0-.021-.01-.032-.033-.032v-.064Zm1.397-3.961-.2.128a1.295 1.295 0 0 0-.166.065.854.854 0 0 1-.2.096l-.132.065c-.045.043-.078.064-.1.064 0-.021-.011-.032-.033-.032v-.065l.066-.128.067-.194.033-.064c.11.065.2.075.266.032s.122-.086.166-.129c.022 0 .045.011.067.033a.713.713 0 0 0 .166.129Zm-2.66 6.633c-.023.022-.034.054-.034.097a1.79 1.79 0 0 0-.1.322 2.228 2.228 0 0 1-.1.29c0 .107-.01.172-.033.193a1.855 1.855 0 0 1-.233.097c.023-.043.045-.065.067-.065a.372.372 0 0 0 .066-.096v-.226l-.066-.193c-.022-.086.033-.15.166-.193.045 0 .078-.022.1-.065a.403.403 0 0 1 .1-.16c0-.022.022-.033.066-.033v.032Zm8.946-4.218c0 .021-.022.043-.066.064-.089.15-.189.3-.3.451-.088.15-.188.311-.299.483 0 .022-.055.054-.166.097l.066-.13c.111-.17.211-.321.3-.45.11-.15.221-.311.332-.483l.133-.065v.033Zm-7.616 3.864-.067.193-.066.13a6.129 6.129 0 0 1-.067.289c-.022.064-.044.15-.066.258l-.067.064c0 .021-.011.043-.033.064h-.033c0-.043-.011-.064-.034-.064-.022-.021-.01-.054.034-.097.066-.3.166-.58.299-.837 0-.021.022-.075.066-.16 0 .064.012.117.034.16Zm-.699-2.737c-.022.129-.044.247-.066.354l-.067.322a1.06 1.06 0 0 1-.133.161c-.022-.021-.033-.075-.033-.16.044-.108.078-.205.1-.29.022-.108.055-.215.1-.323 0-.043.022-.086.066-.129l.033.065ZM7.12 19.198a.26.26 0 0 0-.1.032c-.022.022-.044.033-.066.033l-.2.064c-.022 0-.055.021-.1.064v-.128a.731.731 0 0 1 .1-.194c.022-.043.044-.064.067-.064a.385.385 0 0 0 .1-.064c.044.085.11.171.199.257Zm2.461-.966a2.898 2.898 0 0 0-.166.387 3.713 3.713 0 0 1-.1.418l-.033.033h-.067l-.033-.065c.044-.15.089-.29.133-.419.044-.15.089-.279.133-.386 0-.064.033-.097.1-.097 0 .086.011.13.033.13Zm-.665-3.091a1.571 1.571 0 0 1-.1.16c-.022.065-.044.14-.066.226l-.034.032c0-.021-.01-.032-.033-.032v-.032c.022-.15.044-.29.067-.419.022-.15.055-.3.1-.45l.1-.097v.129a2.583 2.583 0 0 0-.034.483ZM6.52 16.493a5.12 5.12 0 0 0 .166-.225c.045-.086.1-.172.167-.258.022-.021.055-.032.1-.032v.129c-.045.064-.1.14-.167.225-.044.065-.088.14-.133.226 0 .043-.033.064-.1.064 0-.021-.01-.032-.033-.032v-.097Zm4.324.74c.022-.107.033-.203.033-.289 0-.086.011-.182.034-.29 0-.021.022-.053.066-.096v.128c0 .086-.011.172-.033.258 0 .064-.011.15-.033.258 0 .021-.011.043-.034.064v.097c-.022-.022-.033-.054-.033-.097v-.032Zm-3.193-1.416a.838.838 0 0 0-.066.322c0 .086-.012.172-.034.258l-.033.032v.032l-.1-.097c.022-.107.045-.204.067-.29a6.07 6.07 0 0 0 .066-.29c.022 0 .034-.01.034-.032 0-.021.01-.032.033-.032l.033.065v.032Zm-.998 4.766a2.3 2.3 0 0 1-.3.258c-.066-.065-.088-.108-.066-.13a.506.506 0 0 1 .1-.128.522.522 0 0 0 .133-.097c.022 0 .045.011.067.033l.066.064ZM8.05 18.49c.044-.065.089-.118.133-.161.045-.065.089-.14.133-.226v.097l-.066.193c-.022.065-.045.15-.067.258-.066-.022-.11-.075-.133-.161Zm.832 1.868a.515.515 0 0 0 .033-.161c0-.043.011-.086.033-.13 0-.02.011-.031.033-.031.023 0 .034-.011.034-.033a.388.388 0 0 1 .1.065c.022.021.022.032 0 .032a.749.749 0 0 1-.167.354l-.033.032c0-.021-.011-.043-.033-.064v-.064Zm.798-7.922c0-.043.022-.065.066-.065a.589.589 0 0 1 .2-.258.514.514 0 0 1-.033.162.279.279 0 0 0-.034.128c-.022 0-.033.022-.033.065-.044.043-.066.075-.066.096-.067-.064-.1-.107-.1-.128Zm-.067 7.374-.133.193a.507.507 0 0 1-.1.13c-.044-.044-.055-.076-.033-.097a.804.804 0 0 1 .2-.323c.022.022.033.043.033.065l.033.032Zm1.564-3.832a.517.517 0 0 0-.034.16.279.279 0 0 1-.033.13c0 .021-.022.043-.066.064-.023 0-.045.01-.067.032v-.16c0-.087.033-.162.1-.226a.503.503 0 0 0 .1-.129v.129Zm-2.528.547a1.752 1.752 0 0 0-.166.355l-.034.032c0-.022-.01-.032-.033-.032v-.033c0-.15.011-.247.033-.29 0-.042.011-.075.034-.096.022-.021.033-.054.033-.097a.375.375 0 0 0 .066.097l.067.064Zm0 .806a3.398 3.398 0 0 1-.2.29 3.95 3.95 0 0 1-.2.257l-.033.032h-.033v-.032c0-.021.011-.043.033-.064a.241.241 0 0 0 .034-.097l.066-.129c.022-.021.045-.032.067-.032a.376.376 0 0 0 .066-.097c.045-.043.078-.064.1-.064a.39.39 0 0 0 .1-.064Zm.798-3.124-.066-.065c.044 0 .088-.01.133-.032h.033c.022-.021.044-.032.066-.032.023-.021.034-.043.034-.064.022-.043.055-.065.1-.065l.1.097a.39.39 0 0 0-.1.064c0 .022-.023.043-.067.065a.303.303 0 0 1-.133.032c-.022-.022-.056-.022-.1 0Zm-1.83 3.027c.045-.065.078-.118.1-.161a.505.505 0 0 0 .1-.129c.067 0 .078.021.034.064a3.304 3.304 0 0 1-.167.355l-.066-.13Zm.7 11.271v.258c0 .021-.012.032-.034.032v.064c-.044-.043-.067-.086-.067-.129.023-.107.034-.204.034-.29.022-.064.044-.15.066-.257v-.032l.034.032v.322h-.034Zm1.962-12.463a.504.504 0 0 1-.1.13c0-.022-.011-.033-.033-.033-.023-.021-.034-.054-.034-.097.045-.086.089-.193.133-.322v.194a.279.279 0 0 1 .034.128Zm1.097-2.512a.596.596 0 0 1-.166.065.302.302 0 0 0-.133-.032.262.262 0 0 1-.1-.033c.067-.064.111-.096.133-.096.067 0 .144.021.233.064l.033.033Zm-.499.548c.045-.043.067-.075.067-.097a.378.378 0 0 1 .066-.096.892.892 0 0 1 .266-.033.422.422 0 0 0-.166.097.691.691 0 0 1-.133.161c0 .043-.022.065-.066.065 0-.043-.011-.076-.034-.097ZM8.65 17.33c.044-.15.089-.247.133-.29 0 .021.055 0 .166-.065v.097a1.196 1.196 0 0 1-.3.258Zm1.364-1.289c-.023.086-.067.14-.134.161 0-.043-.01-.075-.033-.096v-.13c0-.02.033-.053.1-.096 0 .022.022.075.066.161Zm-2.695.709a.773.773 0 0 1 .2-.097l.033.032a1.571 1.571 0 0 0-.1.161l-.1.097c0-.021-.01-.043-.033-.064v-.13Zm.699-.097-.133.065c-.022 0-.045.01-.067.032l-.066-.032c.088-.086.166-.15.233-.194 0 .043.01.086.033.13Zm1.297-2.157a.39.39 0 0 1-.1.064c-.022 0-.044.01-.066.032l-.034-.064a.279.279 0 0 0 .034-.129l.066-.129c.045.043.067.086.067.129 0 .021.01.054.033.097Zm-2.328 1.159c-.022-.022-.022-.032 0-.032.022-.022.033-.043.033-.065.022-.021.056-.032.1-.032a.605.605 0 0 1 .266-.064v.032a.428.428 0 0 1-.2.097.366.366 0 0 0-.2.064Zm.798-.29a.508.508 0 0 1-.1.129l-.066.064-.034-.064c.067-.107.122-.183.167-.225v.064c.022 0 .033.01.033.032Zm.898 2.254a.241.241 0 0 0 .033-.096.375.375 0 0 0 .067-.097c0 .021.011.054.033.097.022.021.033.043.033.064a.747.747 0 0 0-.133.193.349.349 0 0 0-.033-.16Zm-1.696 3.188-.1.097-.133-.129.033-.032c.022-.021.045-.032.067-.032.022 0 .033.01.033.032a.385.385 0 0 0 .1.064Zm-.133-.386a.388.388 0 0 1-.1-.064c0-.022.011-.033.033-.033.111-.107.189-.193.233-.257 0 .021.011.032.033.032.023.021.011.032-.033.032l-.066.129a.402.402 0 0 1-.1.161Zm2.827-1.578c.044.064.066.107.066.129a.506.506 0 0 0-.1.129.242.242 0 0 1-.033.096l-.033-.064a.279.279 0 0 0 .033-.129c.023-.043.045-.097.067-.161Zm-1.13-4.605a.743.743 0 0 1-.1.161h-.067c-.022 0-.033-.01-.033-.032l.133-.194.066.065Zm.764-.226-.033-.032c0-.021-.011-.043-.033-.064l-.034-.032c.045-.043.078-.065.1-.065a.388.388 0 0 1 .1-.064l.033.064a.376.376 0 0 1-.066.097c0 .021-.023.054-.067.097Zm.665 3.64-.066.064c-.022 0-.045.021-.067.064-.044-.043-.055-.064-.033-.064 0-.022.022-.075.066-.161a.215.215 0 0 1 .1.096ZM23.715 38.23l-.4-.064a3.18 3.18 0 0 1-.432-.032h-.133c.133-.043.233-.065.3-.065.155-.043.199-.118.133-.225a.348.348 0 0 1-.034-.161.278.278 0 0 0 .034-.129c0-.086-.012-.172-.034-.257v-.29a1.667 1.667 0 0 1-.033-.387c0-.021.011-.032.033-.032.111-.043.144-.107.1-.193a.263.263 0 0 1 .033-.226c.023-.021.034-.064.034-.128 0-.065.01-.108.033-.13 0 .044.01.076.033.097l.033.033.034-.065v-.418l.066-.387.1-.096c.022-.022.033-.043.033-.065l.067-.064c.022-.108.033-.204.033-.29s.011-.172.033-.258l.133-.515c.045-.172.1-.344.166-.515a6.11 6.11 0 0 1 .067-.29l.133-.258.033-.032.034.032v.13h.033c0 .02.011.031.033.031.022-.021.033-.043.033-.064 0-.258.078-.472.233-.644v-.226l.067.033.033.032c0 .021.011.043.033.064v-.064c.022 0 .034-.01.034-.032l.066-.194c.022-.064.044-.118.067-.16a.278.278 0 0 0-.034-.13l-.066-.128-.034-.032c-.044-.043-.033-.065.034-.065l.066.032c.023.086.056.097.1.033.022-.022.067-.033.133-.033l.067-.064v-.193a.517.517 0 0 0 .033-.161c0-.043-.033-.097-.1-.161-.022.021-.055.032-.1.032a.375.375 0 0 0-.066.096.403.403 0 0 0-.1.161.215.215 0 0 1-.066.162c0 .021-.034.032-.1.032l.066-.065.067-.193c.022-.043.055-.096.1-.16.066-.173.2-.312.399-.42a.508.508 0 0 0 .1-.128.278.278 0 0 0 .033-.13.372.372 0 0 0 .066-.096.505.505 0 0 1 .1-.129v.13l.033.031c0 .022.011.033.034.033a.523.523 0 0 1 .2-.065l-.1-.096a.696.696 0 0 1-.134-.161c.067-.065.1-.086.1-.065a.805.805 0 0 0 .1-.193l.066-.129c.045-.129.078-.258.1-.386a.506.506 0 0 1 .2-.322l.033-.033v-.064c.022 0 .033-.01.033-.032 0 .043.011.075.034.096 0 .086-.023.15-.067.194l-.067.193a2.236 2.236 0 0 0-.1.29c0 .086-.01.182-.033.29 0 .043-.01.064-.033.064-.022.021-.033.043-.033.064-.067.065-.089.108-.067.13.045.042.056.096.034.16l-.067.193a.339.339 0 0 1-.066.194.802.802 0 0 1-.1.193c0 .021-.011.032-.033.032v.064a1.79 1.79 0 0 0-.1.322.92.92 0 0 1-.067.355v.193c.022 0 .033.01.033.032l-.066.129a.278.278 0 0 1-.033.129l.033.032c.022.021.066.032.133.032-.044.043-.044.086 0 .129.067.064.044.118-.067.161-.044.043-.066.118-.066.226-.044.085-.055.15-.033.193.044.064.055.14.033.225a1.026 1.026 0 0 0-.033.258v.225l-.034-.032a2.315 2.315 0 0 1-.1-.258c0-.021-.01-.043-.033-.064-.044 0-.066.01-.066.032a1.744 1.744 0 0 0-.1.226.557.557 0 0 1-.066.257l.033.032h.1v-.257l.033-.065c.022.022.033.043.033.065 0 .064.022.118.067.16.044.065.033.13-.034.194a.505.505 0 0 0-.1.129l-.066.129a1.487 1.487 0 0 0-.033.354l-.033.032c0 .022-.011.043-.034.065a.706.706 0 0 1-.1.225c-.044.064-.044.15 0 .258a.278.278 0 0 1-.033.128 1.233 1.233 0 0 1-.066.161.717.717 0 0 0-.133.258v.258c0 .107-.045.171-.133.193-.023 0-.045.032-.067.096a.349.349 0 0 1-.033.161.916.916 0 0 0-.033.226c0 .064-.011.14-.034.225a.375.375 0 0 1-.066.097.373.373 0 0 0-.067.096.859.859 0 0 0-.166.226c-.044.129-.1.247-.166.354l-.133.387c-.089.107-.067.15.066.128a.428.428 0 0 1 .233 0c.089.022.189.011.3-.032.044-.043.1-.053.166-.032a.844.844 0 0 0 .2.097c-.156.043-.311.075-.466.096-.133.043-.278.086-.433.13-.022.02-.044.031-.066.031-.022 0-.045.011-.067.032h-.066Zm.432-4.701v.032c.022.021.033.043.033.064l.067-.064c.022-.086.055-.193.1-.322v-.032h-.034a2.213 2.213 0 0 0-.166.322Zm1.098-.709.1.097.033-.032v-.032c0-.022-.011-.043-.034-.065-.022 0-.044-.021-.066-.064a.242.242 0 0 1-.033.096Zm2.727-11.625v-.483.837c.288-.515.4-1.041.333-1.578.221-.966.443-1.921.665-2.866.222-.945.454-1.9.698-2.866a3.384 3.384 0 0 1-.2.29c-.044.064-.088.14-.132.225.443-1.46.865-2.898 1.264-4.315a453.67 453.67 0 0 1 1.297-4.348A23.3 23.3 0 0 1 30.6 7.508c-.466.473-.81.988-1.032 1.546l.134-.129.133-.193c.022-.021.044-.032.066-.032v.032l.067.065.033.032c.022 0 .044.01.066.032-.066.064-.11.097-.133.097a.324.324 0 0 0-.2.128.503.503 0 0 1-.099.13v.031l-.1.097c0 .022-.022.054-.066.097v-.097a.28.28 0 0 0 .033-.129c0-.064-.011-.096-.033-.096h-.133v.064l-.067.129-.066.129a.278.278 0 0 1-.034.128v.13a.508.508 0 0 0-.1.128c-.044.086-.1.172-.166.258-.044.086-.1.182-.166.29.044 0 .067.01.067.032a.197.197 0 0 1 .133-.13l.1-.096v.13a.372.372 0 0 1-.067.096.377.377 0 0 0-.067.096c-.044.043-.044.075 0 .097.045.043.023.107-.066.193l-.166.161c-.067.043-.1.086-.1.129 0 .086-.023.15-.067.193a1.066 1.066 0 0 0-.133.161c0 .022-.01.043-.033.065 0-.022-.011-.033-.033-.033v-.032l.1-.386c0-.022.022-.032.066-.032.022-.022.044-.033.067-.033a.378.378 0 0 0 .066-.096c.044-.043.067-.075.067-.097 0-.043.01-.086.033-.129v-.096c-.045 0-.078.01-.1.032a.504.504 0 0 0-.1.129c-.022.043-.066.053-.133.032-.022.021-.033.054-.033.097 0 .042-.011.075-.033.096 0-.043-.011-.064-.034-.064l-.066-.032c-.177.042-.288.16-.333.354-.044.172-.088.365-.133.58a1.298 1.298 0 0 1-.2.58c-.088.17-.277.268-.565.289-.088.021-.233.183-.432.483-.178.3-.388.687-.632 1.16-.244.472-.499.987-.765 1.545a37.081 37.081 0 0 1-.732 1.578c-.222.494-.421.934-.599 1.32-.177.387-.299.645-.365.773a65.01 65.01 0 0 1-.965 1.675 13.475 13.475 0 0 1-1.098 1.578 2.73 2.73 0 0 1-.598.483c-.222.15-.433.236-.632.258-.178.043-.3-.011-.366-.162-.044-.128.033-.386.233-.772v-.13c0-.107.01-.16.033-.16.066-.043.1-.086.1-.129v-.097a.349.349 0 0 0 .033-.16.403.403 0 0 1 .1-.162c.022-.064 0-.107-.067-.129-.11-.02-.155-.096-.133-.225a.538.538 0 0 0 .034-.225c-.023-.15.044-.269.2-.355.199-.107.32-.31.365-.611.044-.15.089-.29.133-.42l.133-.45a78.282 78.282 0 0 1 1.197-4.122c.2-.623.389-1.245.566-1.868.2-.644.41-1.277.632-1.9l-.133.065a.26.26 0 0 0-.1.032l.2-.451c.066-.15.144-.3.232-.45l-.1.096c.267-1.052.533-2.083.799-3.092 0-.043-.011-.075-.033-.096v-.097l-.1.097h-.034l-.033-.033.067-.064v-.097l-.067.065-.133.129-.133.128v.258c0-.021-.01-.043-.033-.064 0 .021-.011.032-.033.032v.032c0 .086-.011.15-.034.193a.94.94 0 0 1-.2.161h-.032v-.064a.377.377 0 0 1-.067.097c-.022.021-.033.042-.033.064.066.064.055.14-.034.225-.11.15-.221.29-.332.419-.11.107-.21.247-.3.419-.199.365-.465.89-.798 1.578-.31.665-.632 1.341-.964 2.028-.333.666-.621 1.246-.865 1.74-.244.493-.377.74-.4.74-.154-.043-.365.107-.631.45a13.98 13.98 0 0 0-.765 1.225c-.266.45-.51.89-.732 1.32-.221.43-.388.698-.499.805a5.925 5.925 0 0 0-.499.547l-.532.516c-.288.236-.565.43-.831.58l-.333.128a.535.535 0 0 1-.366 0c-.2-.043-.332-.096-.399-.16-.066-.044-.11-.13-.133-.258-.022-.13.011-.269.1-.419l.2-.258c.044-.107.1-.214.166-.322.266-.472.543-.944.831-1.417.266-.472.555-.923.865-1.352.554-.794 1.186-1.728 1.896-2.802a438.111 438.111 0 0 1 2.262-3.285c.798-1.116 1.574-2.19 2.328-3.22A48.329 48.329 0 0 1 24.712 4.9c.09-.107.167-.204.233-.29.067-.107.144-.215.233-.322.111-.15.189-.3.233-.45l.2-.516c.088-.172.166-.408.232-.708.023-.043.078-.086.167-.13a.29.29 0 0 1 .266 0 2.7 2.7 0 0 0 .399.097c.155.022.3.054.432.097a.427.427 0 0 1 .2.097l.2.128a.52.52 0 0 1 .132.097c.2.172.267.397.2.676-.244.902-.488 1.825-.732 2.77a25.096 25.096 0 0 1-.798 2.673.278.278 0 0 1-.033.128c-.022.043-.078.054-.167.033 0 .021-.01.043-.033.064l-.033.064-.067.033c.023 0 .034.01.034.032h.033c.022.021.044.032.066.032a.266.266 0 0 0 0 .258c.045.064.023.14-.066.225a.215.215 0 0 0-.1.097c0 .021-.033.01-.1-.033-.088 0-.133.033-.133.097a2.227 2.227 0 0 0-.166.322l-.133.322a.348.348 0 0 0-.033.161.278.278 0 0 1-.034.129l-.2.58c0 .043-.021.075-.066.096-.022 0-.033.022-.033.065a.946.946 0 0 0-.033.29v.096a.406.406 0 0 0-.166.226 1.229 1.229 0 0 1-.1.257 1.756 1.756 0 0 0-.167.354.541.541 0 0 0 .034.322c.022.022.044.022.066 0 .111-.085.2-.171.266-.257.089-.086.111-.215.067-.387l.033.033c.022 0 .044.01.067.032 0-.043.01-.075.033-.097 0-.043.011-.075.033-.096.089-.043.166-.14.233-.29 0-.043.011-.075.033-.097a.214.214 0 0 0 .1-.097l.033-.032c0-.021.011-.043.033-.064.045-.064.111-.183.2-.354v-.065c.022-.021.033-.043.033-.064 0-.043.011-.065.034-.065a12.057 12.057 0 0 0 1.995-2.286 40.298 40.298 0 0 1 1.796-2.447c.444-.623.876-1.235 1.297-1.836a94.96 94.96 0 0 1 1.298-1.868c.177-.257.343-.537.498-.837.178-.3.366-.558.566-.773.2-.236.421-.386.665-.45.244-.065.555.01.931.225a.95.95 0 0 1 .366.354c.111.236.178.472.2.708.022.086.011.236-.033.451a21.898 21.898 0 0 1-.466 2.898c-.222.945-.477 1.9-.765 2.867a144.72 144.72 0 0 1-.898 2.898c-.31.945-.599 1.878-.865 2.802 0 .107-.01.204-.033.29v.29c-.732.708-1.076 1.545-1.031 2.511l-.566.548c-.2.193-.388.386-.565.58-.066.064-.133.214-.2.45-.066.215-.133.45-.2.708-.044.258-.088.505-.132.741a2.847 2.847 0 0 1-.133.515v.065c.022 0 .044-.01.066-.032l.1-.097a.483.483 0 0 1-.066.193.374.374 0 0 1-.067.097.278.278 0 0 1-.033.129.241.241 0 0 0-.034.096.28.28 0 0 1-.033.13l-.033.031-.1-.096.1-.483v-.29c-.089.043-.133.075-.133.096-.044.065-.067.119-.067.161a.59.59 0 0 1-.033.194l-.033.032-.067.064c0 .022-.022.043-.066.065 0-.043-.011-.076-.033-.097v-.096c0-.086.01-.14.033-.162-.022.043-.045.065-.067.065a.242.242 0 0 1-.033.096c-.044.172-.089.29-.133.355a1.91 1.91 0 0 1-.166.547.918.918 0 0 0-.034.226.692.692 0 0 1-.033.225c0 .021-.01.032-.033.032v.065a3.772 3.772 0 0 1-.133.29.54.54 0 0 0-.033.322c0 .064-.022.139-.067.225-.11.3-.2.569-.266.805-.022.15-.055.29-.1.419l-.133.45a.92.92 0 0 0-.033.226c0 .086-.011.172-.033.258-.045.171-.1.332-.167.483-.044.15-.1.31-.166.483v.096c0 .043-.022.086-.066.129a20.201 20.201 0 0 1-.067-.064c-.022 0-.044-.022-.066-.065 0-.043.022-.129.066-.257h-.066c-.111.365-.211.719-.3 1.062-.066.344-.155.698-.266 1.063h-.033v-.097c.022 0 .033-.021.033-.064v-.097c.022 0 .033-.01.033-.032 0-.107.023-.268.067-.483v-.097h-.033l-.034.033c0 .021-.01.043-.033.064l-.1.193c0 .022-.01.033-.033.033v.032c.089.043.11.086.067.129-.045.064-.045.118 0 .16-.023 0-.034.011-.034.033v.064c0-.043-.01-.075-.033-.096a.197.197 0 0 0-.133-.13c0 .044-.011.076-.033.097a2.121 2.121 0 0 1-.266.322h-.067v-.128l.067-.13a.375.375 0 0 0 .066-.096c.111-.107.133-.214.067-.322V27.7c0-.021.01-.043.033-.064l.2-.483a1.03 1.03 0 0 0 .033-.258c0-.064.01-.14.033-.226a.59.59 0 0 0 .033-.193.59.59 0 0 1 .034-.193c.022 0 .033-.01.033-.032 0 .021.01.043.033.064v.032c.022.022.033.043.033.065.023-.022.034-.054.034-.097v-.29h.033c.11-.043.144-.128.1-.257a1.858 1.858 0 0 1-.034-.419c0-.021.023-.054.067-.096.022 0 .033-.011.033-.033.178-.665.377-1.33.599-1.996.222-.644.355-1.32.399-2.03Zm3.858-7.246a.378.378 0 0 0-.066.097c0 .021-.011.032-.034.032-.088.064-.122.14-.1.225.023.022.034.043.034.065 0-.043.011-.065.033-.065 0-.043.011-.075.034-.096h.066V14.497a.278.278 0 0 0 .033-.13l.067-.128c.022-.022.033-.043.033-.065.022-.042.067-.032.133.033h.033a3.02 3.02 0 0 1 .167-.483l-.034-.065h-.033l-.1.29c0 .065-.022.097-.066.097-.022.021-.067.01-.133-.032l-.067-.065h.1c.044.065.067.054.067-.032-.045-.107-.023-.204.066-.29 0-.043.011-.075.033-.097a.917.917 0 0 0 .034-.225c.022-.086.044-.182.066-.29v-.032c-.022 0-.033.01-.033.032-.111.28-.222.59-.333.934ZM29.801 18.2c-.022 0-.033-.01-.033-.032v-.065c-.066.065-.1.086-.1.065l-.066.193a.515.515 0 0 1-.034.161 6.018 6.018 0 0 1-.066.29 2.232 2.232 0 0 1-.1.29 6.018 6.018 0 0 1-.066.29l-.067.257v.064h.033a.697.697 0 0 1 .134-.16.278.278 0 0 0 .033-.13c0-.064.01-.117.033-.16a.836.836 0 0 0 .1-.387c.022-.15.066-.29.133-.418a.279.279 0 0 0 .033-.13c0-.042.011-.085.033-.128Zm1.83-2.963a.241.241 0 0 1-.034-.096c-.022.021-.055.032-.1.032-.021 0-.033.021-.033.064l-.2.58c0 .043.012.064.034.064.11.022.11.086 0 .194v.064h.067l.033-.032a.592.592 0 0 0 .033-.193.59.59 0 0 1 .033-.194v-.096a.278.278 0 0 0 .034-.13l.066-.128.067-.129Zm-1.397 2.094c-.022 0 0 .032.066.096.045-.043.067-.075.067-.096l.066-.323.067-.322v-.032h-.067l-.2.677Zm1.763-2.577c0-.043-.012-.064-.034-.064v-.065h-.033a1.239 1.239 0 0 0-.067.161l-.066.13-.067.192a.515.515 0 0 1-.033.162v.064c.045 0 .078-.01.1-.032a.241.241 0 0 0 .033-.097c0-.043.011-.086.034-.129.022-.064.044-.118.066-.16.022-.065.044-.119.067-.162Zm-5.688-6.118a.506.506 0 0 0-.1.128l-.066.13a.215.215 0 0 0-.067.16l.1.097c0-.043.022-.065.067-.065 0-.043.01-.075.033-.096.044-.043.055-.097.033-.161v-.193Zm2.827 11.786a.484.484 0 0 0-.066.193v.097c.066 0 .1-.022.1-.065a.992.992 0 0 0 .066-.29c.022-.02.033-.053.033-.096-.022-.021-.044-.032-.066-.032-.045.043-.067.075-.067.096v.097Zm.665-2.705v.193c.023 0 .034.01.034.032.044-.043.066-.075.066-.096v-.097a.278.278 0 0 0 .033-.129c0-.021-.01-.032-.033-.032v-.064l-.066.064c-.023.022-.034.054-.034.097v.032Zm-2.56 6.827v.032c.021.022.033.043.033.065v-.065c.022 0 .033-.01.033-.032.044-.043.055-.107.033-.193-.022-.086 0-.15.067-.193-.023 0-.034-.043-.034-.13-.022.022-.033.054-.033.097a9.141 9.141 0 0 0-.1.419Zm2.594-4.992c-.023 0-.034-.01-.034-.032l-.066.13a.378.378 0 0 0-.067.096v.096c.023 0 .034.022.034.065l.066-.065a.995.995 0 0 0 .067-.29Zm-1.231-9.21v-.032c-.022 0-.033.01-.033.032a3.137 3.137 0 0 0-.2.322h.067c.066-.107.122-.214.166-.322Zm2.295 6.377-.067-.065a2.33 2.33 0 0 0-.1.258h.067a.242.242 0 0 0 .033-.097.375.375 0 0 0 .067-.096Zm-4.89-6.892a.696.696 0 0 1-.132-.16.555.555 0 0 0-.067.16l.033.032c0 .022.011.032.034.032l.133-.064Zm.566 17.519.067-.065c-.023 0-.045-.01-.067-.032h-.033l-.033.032v.033a.436.436 0 0 0-.034.193v.096l.067-.064v-.097c.022-.021.033-.053.033-.096Zm4.257-10.015.067.064c.066-.064.1-.118.1-.161v-.097h-.034a.75.75 0 0 1-.133.194Zm-3.193 7.922c0-.022-.01-.043-.033-.065 0 .022-.01.032-.033.032v.033a.65.65 0 0 0-.033.257h.033c0-.064.022-.14.066-.225v-.032Zm4.457-10.917a44.4 44.4 0 0 0-.033-.065c-.066.065-.1.107-.1.129-.022 0 0 .032.067.097 0-.065.022-.118.066-.161Zm-5.421 12.849v.032c.022.021.033.043.033.064.022-.021.033-.053.033-.096v-.065c.023-.021.034-.053.034-.096-.022.021-.045.032-.067.032l-.033.032v.097Zm-.898-17.648c0 .022.01.032.033.032 0-.042.022-.107.067-.193l-.034-.064-.1.193c0 .022.012.032.034.032Zm3.026 13.944c.023-.107.045-.225.067-.354a1.79 1.79 0 0 1 .1-.322c.044-.107.077-.215.1-.322.044-.086.077-.183.1-.29a.59.59 0 0 0 .033-.193c0-.064.01-.14.033-.226 0-.042.011-.096.033-.16l.067-.13c.022.022.044.033.066.033h.034c0 .021.01.032.033.032l.033.064c-.089.172-.144.301-.166.387-.022.021-.034.043-.034.064v.033c.09.043.111.064.067.064l-.067.064c-.022 0-.033.022-.033.065.022.107.011.193-.033.257l-.133.258c-.022.021-.033.064-.033.129a3.79 3.79 0 0 1-.133.29 2.24 2.24 0 0 1-.1.29c-.022 0-.034.01-.034.032v-.065Zm-2.76 7.085c.044-.172.089-.3.133-.386.022-.086.078-.236.166-.451l.1-.097c.022-.021.033-.054.033-.096v-.065h.034c.022.022.033.054.033.097v.225c.022.129-.022.236-.133.322-.022 0-.045.01-.067.032 0 .043-.01.076-.033.097-.044.172-.089.3-.133.387l-.033.032h-.034c-.044-.043-.066-.076-.066-.097Zm2.129-6.086.1-.29a1.03 1.03 0 0 0 .033-.258c0-.086.01-.172.033-.258.044-.107.078-.214.1-.322a2.21 2.21 0 0 1 .1-.29c0-.02.01-.032.033-.032h.033l.033.033v.225a1.232 1.232 0 0 0-.1.258.557.557 0 0 1-.066.257l-.067.258-.066.258-.1.193-.033.032c0-.021-.011-.032-.033-.032v-.032Zm.798-2.544c-.089-.108-.111-.204-.067-.29.045-.065.089-.14.133-.226 0-.043.011-.075.034-.096l.033-.033c.022 0 .044-.01.066-.032 0 .022-.01.032-.033.032v.065a2.473 2.473 0 0 0-.1.386c-.022.15-.044.29-.066.419l-.1.193-.067.065c0-.022-.01-.043-.033-.065-.022-.021-.022-.043 0-.064a.805.805 0 0 0 .1-.193 1.55 1.55 0 0 1 .1-.161Zm-3.226 7.213a2.236 2.236 0 0 0-.1.29.558.558 0 0 1-.067.258 4.472 4.472 0 0 1-.1.322c0 .021-.033.032-.1.032v-.097a.348.348 0 0 0 .034-.16c.022-.065.044-.119.066-.162a.558.558 0 0 0 .067-.258.34.34 0 0 1 .066-.193c0-.043.023-.086.067-.129.044.043.067.076.067.097Zm1.663-1.063c0 .043-.012.065-.034.065v.064l.034.032c.066-.043.1-.053.1-.032v.097a1.736 1.736 0 0 0-.1.225.34.34 0 0 1-.067.194c0 .02-.011.032-.033.032v.032l-.033-.065a.28.28 0 0 0 .033-.128c.022-.043 0-.076-.067-.097v-.129a.278.278 0 0 0 .034-.129c0-.043.01-.085.033-.128 0-.043.022-.086.066-.13v.065c0 .022.011.032.034.032Zm.066-.515c.044-.107.078-.204.1-.29.022-.086.055-.171.1-.257a.241.241 0 0 0 .033-.097c.022 0 .044-.021.067-.064l.066-.065v.065c.022.021.033.043.033.064-.044.107-.1.215-.166.322l-.133.322c0 .022-.022.054-.067.097 0-.022-.01-.043-.033-.065v-.032Zm.965-8.695a.264.264 0 0 1 .033-.225c.044-.065.022-.129-.067-.193v-.033c.09-.171.156-.31.2-.418.022-.022.044-.033.067-.033v.065l-.067.258c0 .085-.011.171-.033.257a1.225 1.225 0 0 0-.067.161 1.217 1.217 0 0 0-.066.161Zm2.261.226a6.69 6.69 0 0 1-.2.45l-.032.033c-.045-.043-.067-.075-.067-.097a.798.798 0 0 0 .1-.193.705.705 0 0 1 .1-.226l.033-.032.066.065ZM26.01 31.21v.097c.023.021.034.043.034.064a1.227 1.227 0 0 1-.067.161.59.59 0 0 1-.033.193l-.1.097c-.022-.021-.033-.043-.033-.064v-.033c.022-.085.044-.16.067-.225a2.97 2.97 0 0 0 .066-.226l.067-.064Zm-1.396-.16v.547l-.034.032c-.022 0-.033.01-.033.032h-.066v-.129l.033-.064c-.089-.043-.122-.086-.1-.13a.504.504 0 0 0 .1-.128c0-.043.033-.097.1-.16Zm2.162-17.584.033-.032c0-.022.011-.043.033-.064l.067.064c.022.021.033.064.033.129a1.42 1.42 0 0 1-.333.257l-.066-.064.233-.29Zm.831 8.953c-.044-.043-.066-.086-.066-.13l.1-.289.066-.064v.032c.022.021.033.043.033.064 0 .043.011.086.034.129 0 .086-.012.15-.034.193l-.133.065Zm-3.293 10.08a1.23 1.23 0 0 1-.066.16.59.59 0 0 1-.033.194c0 .021-.011.032-.034.032-.022 0-.033.01-.033.032-.044-.043-.066-.075-.066-.097l.1-.386c0-.022.021-.032.066-.032 0 .021.022.053.066.096Zm4.258-8.341a.557.557 0 0 0 .066-.258 1.75 1.75 0 0 1 .1-.226c.022-.02.044-.032.067-.032v.065c.022.021.033.043.033.064l-.067.129-.066.193c-.022.022-.034.054-.034.097l-.033.032c0 .021-.01.043-.033.064a.278.278 0 0 0-.033-.128Zm.166 2.157a1.028 1.028 0 0 0-.066.258.377.377 0 0 1-.067.096.279.279 0 0 1-.033.13c0 .02-.023.053-.067.096l-.033-.064c.022-.108.078-.269.166-.484l.067-.064c0 .021.01.032.033.032Zm-3.226-15.039v-.129a3.01 3.01 0 0 1 .066-.225l.067-.193c.044-.043.089-.065.133-.065v.065c.022 0 .033.01.033.032-.044.064-.089.14-.133.225a.801.801 0 0 1-.1.194.375.375 0 0 0-.066.096Zm3.658 13.558c-.044-.043-.066-.075-.066-.097a.983.983 0 0 1 .133-.354v-.032c.022 0 .033-.01.033-.032.045.043.067.075.067.096a2.104 2.104 0 0 1-.167.387v.032Zm-2.76 6.44.066-.193.067-.193h.033l.1.097c-.022.021-.033.064-.033.128.022.065-.023.076-.133.033l-.067.128h-.033Zm2.428-8.662a.402.402 0 0 0-.1.16.403.403 0 0 1-.1.162h-.033v-.032c.044-.172.089-.3.133-.387l.033-.032.067.129Zm-4.224 9.435h-.1c-.11.022-.133.076-.067.161.023 0 .034.022.034.065-.023.021-.045.032-.067.032 0-.043-.01-.064-.033-.064a.426.426 0 0 1 .033-.29c.044-.043.067-.075.067-.097l.133.193Zm2.195-1.803a2.457 2.457 0 0 1-.133.322c0 .021-.011.032-.033.032v-.225a.59.59 0 0 0 .033-.193c.022 0 .055-.022.1-.065v.032c.022.022.033.054.033.097Zm5.022-12.205-.066.064c-.022 0-.045.011-.067.033l-.1.096c.023.022.056.032.1.032h.034c0 .022-.023.054-.067.097h-.067a.279.279 0 0 0-.033-.129c-.022-.064.022-.107.133-.129v-.032c.022-.021.034-.043.034-.064v-.033c.022-.02.033-.053.033-.096 0 .021.022.075.066.16Zm-5.62 14.17a.812.812 0 0 1-.034.257v.258l-.033.032c0-.022-.011-.032-.034-.032a.488.488 0 0 1 .1-.516Zm.265-3.994a.995.995 0 0 1-.066.29l-.034.032c-.044 0-.088-.021-.133-.064l.067-.065a.375.375 0 0 1 .066-.096.37.37 0 0 0 .067-.097h.033Zm2.86-18.163c-.021-.021-.021-.032 0-.032.045-.064.078-.118.1-.16.045-.065.09-.119.134-.162.022 0 .044.011.066.032a1.068 1.068 0 0 0-.133.161 1.062 1.062 0 0 0-.133.162h-.033ZM25.91 28.505a.279.279 0 0 0-.033.129l-.067.129c-.044-.043-.066-.086-.066-.13l.1-.192.066.064Zm2.262-8.373a.278.278 0 0 0-.034.129.28.28 0 0 1-.033.129c-.022 0-.044.01-.067.032l-.033-.064.1-.29c.022-.022.044-.032.067-.032v.096Zm-.998-6.988c-.022.064-.056.107-.1.129l-.067.064c-.022-.021-.033-.043-.033-.064l.034-.032c0-.022.01-.043.033-.065.022-.021.033-.043.033-.064 0-.043.011-.075.033-.097.022.022.034.043.034.065 0 .021.01.043.033.064Zm1.73 12.592a4.421 4.421 0 0 1-.1.322c0 .043-.023.064-.067.064v-.097a.992.992 0 0 0 .067-.29l.066-.064.033.065Zm3.16-8.728-.067.13a.374.374 0 0 0-.067.096c-.022-.022-.033-.043-.033-.065a.75.75 0 0 1 .133-.193l.033.032Zm.165-.772c0-.022-.01-.043-.033-.065a.372.372 0 0 1-.066-.096l.033-.065h.066c.023-.021.045-.032.067-.032l.033.064a.738.738 0 0 1-.1.194Zm-.332-.387c-.045-.086-.056-.16-.034-.225l.067-.194h.033c0-.021.011-.032.034-.032v.065l-.1.386Zm-.965-7.858c-.044-.042-.077-.064-.1-.064a.94.94 0 0 1 .2-.16l.033.031a.749.749 0 0 1-.133.193Zm-5.122 2.577-.066-.032a.243.243 0 0 0 .033-.097l.066-.129c.023-.021.056-.032.1-.032v.096a.75.75 0 0 0-.133.194Zm.532 20.063c-.022-.022-.033-.044-.033-.065v-.032c0-.022.022-.097.066-.226h.034l.1.097-.134.129a.243.243 0 0 1-.033.097Zm.666-1.353a.65.65 0 0 1-.034.258l-.066.064c0-.022-.011-.043-.034-.064v-.033l.1-.193.034-.032Zm3.858-10.917-.1.193c0-.043-.011-.064-.033-.064v-.097c0-.021.01-.032.033-.032.022-.021.033-.043.033-.064l.067.064Zm-3.56 9.436c-.044-.065-.055-.097-.032-.097a.279.279 0 0 0-.034-.129c0-.021.023-.043.067-.064l.066.032a.243.243 0 0 0-.033.097.515.515 0 0 1-.033.16ZM33.46 11.34l.1.096-.034.033c-.022 0-.033.01-.033.032-.022 0-.066-.033-.133-.097.022 0 .056-.021.1-.064Zm-6.386 17.486a.504.504 0 0 1 .1-.129l.066.032-.1.194c0-.022-.022-.054-.066-.097ZM30.367 8.54a1.213 1.213 0 0 0-.067.161 1.226 1.226 0 0 1-.066.161c0 .021-.011.032-.034.032 0-.021 0-.021 0 0V8.83l.067-.129c.022-.064.044-.118.067-.161h.033Zm-.898 6.312a.744.744 0 0 1-.1.16c0-.02-.011-.031-.033-.031v-.033l.1-.193v.065c.022 0 .033.01.033.032Zm2.295 1.513a.506.506 0 0 0-.1.13l-.067-.065a.483.483 0 0 0 .067-.193.502.502 0 0 1 .1.128ZM30.1 8.958l.033.064a.374.374 0 0 1-.067.097c-.022 0-.044.021-.066.064l-.033-.032a.748.748 0 0 1 .133-.193Zm-2.694 14.201c.044.086.077.14.1.161-.023.022-.034.043-.034.065l-.066-.065c-.023 0-.045-.01-.067-.032l.067-.129Zm-4.324-11.432.033.032a.278.278 0 0 0-.033.13.242.242 0 0 1-.034.096h-.066l-.033-.032a.242.242 0 0 0 .033-.097l.066-.129h.034Zm8.182 8.663-.067-.065a.372.372 0 0 1 .067-.096.373.373 0 0 0 .066-.097l.034.032c-.023.065-.056.14-.1.226Zm-4.99-6.119a.482.482 0 0 1-.066.193l-.033-.064.1-.129Zm-.764 14.363c.044-.129.088-.226.133-.29v.064a1.75 1.75 0 0 1-.1.226h-.033Zm2.461-7.407c0-.043-.011-.075-.033-.096a.24.24 0 0 1 .033-.097c.022-.022.044-.032.066-.032v.064c0 .021-.033.065-.1.129l.034.032Zm2.395-15.522a.377.377 0 0 1-.067.097.374.374 0 0 0-.066.096H30.2v-.064l.034-.065a.374.374 0 0 0 .066-.096h.034c.022 0 .033.01.033.032Zm-4.39 23.38-.067.064-.033-.032c-.023 0-.034-.01-.034-.032a.503.503 0 0 0 .1-.13v.033c.022.022.033.054.033.097Zm4.59-6.216v-.064l.1-.193h.032a.483.483 0 0 0-.066.193l-.067.064Zm1.563-6.698a.388.388 0 0 0-.1.065l-.067.032h-.033a.692.692 0 0 0 .133-.161l.067.064Zm-7.251 13.912c.022-.021.033-.043.033-.064 0-.022.011-.043.033-.065v.032c.023.022.034.054.034.097l-.067.064c0-.021-.011-.042-.033-.064Zm7.25-14.524.034-.064a.378.378 0 0 0 .066-.097l.034.033-.1.193c0-.022-.011-.033-.033-.033v-.032Zm-6.12 16.392h-.033c0-.108.012-.183.034-.226 0 .043.01.065.033.065 0 .043-.011.064-.033.064v.097Zm.7-2.64c-.023.02-.045.042-.067.064 0 .021-.011.043-.034.064a21.729 21.729 0 0 1-.033-.032.24.24 0 0 0 .033-.097c.023 0 .045-.021.067-.064 0 .021.01.043.033.064Zm.498-.162a.243.243 0 0 0-.033.097.278.278 0 0 1-.034.129l-.033.032c0-.022-.01-.032-.033-.032v-.033l.1-.193h.033Zm1.73-4.219c0-.064.022-.14.066-.225.022 0 .033-.01.033-.032v.064a.483.483 0 0 0-.066.194h-.033Zm.033-9.274c0-.022-.011-.032-.033-.032v-.033c.044-.042.066-.085.066-.128l.067.064c0 .065-.034.107-.1.129Zm2.927.902v-.097c0-.021.022-.054.066-.097v.033c.022 0 .034.01.034.032a.503.503 0 0 0-.1.129Zm-3.991-4.895.066-.065.033.032c-.022.022-.033.043-.033.065 0 .021-.011.043-.033.064 0-.021-.011-.032-.034-.032v-.064Z"/></svg>