<?xml version="1.0" encoding="UTF-8"?>
<!DOCTYPE svg PUBLIC "-//W3C//DTD SVG 1.1//EN" "http://www.w3.org/Graphics/SVG/1.1/DTD/svg11.dtd">
<svg xmlns="http://www.w3.org/2000/svg" version="1.1" width="808px" height="569px" style="shape-rendering:geometricPrecision; text-rendering:geometricPrecision; image-rendering:optimizeQuality; fill-rule:evenodd; clip-rule:evenodd" xmlns:xlink="http://www.w3.org/1999/xlink">
<g><path style="opacity:1" fill="#da7c22" d="M 492.5,47.5 C 553.16,48.269 613.827,48.769 674.5,49C 698.449,51.4772 720.115,59.8106 739.5,74C 741.557,77.7229 744.557,80.3896 748.5,82C 750.487,83.3189 751.654,85.1523 752,87.5C 753.815,89.4049 755.815,91.0716 758,92.5C 761.504,98.8441 765.504,104.844 770,110.5C 782.043,133.754 786.209,158.421 782.5,184.5C 762.086,167.46 739.42,154.293 714.5,145C 665.647,129.98 627.147,143.48 599,185.5C 587.671,205.491 576.337,225.491 565,245.5C 558.585,254.586 551.418,263.086 543.5,271C 534.994,275.824 525.994,276.824 516.5,274C 512.618,272.566 509.285,270.4 506.5,267.5C 510.498,257.225 513.331,246.559 515,235.5C 516.291,226.337 517.458,217.17 518.5,208C 518.265,207.127 517.931,206.293 517.5,205.5C 519.039,202.647 520.039,199.647 520.5,196.5C 519.537,183.836 519.37,171.169 520,158.5C 517.678,142.913 515.344,127.247 513,111.5C 512.518,108.067 511.351,104.9 509.5,102C 509.735,101.127 510.069,100.293 510.5,99.5C 505.11,81.9336 499.11,64.6003 492.5,47.5 Z"/></g>
<g><path style="opacity:1" fill="#da7c22" d="M 325.5,369.5 C 326.674,368.486 327.34,367.153 327.5,365.5C 330.406,360.019 333.072,354.352 335.5,348.5C 336.906,348.027 337.573,347.027 337.5,345.5C 369.93,277.971 402.93,210.638 436.5,143.5C 436.167,143.167 435.833,142.833 435.5,142.5C 361.424,235.122 286.924,327.789 212,420.5C 208.931,423.807 205.098,425.307 200.5,425C 186.51,426.071 172.51,426.904 158.5,427.5C 158.351,426.448 158.517,425.448 159,424.5C 262.767,303.699 366.1,182.366 469,60.5C 470.085,59.7069 471.252,59.0402 472.5,58.5C 473.896,63.0963 475.063,67.763 476,72.5C 479.999,101.161 481.999,129.828 482,158.5C 480.136,180.221 477.136,201.887 473,223.5C 465.597,249.37 455.264,274.036 442,297.5C 409.918,344.46 366.918,378.127 313,398.5C 312.5,398.167 312,397.833 311.5,397.5C 316.565,388.703 321.232,379.37 325.5,369.5 Z"/></g>
<g><path style="opacity:1" fill="#da7c22" d="M 407.5,60.5 C 409.048,60.8212 409.715,61.8212 409.5,63.5C 369.941,84.9489 330.941,107.449 292.5,131C 254.304,144.644 214.971,152.81 174.5,155.5C 152.077,155.726 129.743,153.893 107.5,150C 98.5304,147.467 89.5304,144.8 80.5,142C 70.2379,137.931 60.2379,133.265 50.5,128C 52.972,126.54 55.6387,125.54 58.5,125C 78.9779,122.369 98.9779,118.703 118.5,114C 205.504,98.0854 292.504,82.4187 379.5,67C 388.948,64.7801 398.282,62.6134 407.5,60.5 Z"/></g>
<g><path style="opacity:1" fill="#da7c22" d="M 31.5,307.5 C 32.1098,306.609 32.4431,305.609 32.5,304.5C 162.831,230.337 292.831,155.67 422.5,80.5C 422.833,80.8333 423.167,81.1667 423.5,81.5C 386.749,124.524 350.082,167.691 313.5,211C 300.215,220.617 287.215,230.617 274.5,241C 245.225,261.477 214.225,279.144 181.5,294C 156.642,303.631 130.976,310.298 104.5,314C 79.6309,316.309 55.2975,314.142 31.5,307.5 Z"/></g>
<g><path style="opacity:1" fill="#d97c22" d="M 665.5,161.5 C 674.506,161.334 683.506,161.5 692.5,162C 671.615,168.266 653.449,180.099 638,197.5C 621.894,218.965 608.227,241.965 597,266.5C 586.754,282.08 573.92,294.913 558.5,305C 540.836,314.751 522.169,317.085 502.5,312C 499.307,310.946 496.307,309.446 493.5,307.5C 495.915,301.967 498.248,296.467 500.5,291C 509.655,294.161 519.155,296.328 529,297.5C 534.629,296.923 540.129,295.756 545.5,294C 551.534,289.988 557.534,285.988 563.5,282C 572.035,272.116 579.869,261.616 587,250.5C 598.093,232.653 608.426,214.319 618,195.5C 629.287,177.624 645.121,166.291 665.5,161.5 Z"/></g>
<g><path style="opacity:1" fill="#c3701e" d="M 32.5,304.5 C 32.4431,305.609 32.1098,306.609 31.5,307.5C 30.2848,306.221 30.6182,305.221 32.5,304.5 Z"/></g>
<g><path style="opacity:1" fill="#be6e1d" d="M 337.5,345.5 C 337.573,347.027 336.906,348.027 335.5,348.5C 335.427,346.973 336.094,345.973 337.5,345.5 Z"/></g>
<g><path style="opacity:1" fill="#da7c22" d="M 468.5,354.5 C 470.199,354.34 471.866,354.506 473.5,355C 479.259,358.922 485.426,362.089 492,364.5C 494.528,375.892 497.194,387.558 500,399.5C 500.273,401.329 501.107,402.829 502.5,404C 501.978,404.561 501.645,405.228 501.5,406C 508.823,433.601 516.156,461.601 523.5,490C 525.531,496.736 526.698,503.569 527,510.5C 511.908,508.764 496.742,507.264 481.5,506C 480.853,504.391 480.02,502.891 479,501.5C 469.309,462.21 459.809,422.877 450.5,383.5C 450.577,381.701 451.077,380.034 452,378.5C 458.251,370.993 463.751,362.993 468.5,354.5 Z"/></g>
<g><path style="opacity:1" fill="#be6e1d" d="M 327.5,365.5 C 327.34,367.153 326.674,368.486 325.5,369.5C 325.229,367.62 325.896,366.287 327.5,365.5 Z"/></g>
<g><path style="opacity:1" fill="#da7c22" d="M 406.5,426.5 C 407.586,426.62 408.253,427.287 408.5,428.5C 398.16,463.352 387.327,498.018 376,532.5C 357.565,533.825 339.065,533.825 320.5,532.5C 325.842,513.974 330.675,495.307 335,476.5C 357.891,464.875 379.058,450.708 398.5,434C 401.692,432.173 404.359,429.673 406.5,426.5 Z"/></g>
<g><path style="opacity:1" fill="#b6691c" d="M 439.5,432.5 C 438.833,433.5 438.167,434.5 437.5,435.5C 437.34,433.801 437.506,432.134 438,430.5C 438.717,431.044 439.217,431.711 439.5,432.5 Z"/></g>
<g><path style="opacity:1" fill="#d97c22" d="M 439.5,432.5 C 446.279,461.622 453.446,490.955 461,520.5C 462.623,524.275 464.123,528.108 465.5,532C 451.658,533.481 437.658,533.981 423.5,533.5C 428.276,500.737 432.942,468.07 437.5,435.5C 438.167,434.5 438.833,433.5 439.5,432.5 Z"/></g>
<g><path style="opacity:1" fill="#da7c22" d="M 300.5,490.5 C 301.978,490.238 303.311,490.571 304.5,491.5C 296.979,505.371 289.313,519.205 281.5,533C 260.159,533.833 238.826,533.666 217.5,532.5C 223.445,525.396 228.778,517.896 233.5,510C 252.535,506.575 271.201,501.908 289.5,496C 293.538,494.648 297.205,492.814 300.5,490.5 Z"/></g>
</svg>
