<svg width="24" height="24" viewBox="0 0 24 24" fill="none" xmlns="http://www.w3.org/2000/svg">
<path d="M2 18H9" stroke="#D9D9D9" stroke-width="1.5" stroke-linecap="round" stroke-linejoin="round"/>
<path d="M2 18H9" stroke="url(#paint0_linear_61_6200)" stroke-width="1.5" stroke-linecap="round" stroke-linejoin="round"/>
<path fill-rule="evenodd" clip-rule="evenodd" d="M4.63611 12.6361L2 10L3.55279 9.22361C3.83432 9.08285 4.16568 9.08285 4.44721 9.22361L6 10L9.19243 8.02314L5 4.02314L7.80757 3L13 6L17.5011 3.428C18.0937 3.08937 18.8108 3.0478 19.4385 3.31569C20.0663 3.58358 20.5324 4.13001 20.698 4.79218V4.79218C20.8774 5.50966 20.5665 6.26006 19.9324 6.64056L11.3256 11.8046C11.1104 11.9337 10.8729 12.0212 10.6254 12.0624L5.50758 12.9154C5.18903 12.9685 4.86446 12.8645 4.63611 12.6361Z" stroke="#D9D9D9" stroke-width="1.5" stroke-linecap="round" stroke-linejoin="round"/>
<path fill-rule="evenodd" clip-rule="evenodd" d="M4.63611 12.6361L2 10L3.55279 9.22361C3.83432 9.08285 4.16568 9.08285 4.44721 9.22361L6 10L9.19243 8.02314L5 4.02314L7.80757 3L13 6L17.5011 3.428C18.0937 3.08937 18.8108 3.0478 19.4385 3.31569C20.0663 3.58358 20.5324 4.13001 20.698 4.79218V4.79218C20.8774 5.50966 20.5665 6.26006 19.9324 6.64056L11.3256 11.8046C11.1104 11.9337 10.8729 12.0212 10.6254 12.0624L5.50758 12.9154C5.18903 12.9685 4.86446 12.8645 4.63611 12.6361Z" stroke="url(#paint1_linear_61_6200)" stroke-width="1.5" stroke-linecap="round" stroke-linejoin="round"/>
<path d="M18.75 18.4998L17.25 17.5625V15.7998" stroke="#D9D9D9" stroke-width="1.5" stroke-linecap="round" stroke-linejoin="round"/>
<path d="M18.75 18.4998L17.25 17.5625V15.7998" stroke="url(#paint2_linear_61_6200)" stroke-width="1.5" stroke-linecap="round" stroke-linejoin="round"/>
<circle cx="17.5" cy="17.5" r="4.5" stroke="#D9D9D9" stroke-width="1.5" stroke-linecap="round" stroke-linejoin="round"/>
<circle cx="17.5" cy="17.5" r="4.5" stroke="url(#paint3_linear_61_6200)" stroke-width="1.5" stroke-linecap="round" stroke-linejoin="round"/>
<defs>
<linearGradient id="paint0_linear_61_6200" x1="2" y1="17.5" x2="7.95752" y2="20.5418" gradientUnits="userSpaceOnUse">
<stop stop-color="#00C1EB"/>
<stop offset="1" stop-color="#0094FF"/>
</linearGradient>
<linearGradient id="paint1_linear_61_6200" x1="2" y1="3" x2="21.7413" y2="5.7189" gradientUnits="userSpaceOnUse">
<stop stop-color="#00C1EB"/>
<stop offset="1" stop-color="#0094FF"/>
</linearGradient>
<linearGradient id="paint2_linear_61_6200" x1="17.25" y1="15.7998" x2="18.8568" y2="15.8649" gradientUnits="userSpaceOnUse">
<stop stop-color="#00C1EB"/>
<stop offset="1" stop-color="#0094FF"/>
</linearGradient>
<linearGradient id="paint3_linear_61_6200" x1="13" y1="13" x2="22.6054" y2="13.7006" gradientUnits="userSpaceOnUse">
<stop stop-color="#00C1EB"/>
<stop offset="1" stop-color="#0094FF"/>
</linearGradient>
</defs>
</svg>
