<svg width="20" height="20" viewBox="0 0 20 20" fill="none" xmlns="http://www.w3.org/2000/svg">
<path d="M16.8885 2.61328H2.61328V16.8885H16.8885V2.61328Z" fill="#3897F0"/>
<path d="M19.5001 7.13763L7.1377 0L6.7234e-05 12.3624L12.3624 19.5L19.5001 7.13763Z" fill="#3897F0"/>
<path d="M19.5004 12.3624L12.3628 0L0.000421185 7.13763L7.13805 19.5L19.5004 12.3624Z" fill="#3897F0"/>
<path d="M9.06558 13.4739L7.73145 12.0546L13.4569 6.88557C13.508 6.84016 13.5846 6.843 13.6329 6.89409L14.7939 8.12888C14.8421 8.17997 14.8393 8.25945 14.7853 8.30771L9.06558 13.4739Z" fill="white"/>
<path d="M9.08545 13.4566L10.553 12.1338L7.0587 8.82398C7.01044 8.77856 6.93948 8.77856 6.89122 8.82114L5.61953 9.94522C5.5656 9.99347 5.56276 10.0786 5.6167 10.1297L9.08545 13.4566Z" fill="white"/>
</svg>
