<?xml version="1.0" encoding="UTF-8"?>
<!DOCTYPE svg PUBLIC "-//W3C//DTD SVG 1.1//EN" "http://www.w3.org/Graphics/SVG/1.1/DTD/svg11.dtd">
<svg xmlns="http://www.w3.org/2000/svg" version="1.1" width="256px" height="256px" style="shape-rendering:geometricPrecision; text-rendering:geometricPrecision; image-rendering:optimizeQuality; fill-rule:evenodd; clip-rule:evenodd" xmlns:xlink="http://www.w3.org/1999/xlink">
<g><path style="opacity:0.975" fill="#ff9264" d="M 229.5,17.5 C 199.391,43.7694 169.391,70.2694 139.5,97C 139.728,97.3988 140.062,97.5654 140.5,97.5C 124.645,106.567 107.979,113.9 90.5,119.5C 102.5,108.5 114.5,97.5 126.5,86.5C 154.058,71.5433 179.392,53.3766 202.5,32C 196.722,31.9059 191.056,31.2392 185.5,30C 182.833,25.6667 182.833,21.3333 185.5,17C 192.733,15.8667 200.066,15.3667 207.5,15.5C 214.167,15.6667 220.833,15.8333 227.5,16C 228.416,16.2784 229.082,16.7784 229.5,17.5 Z"/></g>
<g><path style="opacity:0.974" fill="#ff8c64" d="M 229.5,17.5 C 230.222,17.9175 230.722,18.5842 231,19.5C 231.667,32.8333 231.667,46.1667 231,59.5C 229.471,62.516 226.971,63.8494 223.5,63.5C 221.074,63.5965 218.907,62.9298 217,61.5C 215.761,55.9445 215.094,50.2778 215,44.5C 192.482,65.5011 167.649,83.1678 140.5,97.5C 140.062,97.5654 139.728,97.3988 139.5,97C 169.391,70.2694 199.391,43.7694 229.5,17.5 Z"/></g>
<g><path style="opacity:0.985" fill="#ff8164" d="M 229.5,83.5 C 225.623,87.8113 221.623,92.1447 217.5,96.5C 209.721,96.0679 202.054,96.5679 194.5,98C 193.283,99.6477 192.45,101.481 192,103.5C 191.501,108.823 191.334,114.156 191.5,119.5C 186.167,123.833 180.833,128.167 175.5,132.5C 175.333,120.495 175.5,108.495 176,96.5C 181.745,82.373 192.245,76.7063 207.5,79.5C 212.5,79.6667 217.5,79.8333 222.5,80C 225.174,80.6701 227.507,81.8368 229.5,83.5 Z"/></g>
<g><path style="opacity:0.964" fill="#ff9963" d="M 126.5,86.5 C 114.5,97.5 102.5,108.5 90.5,119.5C 77.6284,124.722 64.2951,128.722 50.5,131.5C 50.3893,130.883 50.056,130.383 49.5,130C 57.7962,123.373 65.7962,116.373 73.5,109C 73.2716,108.601 72.9382,108.435 72.5,108.5C 90.8255,102.164 108.825,94.8308 126.5,86.5 Z"/></g>
<g><path style="opacity:0.997" fill="#ff7565" d="M 229.5,83.5 C 234.378,86.5498 237.544,90.8832 239,96.5C 239.5,104.159 239.666,111.826 239.5,119.5C 233.871,123.794 228.537,128.461 223.5,133.5C 223.666,123.494 223.5,113.494 223,103.5C 222.578,99.9608 220.745,97.6275 217.5,96.5C 221.623,92.1447 225.623,87.8113 229.5,83.5 Z"/></g>
<g><path style="opacity:0.961" fill="#ffa062" d="M 72.5,108.5 C 72.9382,108.435 73.2716,108.601 73.5,109C 65.7962,116.373 57.7962,123.373 49.5,130C 50.056,130.383 50.3893,130.883 50.5,131.5C 40.3332,134.195 29.9999,135.361 19.5,135C 17.6667,134.5 16.5,133.333 16,131.5C 13.8696,124.923 16.0362,120.756 22.5,119C 39.4103,116.585 56.077,113.085 72.5,108.5 Z"/></g>
<g><path style="opacity:0.993" fill="#ff8a64" d="M 154.5,128.5 C 153.448,128.351 152.448,128.517 151.5,129C 148.271,132.399 144.938,135.565 141.5,138.5C 133.078,135.099 124.412,134.599 115.5,137C 113.683,138.8 112.516,140.966 112,143.5C 111.5,150.826 111.334,158.159 111.5,165.5C 106.167,169.833 100.833,174.167 95.5,178.5C 95.3334,164.496 95.5001,150.496 96,136.5C 99.7046,125.796 107.205,119.963 118.5,119C 129.249,117.501 139.583,118.834 149.5,123C 151.373,124.704 153.04,126.537 154.5,128.5 Z"/></g>
<g><path style="opacity:1" fill="#ff7565" d="M 191.5,119.5 C 191.5,133.833 191.5,148.167 191.5,162.5C 186.167,166.833 180.833,171.167 175.5,175.5C 175.5,161.167 175.5,146.833 175.5,132.5C 180.833,128.167 186.167,123.833 191.5,119.5 Z"/></g>
<g><path style="opacity:1" fill="#ff6966" d="M 239.5,119.5 C 239.5,135.167 239.5,150.833 239.5,166.5C 234.167,170.833 228.833,175.167 223.5,179.5C 223.5,164.167 223.5,148.833 223.5,133.5C 228.537,128.461 233.871,123.794 239.5,119.5 Z"/></g>
<g><path style="opacity:1" fill="#ff7b65" d="M 154.5,128.5 C 156.746,130.649 158.246,133.316 159,136.5C 159.5,147.495 159.667,158.495 159.5,169.5C 154.167,173.833 148.833,178.167 143.5,182.5C 143.667,169.496 143.5,156.496 143,143.5C 142.392,141.846 141.892,140.179 141.5,138.5C 144.938,135.565 148.271,132.399 151.5,129C 152.448,128.517 153.448,128.351 154.5,128.5 Z"/></g>
<g><path style="opacity:0.99" fill="#ff9363" d="M 65.5,161.5 C 61.2148,166.452 56.5481,171.119 51.5,175.5C 36.2312,172.106 29.5646,178.106 31.5,193.5C 26.1476,197.857 20.8143,202.19 15.5,206.5C 9.57447,166.085 26.2411,151.085 65.5,161.5 Z"/></g>
<g><path style="opacity:0.99" fill="#ff8864" d="M 65.5,161.5 C 71.0953,163.927 75.262,167.927 78,173.5C 79.3774,180.076 79.8774,186.743 79.5,193.5C 74.4628,198.539 69.1295,203.206 63.5,207.5C 63.9137,198.418 63.4137,189.418 62,180.5C 59.6524,176.651 56.1524,174.984 51.5,175.5C 56.5481,171.119 61.2148,166.452 65.5,161.5 Z"/></g>
<g><path style="opacity:0.996" fill="#ff6966" d="M 191.5,162.5 C 191.5,178.167 191.5,193.833 191.5,209.5C 186.431,213.909 181.098,217.909 175.5,221.5C 175.5,206.167 175.5,190.833 175.5,175.5C 180.833,171.167 186.167,166.833 191.5,162.5 Z"/></g>
<g><path style="opacity:0.965" fill="#ff5b67" d="M 239.5,166.5 C 239.667,185.17 239.5,203.836 239,222.5C 236.167,230.667 230.667,236.167 222.5,239C 212.5,239.667 202.5,239.667 192.5,239C 183.944,235.944 178.277,230.111 175.5,221.5C 181.098,217.909 186.431,213.909 191.5,209.5C 191.351,212.607 191.851,215.607 193,218.5C 193.5,220.333 194.667,221.5 196.5,222C 204.605,222.934 212.605,222.601 220.5,221C 221.717,219.352 222.55,217.519 223,215.5C 223.5,203.505 223.667,191.505 223.5,179.5C 228.833,175.167 234.167,170.833 239.5,166.5 Z"/></g>
<g><path style="opacity:0.993" fill="#ff7b65" d="M 111.5,165.5 C 111.5,181.167 111.5,196.833 111.5,212.5C 106.5,216.5 101.5,220.5 96.5,224.5C 95.5314,209.215 95.1981,193.881 95.5,178.5C 100.833,174.167 106.167,169.833 111.5,165.5 Z"/></g>
<g><path style="opacity:0.987" fill="#ff6e66" d="M 159.5,169.5 C 159.667,187.17 159.5,204.836 159,222.5C 156.167,230.667 150.667,236.167 142.5,239C 132.5,239.667 122.5,239.667 112.5,239C 105.097,236.43 99.7641,231.597 96.5,224.5C 101.5,220.5 106.5,216.5 111.5,212.5C 111.575,216.597 113.242,219.763 116.5,222C 124.605,222.934 132.605,222.601 140.5,221C 141.717,219.352 142.55,217.519 143,215.5C 143.5,204.505 143.667,193.505 143.5,182.5C 148.833,178.167 154.167,173.833 159.5,169.5 Z"/></g>
<g><path style="opacity:0.988" fill="#ff7f65" d="M 79.5,193.5 C 85.449,231.884 69.449,246.884 31.5,238.5C 31.3893,237.883 31.056,237.383 30.5,237C 35.5,232.667 40.5,228.333 45.5,224C 49.0252,223.821 52.3586,223.321 55.5,222.5C 60.0614,222.44 62.5614,220.107 63,215.5C 63.4974,212.854 63.6641,210.187 63.5,207.5C 69.1295,203.206 74.4628,198.539 79.5,193.5 Z"/></g>
<g><path style="opacity:0.917" fill="#ff8864" d="M 31.5,193.5 C 31.3337,200.841 31.5003,208.174 32,215.5C 32.4057,218.494 33.9057,220.661 36.5,222C 42.8246,222.5 49.1579,222.666 55.5,222.5C 52.3586,223.321 49.0252,223.821 45.5,224C 40.5,228.333 35.5,232.667 30.5,237C 31.056,237.383 31.3893,237.883 31.5,238.5C 23.819,235.652 18.6523,230.318 16,222.5C 15.5006,217.177 15.334,211.844 15.5,206.5C 20.8143,202.19 26.1476,197.857 31.5,193.5 Z"/></g>
</svg>
