<svg width="26" height="26" viewBox="0 0 26 26" fill="none" xmlns="http://www.w3.org/2000/svg">
<path d="M3.99658 8.99826H22.0041" stroke="#D9D9D9" stroke-width="1.5" stroke-linecap="round" stroke-linejoin="round"/>
<path d="M3.99658 8.99826H22.0041" stroke="url(#paint0_linear_61_5862)" stroke-width="1.5" stroke-linecap="round" stroke-linejoin="round"/>
<path d="M11.8654 6.49228L11.8604 6.49728L11.8654 6.50228L11.8704 6.49728L11.8654 6.49228" stroke="#D9D9D9" stroke-width="1.5" stroke-linecap="round" stroke-linejoin="round"/>
<path d="M11.8654 6.49228L11.8604 6.49728L11.8654 6.50228L11.8704 6.49728L11.8654 6.49228" stroke="url(#paint1_linear_61_5862)" stroke-width="1.5" stroke-linecap="round" stroke-linejoin="round"/>
<path fill-rule="evenodd" clip-rule="evenodd" d="M21.6239 17.9419L17.1554 16.4524C16.9557 16.3858 16.7355 16.4378 16.5866 16.5866C16.4378 16.7355 16.3858 16.9557 16.4524 17.1554L17.9419 21.6239C18.0105 21.8298 18.1928 21.9769 18.4085 22.0006C18.6243 22.0243 18.8341 21.9202 18.9458 21.7341L19.8484 20.2296C19.9423 20.0732 20.0732 19.9422 20.2297 19.8484L21.7341 18.9457C21.9202 18.834 22.0243 18.6242 22.0006 18.4085C21.9769 18.1927 21.8298 18.0105 21.6239 17.9419Z" stroke="#D9D9D9" stroke-width="1.5" stroke-linecap="round" stroke-linejoin="round"/>
<path fill-rule="evenodd" clip-rule="evenodd" d="M21.6239 17.9419L17.1554 16.4524C16.9557 16.3858 16.7355 16.4378 16.5866 16.5866C16.4378 16.7355 16.3858 16.9557 16.4524 17.1554L17.9419 21.6239C18.0105 21.8298 18.1928 21.9769 18.4085 22.0006C18.6243 22.0243 18.8341 21.9202 18.9458 21.7341L19.8484 20.2296C19.9423 20.0732 20.0732 19.9422 20.2297 19.8484L21.7341 18.9457C21.9202 18.834 22.0243 18.6242 22.0006 18.4085C21.9769 18.1927 21.8298 18.0105 21.6239 17.9419Z" stroke="url(#paint2_linear_61_5862)" stroke-width="1.5" stroke-linecap="round" stroke-linejoin="round"/>
<path d="M21.7188 21.7188L20.0156 20.0156" stroke="#D9D9D9" stroke-width="1.5" stroke-linecap="round" stroke-linejoin="round"/>
<path d="M21.7188 21.7188L20.0156 20.0156" stroke="url(#paint3_linear_61_5862)" stroke-width="1.5" stroke-linecap="round" stroke-linejoin="round"/>
<path d="M20.0511 13.3813L19.5099 13.9375L20.0511 13.3813" stroke="#D9D9D9" stroke-width="1.5" stroke-linecap="round" stroke-linejoin="round"/>
<path d="M20.0511 13.3813L19.5099 13.9375L20.0511 13.3813" stroke="url(#paint4_linear_61_5862)" stroke-width="1.5" stroke-linecap="round" stroke-linejoin="round"/>
<path d="M16.7159 11.9995L16.7259 12.7754" stroke="#D9D9D9" stroke-width="1.5" stroke-linecap="round" stroke-linejoin="round"/>
<path d="M16.7159 11.9995L16.7259 12.7754" stroke="url(#paint5_linear_61_5862)" stroke-width="1.5" stroke-linecap="round" stroke-linejoin="round"/>
<path d="M13.3813 13.3815L13.9375 13.9217L13.3813 13.3815" stroke="#D9D9D9" stroke-width="1.5" stroke-linecap="round" stroke-linejoin="round"/>
<path d="M13.3813 13.3815L13.9375 13.9217L13.3813 13.3815" stroke="url(#paint6_linear_61_5862)" stroke-width="1.5" stroke-linecap="round" stroke-linejoin="round"/>
<path d="M11.9997 16.7157L12.7761 16.7047L11.9997 16.7157" stroke="#D9D9D9" stroke-width="1.5" stroke-linecap="round" stroke-linejoin="round"/>
<path d="M11.9997 16.7157L12.7761 16.7047L11.9997 16.7157" stroke="url(#paint7_linear_61_5862)" stroke-width="1.5" stroke-linecap="round" stroke-linejoin="round"/>
<path d="M13.3813 20.0511L13.9375 19.5099L13.3813 20.0511" stroke="#D9D9D9" stroke-width="1.5" stroke-linecap="round" stroke-linejoin="round"/>
<path d="M13.3813 20.0511L13.9375 19.5099L13.3813 20.0511" stroke="url(#paint8_linear_61_5862)" stroke-width="1.5" stroke-linecap="round" stroke-linejoin="round"/>
<path d="M9.3254 6.49228L9.3204 6.49728L9.3254 6.50228L9.33041 6.49728L9.3254 6.49228" stroke="#D9D9D9" stroke-width="1.5" stroke-linecap="round" stroke-linejoin="round"/>
<path d="M9.3254 6.49228L9.3204 6.49728L9.3254 6.50228L9.33041 6.49728L9.3254 6.49228" stroke="url(#paint9_linear_61_5862)" stroke-width="1.5" stroke-linecap="round" stroke-linejoin="round"/>
<path d="M6.77658 6.48739L6.77157 6.4924L6.77658 6.4974L6.78158 6.4924L6.77658 6.48739" stroke="#D9D9D9" stroke-width="1.5" stroke-linecap="round" stroke-linejoin="round"/>
<path d="M6.77658 6.48739L6.77157 6.4924L6.77658 6.4974L6.78158 6.4924L6.77658 6.48739" stroke="url(#paint10_linear_61_5862)" stroke-width="1.5" stroke-linecap="round" stroke-linejoin="round"/>
<path d="M10.9995 22.0041H5.99742C5.46672 22.0041 4.95771 21.7935 4.58245 21.4182C4.20719 21.043 3.99658 20.5339 3.99658 20.0032V5.99742C3.99658 5.46672 4.20719 4.95771 4.58245 4.58245C4.95771 4.20719 5.46672 3.99658 5.99742 3.99658H20.0032C20.5339 3.99658 21.043 4.20719 21.4182 4.58245C21.7935 4.95771 22.0041 5.46672 22.0041 5.99742V10.9995" stroke="#D9D9D9" stroke-width="1.5" stroke-linecap="round" stroke-linejoin="round"/>
<path d="M10.9995 22.0041H5.99742C5.46672 22.0041 4.95771 21.7935 4.58245 21.4182C4.20719 21.043 3.99658 20.5339 3.99658 20.0032V5.99742C3.99658 5.46672 4.20719 4.95771 4.58245 4.58245C4.95771 4.20719 5.46672 3.99658 5.99742 3.99658H20.0032C20.5339 3.99658 21.043 4.20719 21.4182 4.58245C21.7935 4.95771 22.0041 5.46672 22.0041 5.99742V10.9995" stroke="url(#paint11_linear_61_5862)" stroke-width="1.5" stroke-linecap="round" stroke-linejoin="round"/>
<defs>
<linearGradient id="paint0_linear_61_5862" x1="3.99658" y1="8.49805" x2="11.0901" y2="17.8113" gradientUnits="userSpaceOnUse">
<stop stop-color="#00C1EB"/>
<stop offset="1" stop-color="#0094FF"/>
</linearGradient>
<linearGradient id="paint1_linear_61_5862" x1="11.3652" y1="5.99707" x2="12.4329" y2="6.07495" gradientUnits="userSpaceOnUse">
<stop stop-color="#00C1EB"/>
<stop offset="1" stop-color="#0094FF"/>
</linearGradient>
<linearGradient id="paint2_linear_61_5862" x1="16.4238" y1="16.4238" x2="22.3793" y2="16.8582" gradientUnits="userSpaceOnUse">
<stop stop-color="#00C1EB"/>
<stop offset="1" stop-color="#0094FF"/>
</linearGradient>
<linearGradient id="paint3_linear_61_5862" x1="20.0156" y1="20.0156" x2="21.8334" y2="20.1482" gradientUnits="userSpaceOnUse">
<stop stop-color="#00C1EB"/>
<stop offset="1" stop-color="#0094FF"/>
</linearGradient>
<linearGradient id="paint4_linear_61_5862" x1="19.2803" y1="13.1592" x2="20.348" y2="13.2371" gradientUnits="userSpaceOnUse">
<stop stop-color="#00C1EB"/>
<stop offset="1" stop-color="#0094FF"/>
</linearGradient>
<linearGradient id="paint5_linear_61_5862" x1="16.2207" y1="11.8872" x2="17.2884" y2="11.9651" gradientUnits="userSpaceOnUse">
<stop stop-color="#00C1EB"/>
<stop offset="1" stop-color="#0094FF"/>
</linearGradient>
<linearGradient id="paint6_linear_61_5862" x1="13.1592" y1="13.1514" x2="14.2269" y2="13.2292" gradientUnits="userSpaceOnUse">
<stop stop-color="#00C1EB"/>
<stop offset="1" stop-color="#0094FF"/>
</linearGradient>
<linearGradient id="paint7_linear_61_5862" x1="11.8877" y1="16.21" x2="12.9554" y2="16.2878" gradientUnits="userSpaceOnUse">
<stop stop-color="#00C1EB"/>
<stop offset="1" stop-color="#0094FF"/>
</linearGradient>
<linearGradient id="paint8_linear_61_5862" x1="13.1592" y1="19.2803" x2="14.2269" y2="19.3582" gradientUnits="userSpaceOnUse">
<stop stop-color="#00C1EB"/>
<stop offset="1" stop-color="#0094FF"/>
</linearGradient>
<linearGradient id="paint9_linear_61_5862" x1="8.8252" y1="5.99707" x2="9.8929" y2="6.07495" gradientUnits="userSpaceOnUse">
<stop stop-color="#00C1EB"/>
<stop offset="1" stop-color="#0094FF"/>
</linearGradient>
<linearGradient id="paint10_linear_61_5862" x1="6.27637" y1="5.99219" x2="7.34407" y2="6.07007" gradientUnits="userSpaceOnUse">
<stop stop-color="#00C1EB"/>
<stop offset="1" stop-color="#0094FF"/>
</linearGradient>
<linearGradient id="paint11_linear_61_5862" x1="3.99658" y1="3.99658" x2="23.2153" y2="5.39838" gradientUnits="userSpaceOnUse">
<stop stop-color="#00C1EB"/>
<stop offset="1" stop-color="#0094FF"/>
</linearGradient>
</defs>
</svg>
